# MagicaVoxel @ Ephtracy

# group
o 

# material
mtllib untitled-4.mtl
usemtl palette

# normals
vn -1 0 0
vn 1 0 0
vn 0 0 1
vn 0 0 -1
vn 0 -1 0
vn 0 1 0

# texcoords
vt 0.974609 0.5
vt 0.986328 0.5
vt 0.990234 0.5

# verts
v -0.7 -0.1 0.6
v -0.7 -0.1 0.1
v -0.7 -0.1 -0.6
v -0.7 0 0.1
v -0.7 0 -0.3
v -0.7 0.1 -0.3
v -0.7 0.1 -0.4
v -0.7 0.2 0.6
v -0.7 0.2 0.1
v -0.7 0.2 -0.4
v -0.7 0.2 -0.6
v -0.6 -0.1 0.8
v -0.6 -0.1 0.6
v -0.6 -0.1 -0.6
v -0.6 -0.1 -0.8
v -0.6 0 0.1
v -0.6 0 -0.1
v -0.6 0.2 0.8
v -0.6 0.2 0.6
v -0.6 0.2 0.1
v -0.6 0.2 -0.1
v -0.6 0.2 -0.6
v -0.6 0.2 -0.8
v -0.5 -0.1 0.9
v -0.5 -0.1 0.8
v -0.5 -0.1 -0.8
v -0.5 -0.1 -0.9
v -0.5 0 -0.1
v -0.5 0 -0.2
v -0.5 0.2 0.9
v -0.5 0.2 0.8
v -0.5 0.2 -0.1
v -0.5 0.2 -0.2
v -0.5 0.2 -0.8
v -0.5 0.2 -0.9
v -0.4 -0.1 1
v -0.4 -0.1 0.9
v -0.4 -0.1 -0.9
v -0.4 -0.1 -1
v -0.4 0 -0.2
v -0.4 0 -0.3
v -0.4 0.2 1
v -0.4 0.2 0.9
v -0.4 0.2 -0.2
v -0.4 0.2 -0.3
v -0.4 0.2 -0.9
v -0.4 0.2 -1
v -0.2 -0.1 1.1
v -0.2 -0.1 1
v -0.2 -0.1 -1
v -0.2 -0.1 -1.1
v -0.2 0 -0.3
v -0.2 0 -0.4
v -0.2 0.2 1.1
v -0.2 0.2 1
v -0.2 0.2 -0.3
v -0.2 0.2 -0.4
v -0.2 0.2 -1
v -0.2 0.2 -1.1
v 0.3 0 1
v 0.3 0 0.9
v 0.3 0 -0.2
v 0.3 0 -0.3
v 0.3 0 -0.6
v 0.3 0 -0.7
v 0.3 0.1 -0.6
v 0.3 0.1 -0.7
v 0.3 0.1 -0.8
v 0.3 0.2 1
v 0.3 0.2 0.9
v 0.3 0.2 -0.2
v 0.3 0.2 -0.3
v 0.3 0.2 -0.7
v 0.3 0.2 -0.8
v 0.5 0 0.9
v 0.5 0 0.8
v 0.5 0 -0.1
v 0.5 0 -0.2
v 0.5 0 -0.5
v 0.5 0 -0.6
v 0.5 0.1 -0.5
v 0.5 0.1 -0.6
v 0.5 0.1 -0.7
v 0.5 0.2 0.9
v 0.5 0.2 0.8
v 0.5 0.2 -0.1
v 0.5 0.2 -0.2
v 0.5 0.2 -0.6
v 0.5 0.2 -0.7
v 0.6 0 0.8
v 0.6 0 0.6
v 0.6 0 0.1
v 0.6 0 -0.1
v 0.6 0 -0.4
v 0.6 0 -0.5
v 0.6 0.1 -0.4
v 0.6 0.1 -0.5
v 0.6 0.1 -0.6
v 0.6 0.2 0.8
v 0.6 0.2 0.6
v 0.6 0.2 0.1
v 0.6 0.2 -0.1
v 0.6 0.2 -0.5
v 0.6 0.2 -0.6
v 0.7 0 0.6
v 0.7 0 0.1
v 0.7 0 -0.3
v 0.7 0 -0.4
v 0.7 0.1 -0.3
v 0.7 0.1 -0.4
v 0.7 0.1 -0.5
v 0.7 0.2 0.6
v 0.7 0.2 0.1
v 0.7 0.2 -0.4
v 0.7 0.2 -0.5
v -0.6 0 0.6
v -0.6 0 0.1
v -0.6 0 -0.3
v -0.6 0 -0.4
v -0.6 0.1 -0.3
v -0.6 0.1 -0.4
v -0.6 0.1 -0.5
v -0.6 0.2 0.6
v -0.6 0.2 0.1
v -0.6 0.2 -0.4
v -0.6 0.2 -0.5
v -0.5 0 0.8
v -0.5 0 0.6
v -0.5 0 0.1
v -0.5 0 -0.1
v -0.5 0 -0.4
v -0.5 0 -0.5
v -0.5 0.1 -0.4
v -0.5 0.1 -0.5
v -0.5 0.1 -0.6
v -0.5 0.2 0.8
v -0.5 0.2 0.6
v -0.5 0.2 0.1
v -0.5 0.2 -0.1
v -0.5 0.2 -0.5
v -0.5 0.2 -0.6
v -0.4 0 0.9
v -0.4 0 0.8
v -0.4 0 -0.1
v -0.4 0 -0.2
v -0.4 0 -0.5
v -0.4 0 -0.6
v -0.4 0.1 -0.5
v -0.4 0.1 -0.6
v -0.4 0.1 -0.7
v -0.4 0.2 0.9
v -0.4 0.2 0.8
v -0.4 0.2 -0.1
v -0.4 0.2 -0.2
v -0.4 0.2 -0.6
v -0.4 0.2 -0.7
v -0.2 0 1
v -0.2 0 0.9
v -0.2 0 -0.2
v -0.2 0 -0.3
v -0.2 0 -0.6
v -0.2 0 -0.7
v -0.2 0.1 -0.6
v -0.2 0.1 -0.7
v -0.2 0.1 -0.8
v -0.2 0.2 1
v -0.2 0.2 0.9
v -0.2 0.2 -0.2
v -0.2 0.2 -0.3
v -0.2 0.2 -0.7
v -0.2 0.2 -0.8
v 0.3 -0.1 1.1
v 0.3 -0.1 1
v 0.3 -0.1 -1
v 0.3 -0.1 -1.1
v 0.3 0 -0.3
v 0.3 0 -0.4
v 0.3 0.2 1.1
v 0.3 0.2 1
v 0.3 0.2 -0.3
v 0.3 0.2 -0.4
v 0.3 0.2 -1
v 0.3 0.2 -1.1
v 0.5 -0.1 1
v 0.5 -0.1 0.9
v 0.5 -0.1 -0.9
v 0.5 -0.1 -1
v 0.5 0 -0.2
v 0.5 0 -0.3
v 0.5 0.2 1
v 0.5 0.2 0.9
v 0.5 0.2 -0.2
v 0.5 0.2 -0.3
v 0.5 0.2 -0.9
v 0.5 0.2 -1
v 0.6 -0.1 0.9
v 0.6 -0.1 0.8
v 0.6 -0.1 -0.8
v 0.6 -0.1 -0.9
v 0.6 0 -0.1
v 0.6 0 -0.2
v 0.6 0.2 0.9
v 0.6 0.2 0.8
v 0.6 0.2 -0.1
v 0.6 0.2 -0.2
v 0.6 0.2 -0.8
v 0.6 0.2 -0.9
v 0.7 -0.1 0.8
v 0.7 -0.1 0.6
v 0.7 -0.1 -0.6
v 0.7 -0.1 -0.8
v 0.7 0 0.1
v 0.7 0 -0.1
v 0.7 0.2 0.8
v 0.7 0.2 0.6
v 0.7 0.2 0.1
v 0.7 0.2 -0.1
v 0.7 0.2 -0.6
v 0.7 0.2 -0.8
v 0.8 -0.1 0.6
v 0.8 -0.1 0.1
v 0.8 -0.1 -0.6
v 0.8 0 0.1
v 0.8 0 -0.3
v 0.8 0.1 -0.3
v 0.8 0.1 -0.4
v 0.8 0.2 0.6
v 0.8 0.2 0.1
v 0.8 0.2 -0.4
v 0.8 0.2 -0.6
v -0.2 -0.1 1.1
v -0.2 0.2 1.1
v 0.3 -0.1 1.1
v 0.3 0.2 1.1
v -0.4 -0.1 1
v -0.4 0.2 1
v -0.2 -0.1 1
v -0.2 0.2 1
v 0.3 -0.1 1
v 0.3 0.2 1
v 0.5 -0.1 1
v 0.5 0.2 1
v -0.5 -0.1 0.9
v -0.5 0.2 0.9
v -0.4 -0.1 0.9
v -0.4 0.2 0.9
v 0.5 -0.1 0.9
v 0.5 0.2 0.9
v 0.6 -0.1 0.9
v 0.6 0.2 0.9
v -0.6 -0.1 0.8
v -0.6 0.2 0.8
v -0.5 -0.1 0.8
v -0.5 0.2 0.8
v 0.6 -0.1 0.8
v 0.6 0.2 0.8
v 0.7 -0.1 0.8
v 0.7 0.2 0.8
v -0.7 -0.1 0.6
v -0.7 0.2 0.6
v -0.6 -0.1 0.6
v -0.6 0.2 0.6
v 0.7 -0.1 0.6
v 0.7 0.2 0.6
v 0.8 -0.1 0.6
v 0.8 0.2 0.6
v -0.6 0 0.1
v -0.6 0.2 0.1
v -0.5 0 0.1
v -0.5 0.2 0.1
v 0.6 0 0.1
v 0.6 0.2 0.1
v 0.7 0 0.1
v 0.7 0.2 0.1
v -0.5 0 -0.1
v -0.5 0.2 -0.1
v -0.4 0 -0.1
v -0.4 0.2 -0.1
v 0.5 0 -0.1
v 0.5 0.2 -0.1
v 0.6 0 -0.1
v 0.6 0.2 -0.1
v -0.4 0 -0.2
v -0.4 0.2 -0.2
v -0.2 0 -0.2
v -0.2 0.2 -0.2
v 0.3 0 -0.2
v 0.3 0.2 -0.2
v 0.5 0 -0.2
v 0.5 0.2 -0.2
v -0.7 0 -0.3
v -0.7 0.1 -0.3
v -0.6 0 -0.3
v -0.6 0.1 -0.3
v -0.2 0 -0.3
v -0.2 0.2 -0.3
v 0.3 0 -0.3
v 0.3 0.2 -0.3
v 0.7 0 -0.3
v 0.7 0.1 -0.3
v 0.8 0 -0.3
v 0.8 0.1 -0.3
v -0.7 0.1 -0.4
v -0.7 0.2 -0.4
v -0.6 0 -0.4
v -0.6 0.1 -0.4
v -0.6 0.2 -0.4
v -0.5 0 -0.4
v -0.5 0.1 -0.4
v 0.6 0 -0.4
v 0.6 0.1 -0.4
v 0.7 0 -0.4
v 0.7 0.1 -0.4
v 0.7 0.2 -0.4
v 0.8 0.1 -0.4
v 0.8 0.2 -0.4
v -0.6 0.1 -0.5
v -0.6 0.2 -0.5
v -0.5 0 -0.5
v -0.5 0.1 -0.5
v -0.5 0.2 -0.5
v -0.4 0 -0.5
v -0.4 0.1 -0.5
v 0.5 0 -0.5
v 0.5 0.1 -0.5
v 0.6 0 -0.5
v 0.6 0.1 -0.5
v 0.6 0.2 -0.5
v 0.7 0.1 -0.5
v 0.7 0.2 -0.5
v -0.5 0.1 -0.6
v -0.5 0.2 -0.6
v -0.4 0 -0.6
v -0.4 0.1 -0.6
v -0.4 0.2 -0.6
v -0.2 0 -0.6
v -0.2 0.1 -0.6
v 0.3 0 -0.6
v 0.3 0.1 -0.6
v 0.5 0 -0.6
v 0.5 0.1 -0.6
v 0.5 0.2 -0.6
v 0.6 0.1 -0.6
v 0.6 0.2 -0.6
v -0.4 0.1 -0.7
v -0.4 0.2 -0.7
v -0.2 0 -0.7
v -0.2 0.1 -0.7
v -0.2 0.2 -0.7
v 0.3 0 -0.7
v 0.3 0.1 -0.7
v 0.3 0.2 -0.7
v 0.5 0.1 -0.7
v 0.5 0.2 -0.7
v -0.2 0.1 -0.8
v -0.2 0.2 -0.8
v 0.3 0.1 -0.8
v 0.3 0.2 -0.8
v -0.2 0 1
v -0.2 0.2 1
v 0.3 0 1
v 0.3 0.2 1
v -0.4 0 0.9
v -0.4 0.2 0.9
v -0.2 0 0.9
v -0.2 0.2 0.9
v 0.3 0 0.9
v 0.3 0.2 0.9
v 0.5 0 0.9
v 0.5 0.2 0.9
v -0.5 0 0.8
v -0.5 0.2 0.8
v -0.4 0 0.8
v -0.4 0.2 0.8
v 0.5 0 0.8
v 0.5 0.2 0.8
v 0.6 0 0.8
v 0.6 0.2 0.8
v -0.6 0 0.6
v -0.6 0.2 0.6
v -0.5 0 0.6
v -0.5 0.2 0.6
v 0.6 0 0.6
v 0.6 0.2 0.6
v 0.7 0 0.6
v 0.7 0.2 0.6
v -0.7 0 0.1
v -0.7 0.2 0.1
v -0.6 0 0.1
v -0.6 0.2 0.1
v 0.7 0 0.1
v 0.7 0.2 0.1
v 0.8 0 0.1
v 0.8 0.2 0.1
v -0.6 0 -0.1
v -0.6 0.2 -0.1
v -0.5 0 -0.1
v -0.5 0.2 -0.1
v 0.6 0 -0.1
v 0.6 0.2 -0.1
v 0.7 0 -0.1
v 0.7 0.2 -0.1
v -0.5 0 -0.2
v -0.5 0.2 -0.2
v -0.4 0 -0.2
v -0.4 0.2 -0.2
v 0.5 0 -0.2
v 0.5 0.2 -0.2
v 0.6 0 -0.2
v 0.6 0.2 -0.2
v -0.4 0 -0.3
v -0.4 0.2 -0.3
v -0.2 0 -0.3
v -0.2 0.2 -0.3
v 0.3 0 -0.3
v 0.3 0.2 -0.3
v 0.5 0 -0.3
v 0.5 0.2 -0.3
v -0.2 0 -0.4
v -0.2 0.2 -0.4
v 0.3 0 -0.4
v 0.3 0.2 -0.4
v -0.7 -0.1 -0.6
v -0.7 0.2 -0.6
v -0.6 -0.1 -0.6
v -0.6 0.2 -0.6
v 0.7 -0.1 -0.6
v 0.7 0.2 -0.6
v 0.8 -0.1 -0.6
v 0.8 0.2 -0.6
v -0.6 -0.1 -0.8
v -0.6 0.2 -0.8
v -0.5 -0.1 -0.8
v -0.5 0.2 -0.8
v 0.6 -0.1 -0.8
v 0.6 0.2 -0.8
v 0.7 -0.1 -0.8
v 0.7 0.2 -0.8
v -0.5 -0.1 -0.9
v -0.5 0.2 -0.9
v -0.4 -0.1 -0.9
v -0.4 0.2 -0.9
v 0.5 -0.1 -0.9
v 0.5 0.2 -0.9
v 0.6 -0.1 -0.9
v 0.6 0.2 -0.9
v -0.4 -0.1 -1
v -0.4 0.2 -1
v -0.2 -0.1 -1
v -0.2 0.2 -1
v 0.3 -0.1 -1
v 0.3 0.2 -1
v 0.5 -0.1 -1
v 0.5 0.2 -1
v -0.2 -0.1 -1.1
v -0.2 0.2 -1.1
v 0.3 -0.1 -1.1
v 0.3 0.2 -1.1
v -0.2 -0.1 1.1
v 0.3 -0.1 1.1
v -0.4 -0.1 1
v -0.2 -0.1 1
v 0.3 -0.1 1
v 0.5 -0.1 1
v -0.5 -0.1 0.9
v -0.4 -0.1 0.9
v -0.2 -0.1 0.9
v 0.3 -0.1 0.9
v 0.5 -0.1 0.9
v 0.6 -0.1 0.9
v -0.6 -0.1 0.8
v -0.5 -0.1 0.8
v -0.4 -0.1 0.8
v 0.5 -0.1 0.8
v 0.6 -0.1 0.8
v 0.7 -0.1 0.8
v -0.7 -0.1 0.6
v -0.6 -0.1 0.6
v -0.5 -0.1 0.6
v 0.6 -0.1 0.6
v 0.7 -0.1 0.6
v 0.8 -0.1 0.6
v -0.7 -0.1 0.1
v -0.6 -0.1 0.1
v -0.5 -0.1 0.1
v 0.6 -0.1 0.1
v 0.7 -0.1 0.1
v 0.8 -0.1 0.1
v -0.6 -0.1 -0.1
v -0.5 -0.1 -0.1
v -0.4 -0.1 -0.1
v 0.5 -0.1 -0.1
v 0.6 -0.1 -0.1
v 0.7 -0.1 -0.1
v -0.5 -0.1 -0.2
v -0.4 -0.1 -0.2
v -0.2 -0.1 -0.2
v 0.3 -0.1 -0.2
v 0.5 -0.1 -0.2
v 0.6 -0.1 -0.2
v -0.4 -0.1 -0.3
v -0.2 -0.1 -0.3
v 0.3 -0.1 -0.3
v 0.5 -0.1 -0.3
v -0.2 -0.1 -0.4
v 0.3 -0.1 -0.4
v -0.7 -0.1 -0.6
v -0.6 -0.1 -0.6
v 0.7 -0.1 -0.6
v 0.8 -0.1 -0.6
v -0.6 -0.1 -0.8
v -0.5 -0.1 -0.8
v 0.6 -0.1 -0.8
v 0.7 -0.1 -0.8
v -0.5 -0.1 -0.9
v -0.4 -0.1 -0.9
v 0.5 -0.1 -0.9
v 0.6 -0.1 -0.9
v -0.4 -0.1 -1
v -0.2 -0.1 -1
v 0.3 -0.1 -1
v 0.5 -0.1 -1
v -0.2 -0.1 -1.1
v 0.3 -0.1 -1.1
v -0.2 0 1
v 0.3 0 1
v -0.4 0 0.9
v -0.2 0 0.9
v 0.3 0 0.9
v 0.5 0 0.9
v -0.5 0 0.8
v -0.4 0 0.8
v 0.5 0 0.8
v 0.6 0 0.8
v -0.6 0 0.6
v -0.5 0 0.6
v 0.6 0 0.6
v 0.7 0 0.6
v -0.7 0 0.1
v -0.6 0 0.1
v -0.5 0 0.1
v 0.6 0 0.1
v 0.7 0 0.1
v 0.8 0 0.1
v -0.6 0 -0.1
v -0.5 0 -0.1
v -0.4 0 -0.1
v 0.5 0 -0.1
v 0.6 0 -0.1
v 0.7 0 -0.1
v -0.5 0 -0.2
v -0.4 0 -0.2
v -0.2 0 -0.2
v 0.3 0 -0.2
v 0.5 0 -0.2
v 0.6 0 -0.2
v -0.7 0 -0.3
v -0.6 0 -0.3
v -0.4 0 -0.3
v -0.2 0 -0.3
v 0.3 0 -0.3
v 0.5 0 -0.3
v 0.7 0 -0.3
v 0.8 0 -0.3
v -0.6 0 -0.4
v -0.5 0 -0.4
v -0.2 0 -0.4
v 0.3 0 -0.4
v 0.6 0 -0.4
v 0.7 0 -0.4
v -0.5 0 -0.5
v -0.4 0 -0.5
v 0.5 0 -0.5
v 0.6 0 -0.5
v -0.4 0 -0.6
v -0.2 0 -0.6
v 0.3 0 -0.6
v 0.5 0 -0.6
v -0.2 0 -0.7
v 0.3 0 -0.7
v -0.7 0.1 -0.3
v -0.6 0.1 -0.3
v 0.7 0.1 -0.3
v 0.8 0.1 -0.3
v -0.7 0.1 -0.4
v -0.6 0.1 -0.4
v -0.5 0.1 -0.4
v 0.6 0.1 -0.4
v 0.7 0.1 -0.4
v 0.8 0.1 -0.4
v -0.6 0.1 -0.5
v -0.5 0.1 -0.5
v -0.4 0.1 -0.5
v 0.5 0.1 -0.5
v 0.6 0.1 -0.5
v 0.7 0.1 -0.5
v -0.5 0.1 -0.6
v -0.4 0.1 -0.6
v -0.2 0.1 -0.6
v 0.3 0.1 -0.6
v 0.5 0.1 -0.6
v 0.6 0.1 -0.6
v -0.4 0.1 -0.7
v -0.2 0.1 -0.7
v 0.3 0.1 -0.7
v 0.5 0.1 -0.7
v -0.2 0.1 -0.8
v 0.3 0.1 -0.8
v -0.2 0.2 1.1
v 0.3 0.2 1.1
v -0.4 0.2 1
v -0.2 0.2 1
v 0.3 0.2 1
v 0.5 0.2 1
v -0.5 0.2 0.9
v -0.4 0.2 0.9
v -0.2 0.2 0.9
v 0.3 0.2 0.9
v 0.5 0.2 0.9
v 0.6 0.2 0.9
v -0.6 0.2 0.8
v -0.5 0.2 0.8
v -0.4 0.2 0.8
v 0.5 0.2 0.8
v 0.6 0.2 0.8
v 0.7 0.2 0.8
v -0.7 0.2 0.6
v -0.6 0.2 0.6
v -0.5 0.2 0.6
v 0.6 0.2 0.6
v 0.7 0.2 0.6
v 0.8 0.2 0.6
v -0.7 0.2 0.1
v -0.6 0.2 0.1
v -0.5 0.2 0.1
v 0.6 0.2 0.1
v 0.7 0.2 0.1
v 0.8 0.2 0.1
v -0.6 0.2 -0.1
v -0.5 0.2 -0.1
v -0.4 0.2 -0.1
v 0.5 0.2 -0.1
v 0.6 0.2 -0.1
v 0.7 0.2 -0.1
v -0.5 0.2 -0.2
v -0.4 0.2 -0.2
v -0.2 0.2 -0.2
v 0.3 0.2 -0.2
v 0.5 0.2 -0.2
v 0.6 0.2 -0.2
v -0.4 0.2 -0.3
v -0.2 0.2 -0.3
v 0.3 0.2 -0.3
v 0.5 0.2 -0.3
v -0.7 0.2 -0.4
v -0.6 0.2 -0.4
v -0.2 0.2 -0.4
v 0.3 0.2 -0.4
v 0.7 0.2 -0.4
v 0.8 0.2 -0.4
v -0.6 0.2 -0.5
v -0.5 0.2 -0.5
v 0.6 0.2 -0.5
v 0.7 0.2 -0.5
v -0.7 0.2 -0.6
v -0.6 0.2 -0.6
v -0.5 0.2 -0.6
v -0.4 0.2 -0.6
v 0.5 0.2 -0.6
v 0.6 0.2 -0.6
v 0.7 0.2 -0.6
v 0.8 0.2 -0.6
v -0.4 0.2 -0.7
v -0.2 0.2 -0.7
v 0.3 0.2 -0.7
v 0.5 0.2 -0.7
v -0.6 0.2 -0.8
v -0.5 0.2 -0.8
v -0.2 0.2 -0.8
v 0.3 0.2 -0.8
v 0.6 0.2 -0.8
v 0.7 0.2 -0.8
v -0.5 0.2 -0.9
v -0.4 0.2 -0.9
v 0.5 0.2 -0.9
v 0.6 0.2 -0.9
v -0.4 0.2 -1
v -0.2 0.2 -1
v 0.3 0.2 -1
v 0.5 0.2 -1
v -0.2 0.2 -1.1
v 0.3 0.2 -1.1

# faces
f 4/3/1 2/3/1 1/3/1
f 4/1/1 3/1/1 2/1/1
f 5/1/1 3/1/1 4/1/1
f 6/1/1 3/1/1 5/1/1
f 7/1/1 3/1/1 6/1/1
f 8/3/1 4/3/1 1/3/1
f 9/3/1 4/3/1 8/3/1
f 10/1/1 3/1/1 7/1/1
f 11/1/1 3/1/1 10/1/1
f 18/3/1 13/3/1 12/3/1
f 19/3/1 13/3/1 18/3/1
f 20/3/1 17/3/1 16/3/1
f 21/3/1 17/3/1 20/3/1
f 22/1/1 15/1/1 14/1/1
f 23/1/1 15/1/1 22/1/1
f 30/3/1 25/3/1 24/3/1
f 31/3/1 25/3/1 30/3/1
f 32/3/1 29/3/1 28/3/1
f 33/3/1 29/3/1 32/3/1
f 34/1/1 27/1/1 26/1/1
f 35/1/1 27/1/1 34/1/1
f 42/3/1 37/3/1 36/3/1
f 43/3/1 37/3/1 42/3/1
f 44/3/1 41/3/1 40/3/1
f 45/3/1 41/3/1 44/3/1
f 46/1/1 39/1/1 38/1/1
f 47/1/1 39/1/1 46/1/1
f 54/3/1 49/3/1 48/3/1
f 55/3/1 49/3/1 54/3/1
f 56/3/1 53/3/1 52/3/1
f 57/3/1 53/3/1 56/3/1
f 58/1/1 51/1/1 50/1/1
f 59/1/1 51/1/1 58/1/1
f 66/1/1 65/1/1 64/1/1
f 67/1/1 65/1/1 66/1/1
f 69/3/1 61/3/1 60/3/1
f 70/3/1 61/3/1 69/3/1
f 71/3/1 63/3/1 62/3/1
f 72/3/1 63/3/1 71/3/1
f 73/1/1 68/1/1 67/1/1
f 74/1/1 68/1/1 73/1/1
f 81/1/1 80/1/1 79/1/1
f 82/1/1 80/1/1 81/1/1
f 84/3/1 76/3/1 75/3/1
f 85/3/1 76/3/1 84/3/1
f 86/3/1 78/3/1 77/3/1
f 87/3/1 78/3/1 86/3/1
f 88/1/1 83/1/1 82/1/1
f 89/1/1 83/1/1 88/1/1
f 96/1/1 95/1/1 94/1/1
f 97/1/1 95/1/1 96/1/1
f 99/3/1 91/3/1 90/3/1
f 100/3/1 91/3/1 99/3/1
f 101/3/1 93/3/1 92/3/1
f 102/3/1 93/3/1 101/3/1
f 103/1/1 98/1/1 97/1/1
f 104/1/1 98/1/1 103/1/1
f 109/1/1 108/1/1 107/1/1
f 110/1/1 108/1/1 109/1/1
f 112/3/1 106/3/1 105/3/1
f 113/3/1 106/3/1 112/3/1
f 114/1/1 111/1/1 110/1/1
f 115/1/1 111/1/1 114/1/1
f 118/1/2 119/1/2 120/1/2
f 120/1/2 119/1/2 121/1/2
f 116/3/2 117/3/2 123/3/2
f 123/3/2 117/3/2 124/3/2
f 121/1/2 122/1/2 125/1/2
f 125/1/2 122/1/2 126/1/2
f 131/1/2 132/1/2 133/1/2
f 133/1/2 132/1/2 134/1/2
f 127/3/2 128/3/2 136/3/2
f 136/3/2 128/3/2 137/3/2
f 129/3/2 130/3/2 138/3/2
f 138/3/2 130/3/2 139/3/2
f 134/1/2 135/1/2 140/1/2
f 140/1/2 135/1/2 141/1/2
f 146/1/2 147/1/2 148/1/2
f 148/1/2 147/1/2 149/1/2
f 142/3/2 143/3/2 151/3/2
f 151/3/2 143/3/2 152/3/2
f 144/3/2 145/3/2 153/3/2
f 153/3/2 145/3/2 154/3/2
f 149/1/2 150/1/2 155/1/2
f 155/1/2 150/1/2 156/1/2
f 161/1/2 162/1/2 163/1/2
f 163/1/2 162/1/2 164/1/2
f 157/3/2 158/3/2 166/3/2
f 166/3/2 158/3/2 167/3/2
f 159/3/2 160/3/2 168/3/2
f 168/3/2 160/3/2 169/3/2
f 164/1/2 165/1/2 170/1/2
f 170/1/2 165/1/2 171/1/2
f 172/3/2 173/3/2 178/3/2
f 178/3/2 173/3/2 179/3/2
f 176/3/2 177/3/2 180/3/2
f 180/3/2 177/3/2 181/3/2
f 174/1/2 175/1/2 182/1/2
f 182/1/2 175/1/2 183/1/2
f 184/3/2 185/3/2 190/3/2
f 190/3/2 185/3/2 191/3/2
f 188/3/2 189/3/2 192/3/2
f 192/3/2 189/3/2 193/3/2
f 186/1/2 187/1/2 194/1/2
f 194/1/2 187/1/2 195/1/2
f 196/3/2 197/3/2 202/3/2
f 202/3/2 197/3/2 203/3/2
f 200/3/2 201/3/2 204/3/2
f 204/3/2 201/3/2 205/3/2
f 198/1/2 199/1/2 206/1/2
f 206/1/2 199/1/2 207/1/2
f 208/3/2 209/3/2 214/3/2
f 214/3/2 209/3/2 215/3/2
f 212/3/2 213/3/2 216/3/2
f 216/3/2 213/3/2 217/3/2
f 210/1/2 211/1/2 218/1/2
f 218/1/2 211/1/2 219/1/2
f 220/3/2 221/3/2 223/3/2
f 221/1/2 222/1/2 223/1/2
f 223/1/2 222/1/2 224/1/2
f 224/1/2 222/1/2 225/1/2
f 225/1/2 222/1/2 226/1/2
f 220/3/2 223/3/2 227/3/2
f 227/3/2 223/3/2 228/3/2
f 226/1/2 222/1/2 229/1/2
f 229/1/2 222/1/2 230/1/2
f 233/3/3 232/3/3 231/3/3
f 234/3/3 232/3/3 233/3/3
f 237/3/3 236/3/3 235/3/3
f 238/3/3 236/3/3 237/3/3
f 241/3/3 240/3/3 239/3/3
f 242/3/3 240/3/3 241/3/3
f 245/3/3 244/3/3 243/3/3
f 246/3/3 244/3/3 245/3/3
f 249/3/3 248/3/3 247/3/3
f 250/3/3 248/3/3 249/3/3
f 253/3/3 252/3/3 251/3/3
f 254/3/3 252/3/3 253/3/3
f 257/3/3 256/3/3 255/3/3
f 258/3/3 256/3/3 257/3/3
f 261/3/3 260/3/3 259/3/3
f 262/3/3 260/3/3 261/3/3
f 265/3/3 264/3/3 263/3/3
f 266/3/3 264/3/3 265/3/3
f 269/3/3 268/3/3 267/3/3
f 270/3/3 268/3/3 269/3/3
f 273/3/3 272/3/3 271/3/3
f 274/3/3 272/3/3 273/3/3
f 277/3/3 276/3/3 275/3/3
f 278/3/3 276/3/3 277/3/3
f 281/3/3 280/3/3 279/3/3
f 282/3/3 280/3/3 281/3/3
f 285/3/3 284/3/3 283/3/3
f 286/3/3 284/3/3 285/3/3
f 289/3/3 288/3/3 287/3/3
f 290/3/3 288/3/3 289/3/3
f 293/1/3 292/1/3 291/1/3
f 294/1/3 292/1/3 293/1/3
f 297/3/3 296/3/3 295/3/3
f 298/3/3 296/3/3 297/3/3
f 301/1/3 300/1/3 299/1/3
f 302/1/3 300/1/3 301/1/3
f 306/1/3 304/1/3 303/1/3
f 307/1/3 304/1/3 306/1/3
f 308/1/3 306/1/3 305/1/3
f 309/1/3 306/1/3 308/1/3
f 312/1/3 311/1/3 310/1/3
f 313/1/3 311/1/3 312/1/3
f 315/1/3 314/1/3 313/1/3
f 316/1/3 314/1/3 315/1/3
f 320/1/3 318/1/3 317/1/3
f 321/1/3 318/1/3 320/1/3
f 322/1/3 320/1/3 319/1/3
f 323/1/3 320/1/3 322/1/3
f 326/1/3 325/1/3 324/1/3
f 327/1/3 325/1/3 326/1/3
f 329/1/3 328/1/3 327/1/3
f 330/1/3 328/1/3 329/1/3
f 334/1/3 332/1/3 331/1/3
f 335/1/3 332/1/3 334/1/3
f 336/1/3 334/1/3 333/1/3
f 337/1/3 334/1/3 336/1/3
f 340/1/3 339/1/3 338/1/3
f 341/1/3 339/1/3 340/1/3
f 343/1/3 342/1/3 341/1/3
f 344/1/3 342/1/3 343/1/3
f 348/1/3 346/1/3 345/1/3
f 349/1/3 346/1/3 348/1/3
f 350/1/3 348/1/3 347/1/3
f 351/1/3 348/1/3 350/1/3
f 353/1/3 352/1/3 351/1/3
f 354/1/3 352/1/3 353/1/3
f 357/1/3 356/1/3 355/1/3
f 358/1/3 356/1/3 357/1/3
f 359/3/4 360/3/4 361/3/4
f 361/3/4 360/3/4 362/3/4
f 363/3/4 364/3/4 365/3/4
f 365/3/4 364/3/4 366/3/4
f 367/3/4 368/3/4 369/3/4
f 369/3/4 368/3/4 370/3/4
f 371/3/4 372/3/4 373/3/4
f 373/3/4 372/3/4 374/3/4
f 375/3/4 376/3/4 377/3/4
f 377/3/4 376/3/4 378/3/4
f 379/3/4 380/3/4 381/3/4
f 381/3/4 380/3/4 382/3/4
f 383/3/4 384/3/4 385/3/4
f 385/3/4 384/3/4 386/3/4
f 387/3/4 388/3/4 389/3/4
f 389/3/4 388/3/4 390/3/4
f 391/3/4 392/3/4 393/3/4
f 393/3/4 392/3/4 394/3/4
f 395/3/4 396/3/4 397/3/4
f 397/3/4 396/3/4 398/3/4
f 399/3/4 400/3/4 401/3/4
f 401/3/4 400/3/4 402/3/4
f 403/3/4 404/3/4 405/3/4
f 405/3/4 404/3/4 406/3/4
f 407/3/4 408/3/4 409/3/4
f 409/3/4 408/3/4 410/3/4
f 411/3/4 412/3/4 413/3/4
f 413/3/4 412/3/4 414/3/4
f 415/3/4 416/3/4 417/3/4
f 417/3/4 416/3/4 418/3/4
f 419/3/4 420/3/4 421/3/4
f 421/3/4 420/3/4 422/3/4
f 423/1/4 424/1/4 425/1/4
f 425/1/4 424/1/4 426/1/4
f 427/1/4 428/1/4 429/1/4
f 429/1/4 428/1/4 430/1/4
f 431/1/4 432/1/4 433/1/4
f 433/1/4 432/1/4 434/1/4
f 435/1/4 436/1/4 437/1/4
f 437/1/4 436/1/4 438/1/4
f 439/1/4 440/1/4 441/1/4
f 441/1/4 440/1/4 442/1/4
f 443/1/4 444/1/4 445/1/4
f 445/1/4 444/1/4 446/1/4
f 447/1/4 448/1/4 449/1/4
f 449/1/4 448/1/4 450/1/4
f 451/1/4 452/1/4 453/1/4
f 453/1/4 452/1/4 454/1/4
f 455/1/4 456/1/4 457/1/4
f 457/1/4 456/1/4 458/1/4
f 462/3/5 460/3/5 459/3/5
f 463/3/5 460/3/5 462/3/5
f 466/3/5 462/3/5 461/3/5
f 467/2/5 463/2/5 462/2/5
f 467/3/5 462/3/5 466/3/5
f 468/3/5 464/3/5 463/3/5
f 468/2/5 463/2/5 467/2/5
f 469/3/5 464/3/5 468/3/5
f 472/3/5 466/3/5 465/3/5
f 473/2/5 467/2/5 466/2/5
f 473/2/5 468/2/5 467/2/5
f 473/3/5 466/3/5 472/3/5
f 473/2/5 469/2/5 468/2/5
f 474/3/5 470/3/5 469/3/5
f 474/2/5 469/2/5 473/2/5
f 475/3/5 470/3/5 474/3/5
f 478/3/5 472/3/5 471/3/5
f 479/2/5 473/2/5 472/2/5
f 479/2/5 474/2/5 473/2/5
f 479/3/5 472/3/5 478/3/5
f 479/2/5 475/2/5 474/2/5
f 480/3/5 476/3/5 475/3/5
f 480/2/5 475/2/5 479/2/5
f 481/3/5 476/3/5 480/3/5
f 483/3/5 478/3/5 477/3/5
f 484/2/5 479/2/5 478/2/5
f 484/3/5 478/3/5 483/3/5
f 484/2/5 480/2/5 479/2/5
f 484/2/5 481/2/5 480/2/5
f 485/2/5 481/2/5 484/2/5
f 486/2/5 481/2/5 485/2/5
f 487/3/5 482/3/5 481/3/5
f 487/2/5 481/2/5 486/2/5
f 488/3/5 482/3/5 487/3/5
f 489/1/5 484/1/5 483/1/5
f 489/3/5 485/3/5 484/3/5
f 490/2/5 486/2/5 485/2/5
f 490/3/5 485/3/5 489/3/5
f 491/2/5 486/2/5 490/2/5
f 492/2/5 486/2/5 491/2/5
f 493/3/5 487/3/5 486/3/5
f 493/2/5 486/2/5 492/2/5
f 494/1/5 488/1/5 487/1/5
f 494/3/5 487/3/5 493/3/5
f 495/1/5 490/1/5 489/1/5
f 495/3/5 491/3/5 490/3/5
f 496/2/5 492/2/5 491/2/5
f 496/3/5 491/3/5 495/3/5
f 497/2/5 492/2/5 496/2/5
f 498/2/5 492/2/5 497/2/5
f 499/3/5 493/3/5 492/3/5
f 499/2/5 492/2/5 498/2/5
f 500/1/5 494/1/5 493/1/5
f 500/3/5 493/3/5 499/3/5
f 501/1/5 496/1/5 495/1/5
f 501/3/5 497/3/5 496/3/5
f 502/2/5 498/2/5 497/2/5
f 502/3/5 497/3/5 501/3/5
f 503/3/5 499/3/5 498/3/5
f 503/2/5 498/2/5 502/2/5
f 504/1/5 500/1/5 499/1/5
f 504/3/5 499/3/5 503/3/5
f 505/1/5 502/1/5 501/1/5
f 505/3/5 503/3/5 502/3/5
f 506/1/5 504/1/5 503/1/5
f 506/3/5 503/3/5 505/3/5
f 507/1/5 489/1/5 483/1/5
f 507/1/5 501/1/5 495/1/5
f 507/1/5 506/1/5 505/1/5
f 507/1/5 505/1/5 501/1/5
f 507/1/5 495/1/5 489/1/5
f 508/1/5 506/1/5 507/1/5
f 509/1/5 504/1/5 506/1/5
f 509/1/5 506/1/5 508/1/5
f 509/1/5 494/1/5 500/1/5
f 509/1/5 500/1/5 504/1/5
f 509/1/5 488/1/5 494/1/5
f 510/1/5 488/1/5 509/1/5
f 511/1/5 509/1/5 508/1/5
f 512/1/5 509/1/5 511/1/5
f 513/1/5 509/1/5 512/1/5
f 514/1/5 509/1/5 513/1/5
f 515/1/5 513/1/5 512/1/5
f 516/1/5 513/1/5 515/1/5
f 517/1/5 513/1/5 516/1/5
f 518/1/5 513/1/5 517/1/5
f 519/1/5 517/1/5 516/1/5
f 520/1/5 517/1/5 519/1/5
f 521/1/5 517/1/5 520/1/5
f 522/1/5 517/1/5 521/1/5
f 523/1/5 521/1/5 520/1/5
f 524/1/5 521/1/5 523/1/5
f 525/2/6 526/2/6 528/2/6
f 528/2/6 526/2/6 529/2/6
f 527/2/6 528/2/6 532/2/6
f 529/2/6 530/2/6 532/2/6
f 528/2/6 529/2/6 532/2/6
f 532/2/6 530/2/6 533/2/6
f 531/2/6 532/2/6 536/2/6
f 533/2/6 534/2/6 536/2/6
f 532/2/6 533/2/6 536/2/6
f 536/2/6 534/2/6 537/2/6
f 535/2/6 536/2/6 540/2/6
f 537/2/6 538/2/6 540/2/6
f 536/2/6 537/2/6 540/2/6
f 540/2/6 538/2/6 541/2/6
f 541/2/6 538/2/6 542/2/6
f 542/2/6 538/2/6 543/2/6
f 539/1/6 540/1/6 545/1/6
f 541/2/6 542/2/6 546/2/6
f 546/2/6 542/2/6 547/2/6
f 547/2/6 542/2/6 548/2/6
f 548/2/6 542/2/6 549/2/6
f 543/1/6 544/1/6 550/1/6
f 545/1/6 546/1/6 551/1/6
f 547/2/6 548/2/6 552/2/6
f 552/2/6 548/2/6 553/2/6
f 553/2/6 548/2/6 554/2/6
f 554/2/6 548/2/6 555/2/6
f 549/1/6 550/1/6 556/1/6
f 539/1/6 545/1/6 557/1/6
f 545/1/6 551/1/6 557/1/6
f 551/1/6 552/1/6 557/1/6
f 557/1/6 552/1/6 558/1/6
f 558/1/6 552/1/6 559/1/6
f 553/2/6 554/2/6 560/2/6
f 560/2/6 554/2/6 561/2/6
f 555/1/6 556/1/6 562/1/6
f 556/1/6 550/1/6 563/1/6
f 550/1/6 544/1/6 563/1/6
f 562/1/6 556/1/6 563/1/6
f 563/1/6 544/1/6 564/1/6
f 558/1/6 559/1/6 565/1/6
f 559/1/6 560/1/6 565/1/6
f 565/1/6 560/1/6 566/1/6
f 566/1/6 560/1/6 567/1/6
f 561/1/6 562/1/6 568/1/6
f 562/1/6 563/1/6 568/1/6
f 568/1/6 563/1/6 569/1/6
f 569/1/6 563/1/6 570/1/6
f 566/1/6 567/1/6 571/1/6
f 568/1/6 569/1/6 571/1/6
f 567/1/6 568/1/6 571/1/6
f 571/1/6 569/1/6 572/1/6
f 572/1/6 569/1/6 573/1/6
f 573/1/6 569/1/6 574/1/6
f 572/1/6 573/1/6 575/1/6
f 575/1/6 573/1/6 576/1/6
f 576/1/6 573/1/6 577/1/6
f 577/1/6 573/1/6 578/1/6
f 576/1/6 577/1/6 579/1/6
f 579/1/6 577/1/6 580/1/6
f 581/1/6 582/1/6 585/1/6
f 585/1/6 582/1/6 586/1/6
f 583/1/6 584/1/6 589/1/6
f 589/1/6 584/1/6 590/1/6
f 586/1/6 587/1/6 591/1/6
f 591/1/6 587/1/6 592/1/6
f 588/1/6 589/1/6 595/1/6
f 595/1/6 589/1/6 596/1/6
f 592/1/6 593/1/6 597/1/6
f 597/1/6 593/1/6 598/1/6
f 594/1/6 595/1/6 601/1/6
f 601/1/6 595/1/6 602/1/6
f 598/1/6 599/1/6 603/1/6
f 603/1/6 599/1/6 604/1/6
f 600/1/6 601/1/6 605/1/6
f 605/1/6 601/1/6 606/1/6
f 604/1/6 605/1/6 607/1/6
f 607/1/6 605/1/6 608/1/6
f 609/3/6 610/3/6 612/3/6
f 612/3/6 610/3/6 613/3/6
f 611/3/6 612/3/6 616/3/6
f 616/3/6 612/3/6 617/3/6
f 613/3/6 614/3/6 618/3/6
f 618/3/6 614/3/6 619/3/6
f 615/3/6 616/3/6 622/3/6
f 622/3/6 616/3/6 623/3/6
f 619/3/6 620/3/6 624/3/6
f 624/3/6 620/3/6 625/3/6
f 621/3/6 622/3/6 628/3/6
f 628/3/6 622/3/6 629/3/6
f 625/3/6 626/3/6 630/3/6
f 630/3/6 626/3/6 631/3/6
f 627/3/6 628/3/6 633/3/6
f 633/3/6 628/3/6 634/3/6
f 631/3/6 632/3/6 637/3/6
f 637/3/6 632/3/6 638/3/6
f 634/3/6 635/3/6 639/3/6
f 639/3/6 635/3/6 640/3/6
f 636/3/6 637/3/6 643/3/6
f 643/3/6 637/3/6 644/3/6
f 640/3/6 641/3/6 645/3/6
f 645/3/6 641/3/6 646/3/6
f 642/3/6 643/3/6 649/3/6
f 649/3/6 643/3/6 650/3/6
f 646/3/6 647/3/6 651/3/6
f 651/3/6 647/3/6 652/3/6
f 648/3/6 649/3/6 653/3/6
f 653/3/6 649/3/6 654/3/6
f 652/3/6 653/3/6 657/3/6
f 657/3/6 653/3/6 658/3/6
f 655/1/6 656/1/6 661/1/6
f 659/1/6 660/1/6 664/1/6
f 661/1/6 662/1/6 665/1/6
f 655/1/6 661/1/6 665/1/6
f 665/1/6 662/1/6 666/1/6
f 666/1/6 662/1/6 667/1/6
f 663/1/6 664/1/6 670/1/6
f 664/1/6 660/1/6 671/1/6
f 670/1/6 664/1/6 671/1/6
f 671/1/6 660/1/6 672/1/6
f 667/1/6 668/1/6 673/1/6
f 666/1/6 667/1/6 673/1/6
f 669/1/6 670/1/6 676/1/6
f 670/1/6 671/1/6 676/1/6
f 673/1/6 674/1/6 677/1/6
f 666/1/6 673/1/6 677/1/6
f 677/1/6 674/1/6 678/1/6
f 678/1/6 674/1/6 679/1/6
f 675/1/6 676/1/6 680/1/6
f 676/1/6 671/1/6 681/1/6
f 680/1/6 676/1/6 681/1/6
f 681/1/6 671/1/6 682/1/6
f 678/1/6 679/1/6 683/1/6
f 679/1/6 680/1/6 683/1/6
f 680/1/6 681/1/6 683/1/6
f 683/1/6 681/1/6 684/1/6
f 684/1/6 681/1/6 685/1/6
f 685/1/6 681/1/6 686/1/6
f 684/1/6 685/1/6 687/1/6
f 687/1/6 685/1/6 688/1/6
f 688/1/6 685/1/6 689/1/6
f 689/1/6 685/1/6 690/1/6
f 688/1/6 689/1/6 691/1/6
f 691/1/6 689/1/6 692/1/6
