# MagicaVoxel @ Ephtracy

# group
o 

# material
mtllib Robot_vox-1-21.mtl
usemtl palette

# normals
vn -1 0 0
vn 1 0 0
vn 0 0 1
vn 0 0 -1
vn 0 -1 0
vn 0 1 0

# texcoords
vt 0.751953 0.5
vt 0.841797 0.5
vt 0.970703 0.5
vt 0.990234 0.5

# verts
v -0.7 -0.8 0.2
v -0.7 -0.8 -0.4
v -0.7 -0.5 0.3
v -0.7 -0.5 0.2
v -0.7 -0.5 -0.4
v -0.7 -0.5 -0.5
v -0.7 -0.2 0.3
v -0.7 -0.2 0.2
v -0.7 -0.2 -0.4
v -0.7 -0.2 -0.5
v -0.7 0 0.2
v -0.7 0 0.1
v -0.7 0 -0.3
v -0.7 0 -0.4
v -0.7 0.1 0.1
v -0.7 0.1 -0.3
v -0.6 -0.8 0.3
v -0.6 -0.8 0.2
v -0.6 -0.8 -0.4
v -0.6 -0.8 -0.5
v -0.6 -0.5 0.3
v -0.6 -0.5 0.2
v -0.6 -0.5 -0.4
v -0.6 -0.5 -0.5
v -0.6 -0.2 0.3
v -0.6 -0.2 0.2
v -0.6 -0.2 -0.4
v -0.6 -0.2 -0.5
v -0.6 0 0.3
v -0.6 0 0.2
v -0.6 0 0.1
v -0.6 0 -0.3
v -0.6 0 -0.4
v -0.6 0 -0.5
v -0.6 0.1 0.2
v -0.6 0.1 0.1
v -0.6 0.1 -0.3
v -0.6 0.1 -0.4
v -0.5 0 0.3
v -0.5 0 0.2
v -0.5 0 -0.4
v -0.5 0 -0.5
v -0.5 0.1 0.3
v -0.5 0.1 0.2
v -0.5 0.1 -0.4
v -0.5 0.1 -0.5
v -0.4 -0.5 0.4
v -0.4 -0.5 0.3
v -0.4 -0.2 0.4
v -0.4 -0.2 0.3
v -0.3 -0.7 0.4
v -0.3 -0.7 0.3
v -0.3 -0.5 0.4
v -0.3 -0.5 0.3
v -0.3 -0.2 0.4
v -0.3 -0.2 0.3
v -0.3 0 0.4
v -0.3 0 0.3
v -0.1 -0.8 0.4
v -0.1 -0.8 0.3
v -0.1 -0.7 0.4
v -0.1 -0.7 0.3
v -0.1 0 0.4
v -0.1 0 0.3
v -0.1 0.1 0.4
v -0.1 0.1 0.3
v 0.1 -0.7 0.4
v 0.1 -0.7 0.3
v 0.1 -0.6 0.4
v 0.1 -0.6 0.3
v 0.1 -0.1 0.4
v 0.1 -0.1 0.3
v 0.1 0 0.4
v 0.1 0 0.3
v 0.3 -0.6 0.4
v 0.3 -0.6 0.3
v 0.3 -0.4 0.4
v 0.3 -0.4 0.3
v 0.3 -0.3 0.4
v 0.3 -0.3 0.3
v 0.3 -0.1 0.4
v 0.3 -0.1 0.3
v 0.4 -0.4 0.4
v 0.4 -0.4 0.3
v 0.4 -0.3 0.4
v 0.4 -0.3 0.3
v 0.5 0.1 -0.2
v 0.5 0.1 -0.3
v 0.5 0.8 -0.2
v 0.5 0.8 -0.3
v 0.5 0.9 -0.2
v 0.5 0.9 -0.3
v -0.3 -0.4 0.4
v -0.3 -0.4 0.3
v -0.3 -0.3 0.4
v -0.3 -0.3 0.3
v -0.2 -0.6 0.4
v -0.2 -0.6 0.3
v -0.2 -0.4 0.4
v -0.2 -0.4 0.3
v -0.2 -0.3 0.4
v -0.2 -0.3 0.3
v -0.2 -0.1 0.4
v -0.2 -0.1 0.3
v 0 -0.7 0.4
v 0 -0.7 0.3
v 0 -0.6 0.4
v 0 -0.6 0.3
v 0 -0.1 0.4
v 0 -0.1 0.3
v 0 0 0.4
v 0 0 0.3
v 0.2 -0.8 0.4
v 0.2 -0.8 0.3
v 0.2 -0.7 0.4
v 0.2 -0.7 0.3
v 0.2 0 0.4
v 0.2 0 0.3
v 0.2 0.1 0.4
v 0.2 0.1 0.3
v 0.4 -0.7 0.4
v 0.4 -0.7 0.3
v 0.4 -0.5 0.4
v 0.4 -0.5 0.3
v 0.4 -0.2 0.4
v 0.4 -0.2 0.3
v 0.4 0 0.4
v 0.4 0 0.3
v 0.5 -0.5 0.4
v 0.5 -0.5 0.3
v 0.5 -0.2 0.4
v 0.5 -0.2 0.3
v 0.6 0 0.3
v 0.6 0 0.2
v 0.6 0 -0.4
v 0.6 0 -0.5
v 0.6 0.1 0.3
v 0.6 0.1 0.2
v 0.6 0.1 -0.2
v 0.6 0.1 -0.3
v 0.6 0.1 -0.4
v 0.6 0.1 -0.5
v 0.6 0.8 -0.2
v 0.6 0.8 -0.3
v 0.6 0.9 -0.2
v 0.6 0.9 -0.3
v 0.7 -0.8 0.3
v 0.7 -0.8 0.2
v 0.7 -0.8 -0.4
v 0.7 -0.8 -0.5
v 0.7 -0.5 0.3
v 0.7 -0.5 0.2
v 0.7 -0.5 -0.4
v 0.7 -0.5 -0.5
v 0.7 -0.2 0.3
v 0.7 -0.2 0.2
v 0.7 -0.2 -0.4
v 0.7 -0.2 -0.5
v 0.7 0 0.3
v 0.7 0 0.2
v 0.7 0 0.1
v 0.7 0 -0.3
v 0.7 0 -0.4
v 0.7 0 -0.5
v 0.7 0.1 0.2
v 0.7 0.1 0.1
v 0.7 0.1 -0.3
v 0.7 0.1 -0.4
v 0.8 -0.8 0.2
v 0.8 -0.8 -0.4
v 0.8 -0.5 0.3
v 0.8 -0.5 0.2
v 0.8 -0.5 -0.4
v 0.8 -0.5 -0.5
v 0.8 -0.2 0.3
v 0.8 -0.2 0.2
v 0.8 -0.2 -0.4
v 0.8 -0.2 -0.5
v 0.8 0 0.2
v 0.8 0 0.1
v 0.8 0 -0.3
v 0.8 0 -0.4
v 0.8 0.1 0.1
v 0.8 0.1 -0.3
v -0.4 -0.5 0.4
v -0.4 -0.2 0.4
v -0.3 -0.7 0.4
v -0.3 -0.5 0.4
v -0.3 -0.4 0.4
v -0.3 -0.3 0.4
v -0.3 -0.2 0.4
v -0.3 0 0.4
v -0.2 -0.6 0.4
v -0.2 -0.4 0.4
v -0.2 -0.3 0.4
v -0.2 -0.1 0.4
v -0.1 -0.8 0.4
v -0.1 -0.7 0.4
v -0.1 0 0.4
v -0.1 0.1 0.4
v 0 -0.7 0.4
v 0 -0.6 0.4
v 0 -0.1 0.4
v 0 0 0.4
v 0.1 -0.7 0.4
v 0.1 -0.6 0.4
v 0.1 -0.1 0.4
v 0.1 0 0.4
v 0.2 -0.8 0.4
v 0.2 -0.7 0.4
v 0.2 0 0.4
v 0.2 0.1 0.4
v 0.3 -0.6 0.4
v 0.3 -0.4 0.4
v 0.3 -0.3 0.4
v 0.3 -0.1 0.4
v 0.4 -0.7 0.4
v 0.4 -0.5 0.4
v 0.4 -0.4 0.4
v 0.4 -0.3 0.4
v 0.4 -0.2 0.4
v 0.4 0 0.4
v 0.5 -0.5 0.4
v 0.5 -0.2 0.4
v -0.7 -0.5 0.3
v -0.7 -0.2 0.3
v -0.6 -0.8 0.3
v -0.6 -0.5 0.3
v -0.6 -0.2 0.3
v -0.6 0 0.3
v -0.5 0 0.3
v -0.5 0.1 0.3
v -0.4 -0.5 0.3
v -0.4 -0.2 0.3
v -0.3 -0.7 0.3
v -0.3 -0.5 0.3
v -0.3 -0.4 0.3
v -0.3 -0.3 0.3
v -0.3 -0.2 0.3
v -0.3 0 0.3
v -0.2 -0.6 0.3
v -0.2 -0.4 0.3
v -0.2 -0.3 0.3
v -0.2 -0.1 0.3
v -0.1 -0.8 0.3
v -0.1 -0.7 0.3
v -0.1 0 0.3
v -0.1 0.1 0.3
v 0 -0.7 0.3
v 0 -0.6 0.3
v 0 -0.1 0.3
v 0 0 0.3
v 0.1 -0.7 0.3
v 0.1 -0.6 0.3
v 0.1 -0.1 0.3
v 0.1 0 0.3
v 0.2 -0.8 0.3
v 0.2 -0.7 0.3
v 0.2 0 0.3
v 0.2 0.1 0.3
v 0.3 -0.6 0.3
v 0.3 -0.4 0.3
v 0.3 -0.3 0.3
v 0.3 -0.1 0.3
v 0.4 -0.7 0.3
v 0.4 -0.5 0.3
v 0.4 -0.4 0.3
v 0.4 -0.3 0.3
v 0.4 -0.2 0.3
v 0.4 0 0.3
v 0.5 -0.5 0.3
v 0.5 -0.2 0.3
v 0.6 0 0.3
v 0.6 0.1 0.3
v 0.7 -0.8 0.3
v 0.7 -0.5 0.3
v 0.7 -0.2 0.3
v 0.7 0 0.3
v 0.8 -0.5 0.3
v 0.8 -0.2 0.3
v -0.7 -0.8 0.2
v -0.7 -0.5 0.2
v -0.7 -0.2 0.2
v -0.7 0 0.2
v -0.6 -0.8 0.2
v -0.6 -0.5 0.2
v -0.6 -0.2 0.2
v -0.6 0 0.2
v -0.6 0.1 0.2
v -0.5 0 0.2
v -0.5 0.1 0.2
v 0.6 0 0.2
v 0.6 0.1 0.2
v 0.7 -0.8 0.2
v 0.7 -0.5 0.2
v 0.7 -0.2 0.2
v 0.7 0 0.2
v 0.7 0.1 0.2
v 0.8 -0.8 0.2
v 0.8 -0.5 0.2
v 0.8 -0.2 0.2
v 0.8 0 0.2
v -0.7 0 0.1
v -0.7 0.1 0.1
v -0.6 0 0.1
v -0.6 0.1 0.1
v 0.7 0 0.1
v 0.7 0.1 0.1
v 0.8 0 0.1
v 0.8 0.1 0.1
v 0.5 0.1 -0.2
v 0.5 0.8 -0.2
v 0.5 0.9 -0.2
v 0.6 0.1 -0.2
v 0.6 0.8 -0.2
v 0.6 0.9 -0.2
v -0.7 0 -0.3
v -0.7 0.1 -0.3
v -0.6 0 -0.3
v -0.6 0.1 -0.3
v 0.5 0.1 -0.3
v 0.5 0.8 -0.3
v 0.5 0.9 -0.3
v 0.6 0.1 -0.3
v 0.6 0.8 -0.3
v 0.6 0.9 -0.3
v 0.7 0 -0.3
v 0.7 0.1 -0.3
v 0.8 0 -0.3
v 0.8 0.1 -0.3
v -0.7 -0.8 -0.4
v -0.7 -0.5 -0.4
v -0.7 -0.2 -0.4
v -0.7 0 -0.4
v -0.6 -0.8 -0.4
v -0.6 -0.5 -0.4
v -0.6 -0.2 -0.4
v -0.6 0 -0.4
v -0.6 0.1 -0.4
v -0.5 0 -0.4
v -0.5 0.1 -0.4
v 0.6 0 -0.4
v 0.6 0.1 -0.4
v 0.7 -0.8 -0.4
v 0.7 -0.5 -0.4
v 0.7 -0.2 -0.4
v 0.7 0 -0.4
v 0.7 0.1 -0.4
v 0.8 -0.8 -0.4
v 0.8 -0.5 -0.4
v 0.8 -0.2 -0.4
v 0.8 0 -0.4
v -0.7 -0.5 -0.5
v -0.7 -0.2 -0.5
v -0.6 -0.8 -0.5
v -0.6 -0.5 -0.5
v -0.6 -0.2 -0.5
v -0.6 0 -0.5
v -0.5 0 -0.5
v -0.5 0.1 -0.5
v 0.6 0 -0.5
v 0.6 0.1 -0.5
v 0.7 -0.8 -0.5
v 0.7 -0.5 -0.5
v 0.7 -0.2 -0.5
v 0.7 0 -0.5
v 0.8 -0.5 -0.5
v 0.8 -0.2 -0.5
v -0.1 -0.8 0.4
v 0.2 -0.8 0.4
v -0.6 -0.8 0.3
v -0.1 -0.8 0.3
v 0.2 -0.8 0.3
v 0.7 -0.8 0.3
v -0.7 -0.8 0.2
v -0.6 -0.8 0.2
v 0.7 -0.8 0.2
v 0.8 -0.8 0.2
v -0.7 -0.8 -0.4
v -0.6 -0.8 -0.4
v 0.7 -0.8 -0.4
v 0.8 -0.8 -0.4
v -0.6 -0.8 -0.5
v 0.7 -0.8 -0.5
v -0.3 -0.7 0.4
v -0.1 -0.7 0.4
v 0.2 -0.7 0.4
v 0.4 -0.7 0.4
v -0.3 -0.7 0.3
v -0.1 -0.7 0.3
v 0.2 -0.7 0.3
v 0.4 -0.7 0.3
v -0.4 -0.5 0.4
v -0.3 -0.5 0.4
v 0.4 -0.5 0.4
v 0.5 -0.5 0.4
v -0.7 -0.5 0.3
v -0.6 -0.5 0.3
v -0.4 -0.5 0.3
v -0.3 -0.5 0.3
v 0.4 -0.5 0.3
v 0.5 -0.5 0.3
v 0.7 -0.5 0.3
v 0.8 -0.5 0.3
v -0.7 -0.5 0.2
v -0.6 -0.5 0.2
v 0.7 -0.5 0.2
v 0.8 -0.5 0.2
v -0.7 -0.5 -0.4
v -0.6 -0.5 -0.4
v 0.7 -0.5 -0.4
v 0.8 -0.5 -0.4
v -0.7 -0.5 -0.5
v -0.6 -0.5 -0.5
v 0.7 -0.5 -0.5
v 0.8 -0.5 -0.5
v -0.3 -0.3 0.4
v -0.2 -0.3 0.4
v 0.3 -0.3 0.4
v 0.4 -0.3 0.4
v -0.3 -0.3 0.3
v -0.2 -0.3 0.3
v 0.3 -0.3 0.3
v 0.4 -0.3 0.3
v -0.2 -0.1 0.4
v 0 -0.1 0.4
v 0.1 -0.1 0.4
v 0.3 -0.1 0.4
v -0.2 -0.1 0.3
v 0 -0.1 0.3
v 0.1 -0.1 0.3
v 0.3 -0.1 0.3
v 0 0 0.4
v 0.1 0 0.4
v 0 0 0.3
v 0.1 0 0.3
v 0 -0.7 0.4
v 0.1 -0.7 0.4
v 0 -0.7 0.3
v 0.1 -0.7 0.3
v -0.2 -0.6 0.4
v 0 -0.6 0.4
v 0.1 -0.6 0.4
v 0.3 -0.6 0.4
v -0.2 -0.6 0.3
v 0 -0.6 0.3
v 0.1 -0.6 0.3
v 0.3 -0.6 0.3
v -0.3 -0.4 0.4
v -0.2 -0.4 0.4
v 0.3 -0.4 0.4
v 0.4 -0.4 0.4
v -0.3 -0.4 0.3
v -0.2 -0.4 0.3
v 0.3 -0.4 0.3
v 0.4 -0.4 0.3
v -0.4 -0.2 0.4
v -0.3 -0.2 0.4
v 0.4 -0.2 0.4
v 0.5 -0.2 0.4
v -0.7 -0.2 0.3
v -0.6 -0.2 0.3
v -0.4 -0.2 0.3
v -0.3 -0.2 0.3
v 0.4 -0.2 0.3
v 0.5 -0.2 0.3
v 0.7 -0.2 0.3
v 0.8 -0.2 0.3
v -0.7 -0.2 0.2
v -0.6 -0.2 0.2
v 0.7 -0.2 0.2
v 0.8 -0.2 0.2
v -0.7 -0.2 -0.4
v -0.6 -0.2 -0.4
v 0.7 -0.2 -0.4
v 0.8 -0.2 -0.4
v -0.7 -0.2 -0.5
v -0.6 -0.2 -0.5
v 0.7 -0.2 -0.5
v 0.8 -0.2 -0.5
v -0.3 0 0.4
v -0.1 0 0.4
v 0.2 0 0.4
v 0.4 0 0.4
v -0.6 0 0.3
v -0.5 0 0.3
v -0.3 0 0.3
v -0.1 0 0.3
v 0.2 0 0.3
v 0.4 0 0.3
v 0.6 0 0.3
v 0.7 0 0.3
v -0.7 0 0.2
v -0.6 0 0.2
v -0.5 0 0.2
v 0.6 0 0.2
v 0.7 0 0.2
v 0.8 0 0.2
v -0.7 0 0.1
v -0.6 0 0.1
v 0.7 0 0.1
v 0.8 0 0.1
v -0.7 0 -0.3
v -0.6 0 -0.3
v 0.7 0 -0.3
v 0.8 0 -0.3
v -0.7 0 -0.4
v -0.6 0 -0.4
v -0.5 0 -0.4
v 0.6 0 -0.4
v 0.7 0 -0.4
v 0.8 0 -0.4
v -0.6 0 -0.5
v -0.5 0 -0.5
v 0.6 0 -0.5
v 0.7 0 -0.5
v -0.1 0.1 0.4
v 0.2 0.1 0.4
v -0.5 0.1 0.3
v -0.1 0.1 0.3
v 0.2 0.1 0.3
v 0.6 0.1 0.3
v -0.6 0.1 0.2
v -0.5 0.1 0.2
v 0.6 0.1 0.2
v 0.7 0.1 0.2
v -0.7 0.1 0.1
v -0.6 0.1 0.1
v 0.7 0.1 0.1
v 0.8 0.1 0.1
v 0.5 0.1 -0.2
v 0.6 0.1 -0.2
v -0.7 0.1 -0.3
v -0.6 0.1 -0.3
v 0.5 0.1 -0.3
v 0.6 0.1 -0.3
v 0.7 0.1 -0.3
v 0.8 0.1 -0.3
v -0.6 0.1 -0.4
v -0.5 0.1 -0.4
v 0.6 0.1 -0.4
v 0.7 0.1 -0.4
v -0.5 0.1 -0.5
v 0.6 0.1 -0.5
v 0.5 0.9 -0.2
v 0.6 0.9 -0.2
v 0.5 0.9 -0.3
v 0.6 0.9 -0.3

# faces
f 4/3/1 2/3/1 1/3/1
f 5/3/1 2/3/1 4/3/1
f 7/3/1 4/3/1 3/3/1
f 7/3/1 6/3/1 5/3/1
f 7/3/1 5/3/1 4/3/1
f 8/3/1 6/3/1 7/3/1
f 9/3/1 6/3/1 8/3/1
f 10/3/1 6/3/1 9/3/1
f 11/3/1 9/3/1 8/3/1
f 12/3/1 9/3/1 11/3/1
f 13/3/1 9/3/1 12/3/1
f 14/3/1 9/3/1 13/3/1
f 15/3/1 13/3/1 12/3/1
f 16/3/1 13/3/1 15/3/1
f 21/3/1 18/3/1 17/3/1
f 22/3/1 18/3/1 21/3/1
f 23/3/1 20/3/1 19/3/1
f 24/3/1 20/3/1 23/3/1
f 29/3/1 26/3/1 25/3/1
f 30/3/1 26/3/1 29/3/1
f 33/3/1 28/3/1 27/3/1
f 34/3/1 28/3/1 33/3/1
f 35/3/1 31/3/1 30/3/1
f 36/3/1 31/3/1 35/3/1
f 37/3/1 33/3/1 32/3/1
f 38/3/1 33/3/1 37/3/1
f 43/3/1 40/3/1 39/3/1
f 44/3/1 40/3/1 43/3/1
f 45/3/1 42/3/1 41/3/1
f 46/3/1 42/3/1 45/3/1
f 49/4/1 48/4/1 47/4/1
f 50/4/1 48/4/1 49/4/1
f 53/4/1 52/4/1 51/4/1
f 54/4/1 52/4/1 53/4/1
f 57/4/1 56/4/1 55/4/1
f 58/4/1 56/4/1 57/4/1
f 61/4/1 60/4/1 59/4/1
f 62/4/1 60/4/1 61/4/1
f 65/4/1 64/4/1 63/4/1
f 66/4/1 64/4/1 65/4/1
f 69/4/1 68/4/1 67/4/1
f 70/4/1 68/4/1 69/4/1
f 73/4/1 72/4/1 71/4/1
f 74/4/1 72/4/1 73/4/1
f 77/4/1 76/4/1 75/4/1
f 78/4/1 76/4/1 77/4/1
f 81/4/1 80/4/1 79/4/1
f 82/4/1 80/4/1 81/4/1
f 85/4/1 84/4/1 83/4/1
f 86/4/1 84/4/1 85/4/1
f 89/4/1 88/4/1 87/4/1
f 90/4/1 88/4/1 89/4/1
f 91/2/1 90/2/1 89/2/1
f 92/2/1 90/2/1 91/2/1
f 93/4/2 94/4/2 95/4/2
f 95/4/2 94/4/2 96/4/2
f 97/4/2 98/4/2 99/4/2
f 99/4/2 98/4/2 100/4/2
f 101/4/2 102/4/2 103/4/2
f 103/4/2 102/4/2 104/4/2
f 105/4/2 106/4/2 107/4/2
f 107/4/2 106/4/2 108/4/2
f 109/4/2 110/4/2 111/4/2
f 111/4/2 110/4/2 112/4/2
f 113/4/2 114/4/2 115/4/2
f 115/4/2 114/4/2 116/4/2
f 117/4/2 118/4/2 119/4/2
f 119/4/2 118/4/2 120/4/2
f 121/4/2 122/4/2 123/4/2
f 123/4/2 122/4/2 124/4/2
f 125/4/2 126/4/2 127/4/2
f 127/4/2 126/4/2 128/4/2
f 129/4/2 130/4/2 131/4/2
f 131/4/2 130/4/2 132/4/2
f 133/3/2 134/3/2 137/3/2
f 137/3/2 134/3/2 138/3/2
f 135/3/2 136/3/2 141/3/2
f 141/3/2 136/3/2 142/3/2
f 139/4/2 140/4/2 143/4/2
f 143/4/2 140/4/2 144/4/2
f 143/2/2 144/2/2 145/2/2
f 145/2/2 144/2/2 146/2/2
f 147/3/2 148/3/2 151/3/2
f 151/3/2 148/3/2 152/3/2
f 149/3/2 150/3/2 153/3/2
f 153/3/2 150/3/2 154/3/2
f 155/3/2 156/3/2 159/3/2
f 159/3/2 156/3/2 160/3/2
f 157/3/2 158/3/2 163/3/2
f 163/3/2 158/3/2 164/3/2
f 160/3/2 161/3/2 165/3/2
f 165/3/2 161/3/2 166/3/2
f 162/3/2 163/3/2 167/3/2
f 167/3/2 163/3/2 168/3/2
f 169/3/2 170/3/2 172/3/2
f 172/3/2 170/3/2 173/3/2
f 171/3/2 172/3/2 175/3/2
f 173/3/2 174/3/2 175/3/2
f 172/3/2 173/3/2 175/3/2
f 175/3/2 174/3/2 176/3/2
f 176/3/2 174/3/2 177/3/2
f 177/3/2 174/3/2 178/3/2
f 176/3/2 177/3/2 179/3/2
f 179/3/2 177/3/2 180/3/2
f 180/3/2 177/3/2 181/3/2
f 181/3/2 177/3/2 182/3/2
f 180/3/2 181/3/2 183/3/2
f 183/3/2 181/3/2 184/3/2
f 188/4/3 186/4/3 185/4/3
f 189/4/3 186/4/3 188/4/3
f 190/4/3 186/4/3 189/4/3
f 191/4/3 186/4/3 190/4/3
f 193/4/3 188/4/3 187/4/3
f 193/4/3 189/4/3 188/4/3
f 194/4/3 189/4/3 193/4/3
f 195/4/3 192/4/3 191/4/3
f 195/4/3 191/4/3 190/4/3
f 196/4/3 192/4/3 195/4/3
f 198/4/3 193/4/3 187/4/3
f 199/4/3 192/4/3 196/4/3
f 201/4/3 198/4/3 197/4/3
f 201/4/3 193/4/3 198/4/3
f 202/4/3 193/4/3 201/4/3
f 203/4/3 200/4/3 199/4/3
f 203/4/3 199/4/3 196/4/3
f 204/4/3 200/4/3 203/4/3
f 205/4/3 201/4/3 197/4/3
f 208/4/3 200/4/3 204/4/3
f 209/4/3 206/4/3 205/4/3
f 209/4/3 205/4/3 197/4/3
f 210/4/3 206/4/3 209/4/3
f 211/4/3 208/4/3 207/4/3
f 211/4/3 200/4/3 208/4/3
f 212/4/3 200/4/3 211/4/3
f 213/4/3 206/4/3 210/4/3
f 216/4/3 211/4/3 207/4/3
f 217/4/3 214/4/3 213/4/3
f 217/4/3 213/4/3 210/4/3
f 218/4/3 214/4/3 217/4/3
f 219/4/3 214/4/3 218/4/3
f 220/4/3 216/4/3 215/4/3
f 221/4/3 216/4/3 220/4/3
f 222/4/3 211/4/3 216/4/3
f 222/4/3 216/4/3 221/4/3
f 223/4/3 219/4/3 218/4/3
f 223/4/3 221/4/3 220/4/3
f 223/4/3 220/4/3 219/4/3
f 224/4/3 221/4/3 223/4/3
f 228/3/3 226/3/3 225/3/3
f 229/3/3 226/3/3 228/3/3
f 231/3/3 228/3/3 227/3/3
f 231/3/3 230/3/3 229/3/3
f 231/3/3 229/3/3 228/3/3
f 233/3/3 231/3/3 227/3/3
f 233/3/3 232/3/3 231/3/3
f 234/3/3 232/3/3 233/3/3
f 235/3/3 233/3/3 227/3/3
f 236/3/3 233/3/3 235/3/3
f 239/3/3 232/3/3 234/3/3
f 240/3/3 232/3/3 239/3/3
f 242/1/3 238/1/3 237/1/3
f 243/1/3 238/1/3 242/1/3
f 245/3/3 235/3/3 227/3/3
f 246/3/3 235/3/3 245/3/3
f 247/3/3 232/3/3 240/3/3
f 248/3/3 232/3/3 247/3/3
f 250/1/3 244/1/3 243/1/3
f 250/1/3 242/1/3 241/1/3
f 250/1/3 243/1/3 242/1/3
f 251/1/3 244/1/3 250/1/3
f 253/1/3 250/1/3 249/1/3
f 253/1/3 252/1/3 251/1/3
f 253/1/3 251/1/3 250/1/3
f 254/1/3 252/1/3 253/1/3
f 255/1/3 252/1/3 254/1/3
f 256/1/3 252/1/3 255/1/3
f 261/1/3 255/1/3 254/1/3
f 262/1/3 255/1/3 261/1/3
f 263/1/3 255/1/3 262/1/3
f 264/1/3 255/1/3 263/1/3
f 265/3/3 258/3/3 257/3/3
f 267/1/3 263/1/3 262/1/3
f 268/1/3 263/1/3 267/1/3
f 270/3/3 260/3/3 259/3/3
f 271/3/3 266/3/3 265/3/3
f 272/3/3 270/3/3 269/3/3
f 273/3/3 260/3/3 270/3/3
f 273/3/3 272/3/3 271/3/3
f 273/3/3 270/3/3 272/3/3
f 274/3/3 260/3/3 273/3/3
f 275/3/3 271/3/3 265/3/3
f 275/3/3 265/3/3 257/3/3
f 275/3/3 273/3/3 271/3/3
f 276/3/3 273/3/3 275/3/3
f 277/3/3 273/3/3 276/3/3
f 278/3/3 273/3/3 277/3/3
f 279/3/3 277/3/3 276/3/3
f 280/3/3 277/3/3 279/3/3
f 285/3/3 282/3/3 281/3/3
f 286/3/3 282/3/3 285/3/3
f 287/3/3 284/3/3 283/3/3
f 288/3/3 284/3/3 287/3/3
f 290/3/3 289/3/3 288/3/3
f 291/3/3 289/3/3 290/3/3
f 297/3/3 293/3/3 292/3/3
f 298/3/3 293/3/3 297/3/3
f 299/3/3 295/3/3 294/3/3
f 300/3/3 295/3/3 299/3/3
f 301/3/3 297/3/3 296/3/3
f 302/3/3 297/3/3 301/3/3
f 305/3/3 304/3/3 303/3/3
f 306/3/3 304/3/3 305/3/3
f 309/3/3 308/3/3 307/3/3
f 310/3/3 308/3/3 309/3/3
f 314/4/3 312/4/3 311/4/3
f 315/2/3 313/2/3 312/2/3
f 315/4/3 312/4/3 314/4/3
f 316/2/3 313/2/3 315/2/3
f 317/3/4 318/3/4 319/3/4
f 319/3/4 318/3/4 320/3/4
f 321/4/4 322/4/4 324/4/4
f 322/2/4 323/2/4 325/2/4
f 324/4/4 322/4/4 325/4/4
f 325/2/4 323/2/4 326/2/4
f 327/3/4 328/3/4 329/3/4
f 329/3/4 328/3/4 330/3/4
f 331/3/4 332/3/4 335/3/4
f 335/3/4 332/3/4 336/3/4
f 333/3/4 334/3/4 337/3/4
f 337/3/4 334/3/4 338/3/4
f 338/3/4 339/3/4 340/3/4
f 340/3/4 339/3/4 341/3/4
f 342/3/4 343/3/4 347/3/4
f 347/3/4 343/3/4 348/3/4
f 344/3/4 345/3/4 349/3/4
f 349/3/4 345/3/4 350/3/4
f 346/3/4 347/3/4 351/3/4
f 351/3/4 347/3/4 352/3/4
f 353/3/4 354/3/4 356/3/4
f 356/3/4 354/3/4 357/3/4
f 355/3/4 356/3/4 359/3/4
f 357/3/4 358/3/4 359/3/4
f 356/3/4 357/3/4 359/3/4
f 355/3/4 359/3/4 361/3/4
f 359/3/4 360/3/4 361/3/4
f 361/3/4 360/3/4 362/3/4
f 355/3/4 361/3/4 363/3/4
f 363/3/4 361/3/4 364/3/4
f 364/3/4 361/3/4 365/3/4
f 365/3/4 361/3/4 366/3/4
f 364/3/4 365/3/4 367/3/4
f 367/3/4 365/3/4 368/3/4
f 372/4/5 370/4/5 369/4/5
f 373/4/5 370/4/5 372/4/5
f 376/3/5 372/3/5 371/3/5
f 376/3/5 374/3/5 373/3/5
f 376/3/5 373/3/5 372/3/5
f 377/3/5 374/3/5 376/3/5
f 379/3/5 376/3/5 375/3/5
f 379/3/5 378/3/5 377/3/5
f 379/3/5 377/3/5 376/3/5
f 380/3/5 378/3/5 379/3/5
f 381/3/5 378/3/5 380/3/5
f 382/3/5 378/3/5 381/3/5
f 383/3/5 381/3/5 380/3/5
f 384/3/5 381/3/5 383/3/5
f 389/4/5 386/4/5 385/4/5
f 390/4/5 386/4/5 389/4/5
f 391/4/5 388/4/5 387/4/5
f 392/4/5 388/4/5 391/4/5
f 399/4/5 394/4/5 393/4/5
f 400/4/5 394/4/5 399/4/5
f 401/4/5 396/4/5 395/4/5
f 402/4/5 396/4/5 401/4/5
f 405/3/5 398/3/5 397/3/5
f 406/3/5 398/3/5 405/3/5
f 407/3/5 404/3/5 403/3/5
f 408/3/5 404/3/5 407/3/5
f 413/3/5 410/3/5 409/3/5
f 414/3/5 410/3/5 413/3/5
f 415/3/5 412/3/5 411/3/5
f 416/3/5 412/3/5 415/3/5
f 421/4/5 418/4/5 417/4/5
f 422/4/5 418/4/5 421/4/5
f 423/4/5 420/4/5 419/4/5
f 424/4/5 420/4/5 423/4/5
f 429/4/5 426/4/5 425/4/5
f 430/4/5 426/4/5 429/4/5
f 431/4/5 428/4/5 427/4/5
f 432/4/5 428/4/5 431/4/5
f 435/4/5 434/4/5 433/4/5
f 436/4/5 434/4/5 435/4/5
f 437/4/6 438/4/6 439/4/6
f 439/4/6 438/4/6 440/4/6
f 441/4/6 442/4/6 445/4/6
f 445/4/6 442/4/6 446/4/6
f 443/4/6 444/4/6 447/4/6
f 447/4/6 444/4/6 448/4/6
f 449/4/6 450/4/6 453/4/6
f 453/4/6 450/4/6 454/4/6
f 451/4/6 452/4/6 455/4/6
f 455/4/6 452/4/6 456/4/6
f 457/4/6 458/4/6 463/4/6
f 463/4/6 458/4/6 464/4/6
f 459/4/6 460/4/6 465/4/6
f 465/4/6 460/4/6 466/4/6
f 461/3/6 462/3/6 469/3/6
f 469/3/6 462/3/6 470/3/6
f 467/3/6 468/3/6 471/3/6
f 471/3/6 468/3/6 472/3/6
f 473/3/6 474/3/6 477/3/6
f 477/3/6 474/3/6 478/3/6
f 475/3/6 476/3/6 479/3/6
f 479/3/6 476/3/6 480/3/6
f 481/4/6 482/4/6 487/4/6
f 487/4/6 482/4/6 488/4/6
f 483/4/6 484/4/6 489/4/6
f 489/4/6 484/4/6 490/4/6
f 485/3/6 486/3/6 494/3/6
f 494/3/6 486/3/6 495/3/6
f 491/3/6 492/3/6 496/3/6
f 496/3/6 492/3/6 497/3/6
f 493/3/6 494/3/6 499/3/6
f 499/3/6 494/3/6 500/3/6
f 497/3/6 498/3/6 501/3/6
f 501/3/6 498/3/6 502/3/6
f 503/3/6 504/3/6 507/3/6
f 507/3/6 504/3/6 508/3/6
f 505/3/6 506/3/6 511/3/6
f 511/3/6 506/3/6 512/3/6
f 508/3/6 509/3/6 513/3/6
f 513/3/6 509/3/6 514/3/6
f 510/3/6 511/3/6 515/3/6
f 515/3/6 511/3/6 516/3/6
f 517/4/6 518/4/6 520/4/6
f 520/4/6 518/4/6 521/4/6
f 519/3/6 520/3/6 524/3/6
f 521/3/6 522/3/6 524/3/6
f 520/3/6 521/3/6 524/3/6
f 524/3/6 522/3/6 525/3/6
f 523/3/6 524/3/6 528/3/6
f 525/3/6 526/3/6 528/3/6
f 524/3/6 525/3/6 528/3/6
f 528/3/6 526/3/6 529/3/6
f 527/3/6 528/3/6 531/3/6
f 529/3/6 530/3/6 531/3/6
f 528/3/6 529/3/6 531/3/6
f 531/3/6 530/3/6 532/3/6
f 527/3/6 531/3/6 533/3/6
f 533/3/6 531/3/6 534/3/6
f 534/3/6 531/3/6 535/3/6
f 532/3/6 530/3/6 536/3/6
f 536/3/6 530/3/6 537/3/6
f 537/3/6 530/3/6 538/3/6
f 534/3/6 535/3/6 539/3/6
f 536/3/6 537/3/6 539/3/6
f 535/3/6 536/3/6 539/3/6
f 539/3/6 537/3/6 540/3/6
f 540/3/6 537/3/6 541/3/6
f 541/3/6 537/3/6 542/3/6
f 540/3/6 541/3/6 543/3/6
f 543/3/6 541/3/6 544/3/6
f 545/2/6 546/2/6 547/2/6
f 547/2/6 546/2/6 548/2/6
