# MagicaVoxel @ Ephtracy

# group
o 

# material
mtllib Robot_vox-1-23.mtl
usemtl palette

# normals
vn -1 0 0
vn 1 0 0
vn 0 0 1
vn 0 0 -1
vn 0 -1 0
vn 0 1 0

# texcoords
vt 0.970703 0.5
vt 0.990234 0.5

# verts
v -0.2 -0.4 0.3
v -0.2 -0.4 -0.3
v -0.2 -0.2 0.3
v -0.2 -0.2 0.2
v -0.2 -0.1 0.2
v -0.2 -0.1 -0.3
v -0.2 0.1 0.1
v -0.2 0.1 -0.2
v -0.2 0.3 0
v -0.2 0.3 -0.2
v -0.2 0.4 0.1
v -0.2 0.4 0
v -0.1 -0.1 0.1
v -0.1 -0.1 -0.2
v -0.1 0.1 0.2
v -0.1 0.1 0.1
v -0.1 0.1 -0.2
v -0.1 0.1 -0.3
v -0.1 0.2 -0.2
v -0.1 0.2 -0.3
v -0.1 0.4 0.2
v -0.1 0.4 0.1
v 0.1 0.3 0.2
v 0.1 0.3 0.1
v 0.1 0.4 0.2
v 0.1 0.4 0.1
v -0.1 0.2 0.1
v -0.1 0.2 -0.2
v -0.1 0.3 0
v -0.1 0.3 -0.2
v -0.1 0.4 0.1
v -0.1 0.4 0
v 0 0.3 0.2
v 0 0.3 0.1
v 0 0.4 0.2
v 0 0.4 0.1
v 0.2 -0.4 0.3
v 0.2 -0.4 -0.3
v 0.2 -0.2 0.3
v 0.2 -0.2 0.2
v 0.2 -0.1 0.2
v 0.2 -0.1 0.1
v 0.2 -0.1 -0.2
v 0.2 -0.1 -0.3
v 0.2 0.1 0.2
v 0.2 0.1 0.1
v 0.2 0.1 -0.2
v 0.2 0.1 -0.3
v 0.2 0.2 0.1
v 0.2 0.2 -0.3
v 0.2 0.4 0.2
v 0.2 0.4 0.1
v -0.2 -0.4 0.3
v -0.2 -0.2 0.3
v 0.2 -0.4 0.3
v 0.2 -0.2 0.3
v -0.2 -0.2 0.2
v -0.2 -0.1 0.2
v -0.1 0.1 0.2
v -0.1 0.4 0.2
v 0 0.3 0.2
v 0 0.4 0.2
v 0.1 0.3 0.2
v 0.1 0.4 0.2
v 0.2 -0.2 0.2
v 0.2 -0.1 0.2
v 0.2 0.1 0.2
v 0.2 0.4 0.2
v -0.2 0.1 0.1
v -0.2 0.4 0.1
v -0.1 -0.1 0.1
v -0.1 0.1 0.1
v -0.1 0.4 0.1
v 0.2 -0.1 0.1
v 0.2 0.1 0.1
v -0.1 0.2 0.1
v -0.1 0.4 0.1
v 0 0.3 0.1
v 0 0.4 0.1
v 0.1 0.2 0.1
v 0.1 0.3 0.1
v 0.1 0.4 0.1
v 0.2 0.2 0.1
v 0.2 0.4 0.1
v -0.2 0.3 0
v -0.2 0.4 0
v -0.1 0.3 0
v -0.1 0.4 0
v -0.2 0.1 -0.2
v -0.2 0.3 -0.2
v -0.1 -0.1 -0.2
v -0.1 0.1 -0.2
v -0.1 0.2 -0.2
v -0.1 0.3 -0.2
v 0.2 -0.1 -0.2
v 0.2 0.1 -0.2
v -0.2 -0.4 -0.3
v -0.2 -0.1 -0.3
v -0.1 0.1 -0.3
v -0.1 0.2 -0.3
v 0.2 -0.4 -0.3
v 0.2 -0.1 -0.3
v 0.2 0.1 -0.3
v 0.2 0.2 -0.3
v -0.2 -0.4 0.3
v 0.2 -0.4 0.3
v -0.2 -0.4 -0.3
v 0.2 -0.4 -0.3
v -0.1 0.1 0.2
v 0.2 0.1 0.2
v -0.2 0.1 0.1
v -0.1 0.1 0.1
v 0.2 0.1 0.1
v -0.2 0.1 -0.2
v -0.1 0.1 -0.2
v 0.2 0.1 -0.2
v -0.1 0.1 -0.3
v 0.2 0.1 -0.3
v -0.2 -0.2 0.3
v 0.2 -0.2 0.3
v -0.2 -0.2 0.2
v 0.2 -0.2 0.2
v -0.2 -0.1 0.2
v 0.2 -0.1 0.2
v -0.1 -0.1 0.1
v 0.2 -0.1 0.1
v -0.1 -0.1 -0.2
v 0.2 -0.1 -0.2
v -0.2 -0.1 -0.3
v 0.2 -0.1 -0.3
v -0.1 0.2 0.1
v 0.1 0.2 0.1
v 0.2 0.2 0.1
v -0.1 0.2 -0.2
v 0.1 0.2 -0.2
v -0.1 0.2 -0.3
v 0.2 0.2 -0.3
v 0 0.3 0.2
v 0.1 0.3 0.2
v 0 0.3 0.1
v 0.1 0.3 0.1
v -0.2 0.3 0
v -0.1 0.3 0
v -0.2 0.3 -0.2
v -0.1 0.3 -0.2
v -0.1 0.4 0.2
v 0 0.4 0.2
v 0.1 0.4 0.2
v 0.2 0.4 0.2
v -0.2 0.4 0.1
v -0.1 0.4 0.1
v 0 0.4 0.1
v 0.1 0.4 0.1
v 0.2 0.4 0.1
v -0.2 0.4 0
v -0.1 0.4 0

# faces
f 3/2/1 2/2/1 1/2/1
f 4/2/1 2/2/1 3/2/1
f 5/2/1 2/2/1 4/2/1
f 6/2/1 2/2/1 5/2/1
f 9/2/1 8/2/1 7/2/1
f 10/2/1 8/2/1 9/2/1
f 11/2/1 9/2/1 7/2/1
f 12/2/1 9/2/1 11/2/1
f 16/1/1 14/1/1 13/1/1
f 17/1/1 14/1/1 16/1/1
f 19/2/1 18/2/1 17/2/1
f 20/2/1 18/2/1 19/2/1
f 21/2/1 16/2/1 15/2/1
f 22/2/1 16/2/1 21/2/1
f 25/2/1 24/2/1 23/2/1
f 26/2/1 24/2/1 25/2/1
f 27/2/2 28/2/2 29/2/2
f 29/2/2 28/2/2 30/2/2
f 27/2/2 29/2/2 31/2/2
f 31/2/2 29/2/2 32/2/2
f 33/2/2 34/2/2 35/2/2
f 35/2/2 34/2/2 36/2/2
f 37/2/2 38/2/2 39/2/2
f 39/2/2 38/2/2 40/2/2
f 40/2/2 38/2/2 41/2/2
f 41/2/2 38/2/2 42/2/2
f 42/2/2 38/2/2 43/2/2
f 43/2/2 38/2/2 44/2/2
f 42/1/2 43/1/2 46/1/2
f 46/1/2 43/1/2 47/1/2
f 45/2/2 46/2/2 49/2/2
f 47/2/2 48/2/2 49/2/2
f 46/2/2 47/2/2 49/2/2
f 49/2/2 48/2/2 50/2/2
f 45/2/2 49/2/2 51/2/2
f 51/2/2 49/2/2 52/2/2
f 55/2/3 54/2/3 53/2/3
f 56/2/3 54/2/3 55/2/3
f 61/2/3 60/2/3 59/2/3
f 62/2/3 60/2/3 61/2/3
f 63/2/3 61/2/3 59/2/3
f 65/2/3 58/2/3 57/2/3
f 66/2/3 58/2/3 65/2/3
f 67/2/3 64/2/3 63/2/3
f 67/2/3 63/2/3 59/2/3
f 68/2/3 64/2/3 67/2/3
f 72/2/3 70/2/3 69/2/3
f 73/2/3 70/2/3 72/2/3
f 74/1/3 72/1/3 71/1/3
f 75/1/3 72/1/3 74/1/3
f 76/2/4 77/2/4 78/2/4
f 78/2/4 77/2/4 79/2/4
f 76/2/4 78/2/4 80/2/4
f 80/2/4 78/2/4 81/2/4
f 80/2/4 81/2/4 83/2/4
f 81/2/4 82/2/4 83/2/4
f 83/2/4 82/2/4 84/2/4
f 85/2/4 86/2/4 87/2/4
f 87/2/4 86/2/4 88/2/4
f 89/2/4 90/2/4 92/2/4
f 92/2/4 90/2/4 93/2/4
f 93/2/4 90/2/4 94/2/4
f 91/1/4 92/1/4 95/1/4
f 95/1/4 92/1/4 96/1/4
f 97/2/4 98/2/4 101/2/4
f 101/2/4 98/2/4 102/2/4
f 99/2/4 100/2/4 103/2/4
f 103/2/4 100/2/4 104/2/4
f 107/2/5 106/2/5 105/2/5
f 108/2/5 106/2/5 107/2/5
f 112/2/5 110/2/5 109/2/5
f 113/2/5 110/2/5 112/2/5
f 114/2/5 112/2/5 111/2/5
f 115/2/5 112/2/5 114/2/5
f 117/2/5 116/2/5 115/2/5
f 118/2/5 116/2/5 117/2/5
f 119/2/6 120/2/6 121/2/6
f 121/2/6 120/2/6 122/2/6
f 123/2/6 124/2/6 125/2/6
f 125/2/6 124/2/6 126/2/6
f 123/2/6 125/2/6 127/2/6
f 123/2/6 127/2/6 129/2/6
f 127/2/6 128/2/6 129/2/6
f 129/2/6 128/2/6 130/2/6
f 131/1/6 132/1/6 134/1/6
f 132/2/6 133/2/6 135/2/6
f 134/1/6 132/1/6 135/1/6
f 134/2/6 135/2/6 136/2/6
f 135/2/6 133/2/6 137/2/6
f 136/2/6 135/2/6 137/2/6
f 138/2/6 139/2/6 140/2/6
f 140/2/6 139/2/6 141/2/6
f 142/2/6 143/2/6 144/2/6
f 144/2/6 143/2/6 145/2/6
f 146/2/6 147/2/6 151/2/6
f 151/2/6 147/2/6 152/2/6
f 148/2/6 149/2/6 153/2/6
f 153/2/6 149/2/6 154/2/6
f 150/2/6 151/2/6 155/2/6
f 155/2/6 151/2/6 156/2/6
