# MagicaVoxel @ Ephtracy

# group
o 

# material
mtllib Robot_vox-1-1.mtl
usemtl palette

# normals
vn -1 0 0
vn 1 0 0
vn 0 0 1
vn 0 0 -1
vn 0 -1 0
vn 0 1 0

# texcoords
vt 0.0449219 0.5
vt 0.0488281 0.5
vt 0.0761719 0.5
vt 0.845703 0.5
vt 0.849609 0.5

# verts
v -0.9 -0.1 0.3
v -0.9 -0.1 -0.4
v -0.9 0.1 0.3
v -0.9 0.1 -0.4
v -0.8 -0.1 0.4
v -0.8 -0.1 0.3
v -0.8 -0.1 -0.4
v -0.8 -0.1 -0.5
v -0.8 0.1 0.4
v -0.8 0.1 0.3
v -0.8 0.1 -0.4
v -0.8 0.1 -0.5
v -0.7 -0.1 0.5
v -0.7 -0.1 0.4
v -0.7 -0.1 -0.5
v -0.7 -0.1 -0.6
v -0.7 0.1 0.5
v -0.7 0.1 0.4
v -0.7 0.1 -0.5
v -0.7 0.1 -0.6
v -0.4 0 0.3
v -0.4 0 0.1
v -0.4 0 -0.2
v -0.4 0 -0.4
v -0.4 0.1 0.3
v -0.4 0.1 0.1
v -0.4 0.1 -0.2
v -0.4 0.1 -0.4
v -0.3 0 0.4
v -0.3 0 0.3
v -0.3 0 0.1
v -0.3 0 0
v -0.3 0 -0.1
v -0.3 0 -0.2
v -0.3 0 -0.4
v -0.3 0 -0.5
v -0.3 0.1 0.4
v -0.3 0.1 0.3
v -0.3 0.1 0.1
v -0.3 0.1 0
v -0.3 0.1 -0.1
v -0.3 0.1 -0.2
v -0.3 0.1 -0.4
v -0.3 0.1 -0.5
v -0.3 0.2 0.3
v -0.3 0.2 0.1
v -0.3 0.2 -0.2
v -0.3 0.2 -0.4
v -0.2 0 0
v -0.2 0 -0.1
v -0.2 0.1 0.1
v -0.2 0.1 0
v -0.2 0.1 -0.1
v -0.2 0.1 -0.2
v -0.2 0.2 0.1
v -0.2 0.2 0
v -0.2 0.2 -0.1
v -0.2 0.2 -0.2
v -0.1 0.1 0
v -0.1 0.1 -0.1
v -0.1 0.2 0
v -0.1 0.2 -0.1
v 0.1 0 0.3
v 0.1 0 0.2
v 0.1 0 -0.3
v 0.1 0 -0.4
v 0.1 0.1 0.3
v 0.1 0.1 0.2
v 0.1 0.1 0.1
v 0.1 0.1 -0.2
v 0.1 0.1 -0.3
v 0.1 0.1 -0.4
v 0.1 0.2 0.2
v 0.1 0.2 0.1
v 0.1 0.2 -0.2
v 0.1 0.2 -0.3
v 0.2 0 0.4
v 0.2 0 0.3
v 0.2 0 -0.4
v 0.2 0 -0.5
v 0.2 0.1 0.4
v 0.2 0.1 0.3
v 0.2 0.1 0.2
v 0.2 0.1 -0.3
v 0.2 0.1 -0.4
v 0.2 0.1 -0.5
v 0.2 0.2 0.3
v 0.2 0.2 0.2
v 0.2 0.2 -0.3
v 0.2 0.2 -0.4
v 0.7 0 0.4
v 0.7 0 0.3
v 0.7 0 -0.4
v 0.7 0 -0.5
v 0.7 0.1 0.4
v 0.7 0.1 0.3
v 0.7 0.1 -0.4
v 0.7 0.1 -0.5
v 0.8 0 0.3
v 0.8 0 -0.4
v 0.8 0.1 0.3
v 0.8 0.1 -0.4
v -0.8 0 0.3
v -0.8 0 -0.4
v -0.8 0.1 0.3
v -0.8 0.1 -0.4
v -0.7 0 0.4
v -0.7 0 0.3
v -0.7 0 -0.4
v -0.7 0 -0.5
v -0.7 0.1 0.4
v -0.7 0.1 0.3
v -0.7 0.1 -0.4
v -0.7 0.1 -0.5
v -0.1 0 0.4
v -0.1 0 0.3
v -0.1 0 -0.4
v -0.1 0 -0.5
v -0.1 0.1 0.4
v -0.1 0.1 0.3
v -0.1 0.1 0.2
v -0.1 0.1 -0.3
v -0.1 0.1 -0.4
v -0.1 0.1 -0.5
v -0.1 0.2 0.3
v -0.1 0.2 0.2
v -0.1 0.2 -0.3
v -0.1 0.2 -0.4
v 0 0 0.3
v 0 0 0.2
v 0 0 -0.3
v 0 0 -0.4
v 0 0.1 0.3
v 0 0.1 0.2
v 0 0.1 0.1
v 0 0.1 -0.2
v 0 0.1 -0.3
v 0 0.1 -0.4
v 0 0.2 0.2
v 0 0.2 0.1
v 0 0.2 -0.2
v 0 0.2 -0.3
v 0.2 0.1 0
v 0.2 0.1 -0.1
v 0.2 0.2 0
v 0.2 0.2 -0.1
v 0.3 0 0
v 0.3 0 -0.1
v 0.3 0.1 0.1
v 0.3 0.1 0
v 0.3 0.1 -0.1
v 0.3 0.1 -0.2
v 0.3 0.2 0.1
v 0.3 0.2 0
v 0.3 0.2 -0.1
v 0.3 0.2 -0.2
v 0.4 0 0.4
v 0.4 0 0.3
v 0.4 0 0.1
v 0.4 0 0
v 0.4 0 -0.1
v 0.4 0 -0.2
v 0.4 0 -0.4
v 0.4 0 -0.5
v 0.4 0.1 0.4
v 0.4 0.1 0.3
v 0.4 0.1 0.1
v 0.4 0.1 0
v 0.4 0.1 -0.1
v 0.4 0.1 -0.2
v 0.4 0.1 -0.4
v 0.4 0.1 -0.5
v 0.4 0.2 0.3
v 0.4 0.2 0.1
v 0.4 0.2 -0.2
v 0.4 0.2 -0.4
v 0.5 0 0.3
v 0.5 0 0.1
v 0.5 0 -0.2
v 0.5 0 -0.4
v 0.5 0.1 0.3
v 0.5 0.1 0.1
v 0.5 0.1 -0.2
v 0.5 0.1 -0.4
v 0.7 -0.1 0.5
v 0.7 -0.1 0.4
v 0.7 -0.1 -0.5
v 0.7 -0.1 -0.6
v 0.7 0.1 0.5
v 0.7 0.1 0.4
v 0.7 0.1 -0.5
v 0.7 0.1 -0.6
v 0.8 -0.1 0.4
v 0.8 -0.1 0.3
v 0.8 -0.1 -0.4
v 0.8 -0.1 -0.5
v 0.8 0.1 0.4
v 0.8 0.1 0.3
v 0.8 0.1 -0.4
v 0.8 0.1 -0.5
v 0.9 -0.1 0.3
v 0.9 -0.1 -0.4
v 0.9 0.1 0.3
v 0.9 0.1 -0.4
v -0.7 -0.1 0.5
v -0.7 0.1 0.5
v 0.7 -0.1 0.5
v 0.7 0.1 0.5
v -0.8 -0.1 0.4
v -0.8 0.1 0.4
v -0.7 -0.1 0.4
v -0.7 0.1 0.4
v 0.7 -0.1 0.4
v 0.7 0.1 0.4
v 0.8 -0.1 0.4
v 0.8 0.1 0.4
v -0.9 -0.1 0.3
v -0.9 0.1 0.3
v -0.8 -0.1 0.3
v -0.8 0.1 0.3
v -0.4 0 0.3
v -0.4 0.1 0.3
v -0.3 0 0.3
v -0.3 0.1 0.3
v -0.3 0.2 0.3
v -0.1 0 0.3
v -0.1 0.1 0.3
v -0.1 0.2 0.3
v 0 0 0.3
v 0 0.1 0.3
v 0.1 0 0.3
v 0.1 0.1 0.3
v 0.2 0 0.3
v 0.2 0.1 0.3
v 0.2 0.2 0.3
v 0.4 0 0.3
v 0.4 0.1 0.3
v 0.4 0.2 0.3
v 0.5 0 0.3
v 0.5 0.1 0.3
v 0.8 -0.1 0.3
v 0.8 0.1 0.3
v 0.9 -0.1 0.3
v 0.9 0.1 0.3
v -0.1 0.1 0.2
v -0.1 0.2 0.2
v 0 0 0.2
v 0 0.1 0.2
v 0 0.2 0.2
v 0.1 0 0.2
v 0.1 0.1 0.2
v 0.1 0.2 0.2
v 0.2 0.1 0.2
v 0.2 0.2 0.2
v 0 0.1 0.1
v 0 0.2 0.1
v 0.1 0.1 0.1
v 0.1 0.2 0.1
v -0.3 0 -0.1
v -0.3 0.1 -0.1
v -0.2 0 -0.1
v -0.2 0.1 -0.1
v -0.2 0.2 -0.1
v -0.1 0.1 -0.1
v -0.1 0.2 -0.1
v 0.2 0.1 -0.1
v 0.2 0.2 -0.1
v 0.3 0 -0.1
v 0.3 0.1 -0.1
v 0.3 0.2 -0.1
v 0.4 0 -0.1
v 0.4 0.1 -0.1
v -0.4 0 -0.2
v -0.4 0.1 -0.2
v -0.3 0 -0.2
v -0.3 0.1 -0.2
v -0.3 0.2 -0.2
v -0.2 0.1 -0.2
v -0.2 0.2 -0.2
v 0.3 0.1 -0.2
v 0.3 0.2 -0.2
v 0.4 0 -0.2
v 0.4 0.1 -0.2
v 0.4 0.2 -0.2
v 0.5 0 -0.2
v 0.5 0.1 -0.2
v -0.8 0 -0.4
v -0.8 0.1 -0.4
v -0.7 0 -0.4
v -0.7 0.1 -0.4
v 0.7 0 -0.4
v 0.7 0.1 -0.4
v 0.8 0 -0.4
v 0.8 0.1 -0.4
v -0.7 0 -0.5
v -0.7 0.1 -0.5
v -0.3 0 -0.5
v -0.3 0.1 -0.5
v -0.1 0 -0.5
v -0.1 0.1 -0.5
v 0.2 0 -0.5
v 0.2 0.1 -0.5
v 0.4 0 -0.5
v 0.4 0.1 -0.5
v 0.7 0 -0.5
v 0.7 0.1 -0.5
v -0.7 0 0.4
v -0.7 0.1 0.4
v -0.3 0 0.4
v -0.3 0.1 0.4
v -0.1 0 0.4
v -0.1 0.1 0.4
v 0.2 0 0.4
v 0.2 0.1 0.4
v 0.4 0 0.4
v 0.4 0.1 0.4
v 0.7 0 0.4
v 0.7 0.1 0.4
v -0.8 0 0.3
v -0.8 0.1 0.3
v -0.7 0 0.3
v -0.7 0.1 0.3
v 0.7 0 0.3
v 0.7 0.1 0.3
v 0.8 0 0.3
v 0.8 0.1 0.3
v -0.4 0 0.1
v -0.4 0.1 0.1
v -0.3 0 0.1
v -0.3 0.1 0.1
v -0.3 0.2 0.1
v -0.2 0.1 0.1
v -0.2 0.2 0.1
v 0.3 0.1 0.1
v 0.3 0.2 0.1
v 0.4 0 0.1
v 0.4 0.1 0.1
v 0.4 0.2 0.1
v 0.5 0 0.1
v 0.5 0.1 0.1
v -0.3 0 0
v -0.3 0.1 0
v -0.2 0 0
v -0.2 0.1 0
v -0.2 0.2 0
v -0.1 0.1 0
v -0.1 0.2 0
v 0.2 0.1 0
v 0.2 0.2 0
v 0.3 0 0
v 0.3 0.1 0
v 0.3 0.2 0
v 0.4 0 0
v 0.4 0.1 0
v 0 0.1 -0.2
v 0 0.2 -0.2
v 0.1 0.1 -0.2
v 0.1 0.2 -0.2
v -0.1 0.1 -0.3
v -0.1 0.2 -0.3
v 0 0 -0.3
v 0 0.1 -0.3
v 0 0.2 -0.3
v 0.1 0 -0.3
v 0.1 0.1 -0.3
v 0.1 0.2 -0.3
v 0.2 0.1 -0.3
v 0.2 0.2 -0.3
v -0.9 -0.1 -0.4
v -0.9 0.1 -0.4
v -0.8 -0.1 -0.4
v -0.8 0.1 -0.4
v -0.4 0 -0.4
v -0.4 0.1 -0.4
v -0.3 0 -0.4
v -0.3 0.1 -0.4
v -0.3 0.2 -0.4
v -0.1 0 -0.4
v -0.1 0.1 -0.4
v -0.1 0.2 -0.4
v 0 0 -0.4
v 0 0.1 -0.4
v 0.1 0 -0.4
v 0.1 0.1 -0.4
v 0.2 0 -0.4
v 0.2 0.1 -0.4
v 0.2 0.2 -0.4
v 0.4 0 -0.4
v 0.4 0.1 -0.4
v 0.4 0.2 -0.4
v 0.5 0 -0.4
v 0.5 0.1 -0.4
v 0.8 -0.1 -0.4
v 0.8 0.1 -0.4
v 0.9 -0.1 -0.4
v 0.9 0.1 -0.4
v -0.8 -0.1 -0.5
v -0.8 0.1 -0.5
v -0.7 -0.1 -0.5
v -0.7 0.1 -0.5
v 0.7 -0.1 -0.5
v 0.7 0.1 -0.5
v 0.8 -0.1 -0.5
v 0.8 0.1 -0.5
v -0.7 -0.1 -0.6
v -0.7 0.1 -0.6
v 0.7 -0.1 -0.6
v 0.7 0.1 -0.6
v -0.7 -0.1 0.5
v 0.7 -0.1 0.5
v -0.8 -0.1 0.4
v -0.7 -0.1 0.4
v 0.7 -0.1 0.4
v 0.8 -0.1 0.4
v -0.9 -0.1 0.3
v -0.8 -0.1 0.3
v -0.7 -0.1 0.3
v -0.6 -0.1 0.3
v 0.7 -0.1 0.3
v 0.8 -0.1 0.3
v 0.9 -0.1 0.3
v -0.7 -0.1 0.2
v -0.6 -0.1 0.2
v -0.9 -0.1 -0.4
v -0.8 -0.1 -0.4
v -0.7 -0.1 -0.4
v 0.7 -0.1 -0.4
v 0.8 -0.1 -0.4
v 0.9 -0.1 -0.4
v -0.8 -0.1 -0.5
v -0.7 -0.1 -0.5
v 0.7 -0.1 -0.5
v 0.8 -0.1 -0.5
v -0.7 -0.1 -0.6
v 0.7 -0.1 -0.6
v -0.7 0 0.4
v -0.3 0 0.4
v -0.1 0 0.4
v 0.2 0 0.4
v 0.4 0 0.4
v 0.7 0 0.4
v -0.8 0 0.3
v -0.7 0 0.3
v -0.6 0 0.3
v -0.4 0 0.3
v -0.3 0 0.3
v -0.1 0 0.3
v 0 0 0.3
v 0.1 0 0.3
v 0.2 0 0.3
v 0.4 0 0.3
v 0.5 0 0.3
v 0.7 0 0.3
v 0.8 0 0.3
v -0.7 0 0.2
v -0.6 0 0.2
v 0 0 0.2
v 0.1 0 0.2
v -0.4 0 0.1
v -0.3 0 0.1
v 0.4 0 0.1
v 0.5 0 0.1
v -0.3 0 0
v -0.2 0 0
v 0.3 0 0
v 0.4 0 0
v -0.3 0 -0.1
v -0.2 0 -0.1
v 0.3 0 -0.1
v 0.4 0 -0.1
v -0.4 0 -0.2
v -0.3 0 -0.2
v 0.4 0 -0.2
v 0.5 0 -0.2
v 0 0 -0.3
v 0.1 0 -0.3
v -0.8 0 -0.4
v -0.7 0 -0.4
v -0.4 0 -0.4
v -0.3 0 -0.4
v -0.1 0 -0.4
v 0 0 -0.4
v 0.1 0 -0.4
v 0.2 0 -0.4
v 0.4 0 -0.4
v 0.5 0 -0.4
v 0.7 0 -0.4
v 0.8 0 -0.4
v -0.7 0 -0.5
v -0.3 0 -0.5
v -0.1 0 -0.5
v 0.2 0 -0.5
v 0.4 0 -0.5
v 0.7 0 -0.5
v -0.7 0.1 0.5
v 0.7 0.1 0.5
v -0.8 0.1 0.4
v -0.7 0.1 0.4
v -0.3 0.1 0.4
v -0.1 0.1 0.4
v 0.2 0.1 0.4
v 0.4 0.1 0.4
v 0.7 0.1 0.4
v 0.8 0.1 0.4
v -0.9 0.1 0.3
v -0.8 0.1 0.3
v -0.7 0.1 0.3
v -0.4 0.1 0.3
v -0.3 0.1 0.3
v -0.1 0.1 0.3
v 0 0.1 0.3
v 0.1 0.1 0.3
v 0.2 0.1 0.3
v 0.4 0.1 0.3
v 0.5 0.1 0.3
v 0.7 0.1 0.3
v 0.8 0.1 0.3
v 0.9 0.1 0.3
v -0.1 0.1 0.2
v 0 0.1 0.2
v 0.1 0.1 0.2
v 0.2 0.1 0.2
v -0.4 0.1 0.1
v -0.3 0.1 0.1
v -0.2 0.1 0.1
v 0 0.1 0.1
v 0.1 0.1 0.1
v 0.3 0.1 0.1
v 0.4 0.1 0.1
v 0.5 0.1 0.1
v -0.3 0.1 0
v -0.2 0.1 0
v -0.1 0.1 0
v 0.2 0.1 0
v 0.3 0.1 0
v 0.4 0.1 0
v -0.3 0.1 -0.1
v -0.2 0.1 -0.1
v -0.1 0.1 -0.1
v 0.2 0.1 -0.1
v 0.3 0.1 -0.1
v 0.4 0.1 -0.1
v -0.4 0.1 -0.2
v -0.3 0.1 -0.2
v -0.2 0.1 -0.2
v 0 0.1 -0.2
v 0.1 0.1 -0.2
v 0.3 0.1 -0.2
v 0.4 0.1 -0.2
v 0.5 0.1 -0.2
v -0.1 0.1 -0.3
v 0 0.1 -0.3
v 0.1 0.1 -0.3
v 0.2 0.1 -0.3
v -0.9 0.1 -0.4
v -0.8 0.1 -0.4
v -0.7 0.1 -0.4
v -0.4 0.1 -0.4
v -0.3 0.1 -0.4
v -0.1 0.1 -0.4
v 0 0.1 -0.4
v 0.1 0.1 -0.4
v 0.2 0.1 -0.4
v 0.4 0.1 -0.4
v 0.5 0.1 -0.4
v 0.7 0.1 -0.4
v 0.8 0.1 -0.4
v 0.9 0.1 -0.4
v -0.8 0.1 -0.5
v -0.7 0.1 -0.5
v -0.3 0.1 -0.5
v -0.1 0.1 -0.5
v 0.2 0.1 -0.5
v 0.4 0.1 -0.5
v 0.7 0.1 -0.5
v 0.8 0.1 -0.5
v -0.7 0.1 -0.6
v 0.7 0.1 -0.6
v -0.3 0.2 0.3
v -0.1 0.2 0.3
v 0.2 0.2 0.3
v 0.4 0.2 0.3
v -0.1 0.2 0.2
v 0 0.2 0.2
v 0.1 0.2 0.2
v 0.2 0.2 0.2
v -0.3 0.2 0.1
v -0.2 0.2 0.1
v 0 0.2 0.1
v 0.1 0.2 0.1
v 0.3 0.2 0.1
v 0.4 0.2 0.1
v -0.2 0.2 0
v -0.1 0.2 0
v 0.2 0.2 0
v 0.3 0.2 0
v -0.2 0.2 -0.1
v -0.1 0.2 -0.1
v 0.2 0.2 -0.1
v 0.3 0.2 -0.1
v -0.3 0.2 -0.2
v -0.2 0.2 -0.2
v 0 0.2 -0.2
v 0.1 0.2 -0.2
v 0.3 0.2 -0.2
v 0.4 0.2 -0.2
v -0.1 0.2 -0.3
v 0 0.2 -0.3
v 0.1 0.2 -0.3
v 0.2 0.2 -0.3
v -0.3 0.2 -0.4
v -0.1 0.2 -0.4
v 0.2 0.2 -0.4
v 0.4 0.2 -0.4

# faces
f 3/3/1 2/3/1 1/3/1
f 4/3/1 2/3/1 3/3/1
f 9/3/1 6/3/1 5/3/1
f 10/3/1 6/3/1 9/3/1
f 11/3/1 8/3/1 7/3/1
f 12/3/1 8/3/1 11/3/1
f 17/3/1 14/3/1 13/3/1
f 18/3/1 14/3/1 17/3/1
f 19/3/1 16/3/1 15/3/1
f 20/3/1 16/3/1 19/3/1
f 25/5/1 22/5/1 21/5/1
f 26/5/1 22/5/1 25/5/1
f 27/5/1 24/5/1 23/5/1
f 28/5/1 24/5/1 27/5/1
f 37/5/1 30/5/1 29/5/1
f 38/5/1 30/5/1 37/5/1
f 39/5/1 32/5/1 31/5/1
f 40/5/1 32/5/1 39/5/1
f 41/5/1 34/5/1 33/5/1
f 42/5/1 34/5/1 41/5/1
f 43/5/1 36/5/1 35/5/1
f 44/5/1 36/5/1 43/5/1
f 45/4/1 39/4/1 38/4/1
f 46/4/1 39/4/1 45/4/1
f 47/4/1 43/4/1 42/4/1
f 48/4/1 43/4/1 47/4/1
f 52/5/1 50/5/1 49/5/1
f 53/5/1 50/5/1 52/5/1
f 55/4/1 52/4/1 51/4/1
f 56/4/1 52/4/1 55/4/1
f 57/4/1 54/4/1 53/4/1
f 58/4/1 54/4/1 57/4/1
f 61/4/1 60/4/1 59/4/1
f 62/4/1 60/4/1 61/4/1
f 67/5/1 64/5/1 63/5/1
f 68/5/1 64/5/1 67/5/1
f 71/5/1 66/5/1 65/5/1
f 72/5/1 66/5/1 71/5/1
f 73/4/1 69/4/1 68/4/1
f 74/4/1 69/4/1 73/4/1
f 75/4/1 71/4/1 70/4/1
f 76/4/1 71/4/1 75/4/1
f 81/5/1 78/5/1 77/5/1
f 82/5/1 78/5/1 81/5/1
f 85/5/1 80/5/1 79/5/1
f 86/5/1 80/5/1 85/5/1
f 87/4/1 83/4/1 82/4/1
f 88/4/1 83/4/1 87/4/1
f 89/4/1 85/4/1 84/4/1
f 90/4/1 85/4/1 89/4/1
f 95/3/1 92/3/1 91/3/1
f 96/3/1 92/3/1 95/3/1
f 97/3/1 94/3/1 93/3/1
f 98/3/1 94/3/1 97/3/1
f 101/3/1 100/3/1 99/3/1
f 102/3/1 100/3/1 101/3/1
f 103/3/2 104/3/2 105/3/2
f 105/3/2 104/3/2 106/3/2
f 107/3/2 108/3/2 111/3/2
f 111/3/2 108/3/2 112/3/2
f 109/3/2 110/3/2 113/3/2
f 113/3/2 110/3/2 114/3/2
f 115/5/2 116/5/2 119/5/2
f 119/5/2 116/5/2 120/5/2
f 117/5/2 118/5/2 123/5/2
f 123/5/2 118/5/2 124/5/2
f 120/4/2 121/4/2 125/4/2
f 125/4/2 121/4/2 126/4/2
f 122/4/2 123/4/2 127/4/2
f 127/4/2 123/4/2 128/4/2
f 129/5/2 130/5/2 133/5/2
f 133/5/2 130/5/2 134/5/2
f 131/5/2 132/5/2 137/5/2
f 137/5/2 132/5/2 138/5/2
f 134/4/2 135/4/2 139/4/2
f 139/4/2 135/4/2 140/4/2
f 136/4/2 137/4/2 141/4/2
f 141/4/2 137/4/2 142/4/2
f 143/4/2 144/4/2 145/4/2
f 145/4/2 144/4/2 146/4/2
f 147/5/2 148/5/2 150/5/2
f 150/5/2 148/5/2 151/5/2
f 149/4/2 150/4/2 153/4/2
f 153/4/2 150/4/2 154/4/2
f 151/4/2 152/4/2 155/4/2
f 155/4/2 152/4/2 156/4/2
f 157/5/2 158/5/2 165/5/2
f 165/5/2 158/5/2 166/5/2
f 159/5/2 160/5/2 167/5/2
f 167/5/2 160/5/2 168/5/2
f 161/5/2 162/5/2 169/5/2
f 169/5/2 162/5/2 170/5/2
f 163/5/2 164/5/2 171/5/2
f 171/5/2 164/5/2 172/5/2
f 166/4/2 167/4/2 173/4/2
f 173/4/2 167/4/2 174/4/2
f 170/4/2 171/4/2 175/4/2
f 175/4/2 171/4/2 176/4/2
f 177/5/2 178/5/2 181/5/2
f 181/5/2 178/5/2 182/5/2
f 179/5/2 180/5/2 183/5/2
f 183/5/2 180/5/2 184/5/2
f 185/3/2 186/3/2 189/3/2
f 189/3/2 186/3/2 190/3/2
f 187/3/2 188/3/2 191/3/2
f 191/3/2 188/3/2 192/3/2
f 193/3/2 194/3/2 197/3/2
f 197/3/2 194/3/2 198/3/2
f 195/3/2 196/3/2 199/3/2
f 199/3/2 196/3/2 200/3/2
f 201/3/2 202/3/2 203/3/2
f 203/3/2 202/3/2 204/3/2
f 207/3/3 206/3/3 205/3/3
f 208/3/3 206/3/3 207/3/3
f 211/3/3 210/3/3 209/3/3
f 212/3/3 210/3/3 211/3/3
f 215/3/3 214/3/3 213/3/3
f 216/3/3 214/3/3 215/3/3
f 219/3/3 218/3/3 217/3/3
f 220/3/3 218/3/3 219/3/3
f 223/5/3 222/5/3 221/5/3
f 224/5/3 222/5/3 223/5/3
f 227/4/3 225/4/3 224/4/3
f 228/4/3 225/4/3 227/4/3
f 229/5/3 227/5/3 226/5/3
f 230/5/3 227/5/3 229/5/3
f 233/5/3 232/5/3 231/5/3
f 234/5/3 232/5/3 233/5/3
f 237/4/3 235/4/3 234/4/3
f 238/4/3 235/4/3 237/4/3
f 239/5/3 237/5/3 236/5/3
f 240/5/3 237/5/3 239/5/3
f 243/3/3 242/3/3 241/3/3
f 244/3/3 242/3/3 243/3/3
f 248/4/3 246/4/3 245/4/3
f 249/4/3 246/4/3 248/4/3
f 250/5/3 248/5/3 247/5/3
f 251/5/3 248/5/3 250/5/3
f 253/4/3 252/4/3 251/4/3
f 254/4/3 252/4/3 253/4/3
f 257/4/3 256/4/3 255/4/3
f 258/4/3 256/4/3 257/4/3
f 261/5/3 260/5/3 259/5/3
f 262/5/3 260/5/3 261/5/3
f 264/4/3 263/4/3 262/4/3
f 265/4/3 263/4/3 264/4/3
f 269/4/3 267/4/3 266/4/3
f 270/4/3 267/4/3 269/4/3
f 271/5/3 269/5/3 268/5/3
f 272/5/3 269/5/3 271/5/3
f 275/5/3 274/5/3 273/5/3
f 276/5/3 274/5/3 275/5/3
f 278/4/3 277/4/3 276/4/3
f 279/4/3 277/4/3 278/4/3
f 283/4/3 281/4/3 280/4/3
f 284/4/3 281/4/3 283/4/3
f 285/5/3 283/5/3 282/5/3
f 286/5/3 283/5/3 285/5/3
f 289/3/3 288/3/3 287/3/3
f 290/3/3 288/3/3 289/3/3
f 293/3/3 292/3/3 291/3/3
f 294/3/3 292/3/3 293/3/3
f 297/3/3 296/3/3 295/3/3
f 298/3/3 296/3/3 297/3/3
f 301/3/3 300/3/3 299/3/3
f 302/3/3 300/3/3 301/3/3
f 305/3/3 304/3/3 303/3/3
f 306/3/3 304/3/3 305/3/3
f 307/3/4 308/3/4 309/3/4
f 309/3/4 308/3/4 310/3/4
f 311/3/4 312/3/4 313/3/4
f 313/3/4 312/3/4 314/3/4
f 315/3/4 316/3/4 317/3/4
f 317/3/4 316/3/4 318/3/4
f 319/3/4 320/3/4 321/3/4
f 321/3/4 320/3/4 322/3/4
f 323/3/4 324/3/4 325/3/4
f 325/3/4 324/3/4 326/3/4
f 327/5/4 328/5/4 329/5/4
f 329/5/4 328/5/4 330/5/4
f 330/4/4 331/4/4 332/4/4
f 332/4/4 331/4/4 333/4/4
f 334/4/4 335/4/4 337/4/4
f 337/4/4 335/4/4 338/4/4
f 336/5/4 337/5/4 339/5/4
f 339/5/4 337/5/4 340/5/4
f 341/5/4 342/5/4 343/5/4
f 343/5/4 342/5/4 344/5/4
f 344/4/4 345/4/4 346/4/4
f 346/4/4 345/4/4 347/4/4
f 348/4/4 349/4/4 351/4/4
f 351/4/4 349/4/4 352/4/4
f 350/5/4 351/5/4 353/5/4
f 353/5/4 351/5/4 354/5/4
f 355/4/4 356/4/4 357/4/4
f 357/4/4 356/4/4 358/4/4
f 359/4/4 360/4/4 362/4/4
f 362/4/4 360/4/4 363/4/4
f 361/5/4 362/5/4 364/5/4
f 364/5/4 362/5/4 365/5/4
f 365/4/4 366/4/4 367/4/4
f 367/4/4 366/4/4 368/4/4
f 369/3/4 370/3/4 371/3/4
f 371/3/4 370/3/4 372/3/4
f 373/5/4 374/5/4 375/5/4
f 375/5/4 374/5/4 376/5/4
f 376/4/4 377/4/4 379/4/4
f 379/4/4 377/4/4 380/4/4
f 378/5/4 379/5/4 381/5/4
f 381/5/4 379/5/4 382/5/4
f 383/5/4 384/5/4 385/5/4
f 385/5/4 384/5/4 386/5/4
f 386/4/4 387/4/4 389/4/4
f 389/4/4 387/4/4 390/4/4
f 388/5/4 389/5/4 391/5/4
f 391/5/4 389/5/4 392/5/4
f 393/3/4 394/3/4 395/3/4
f 395/3/4 394/3/4 396/3/4
f 397/3/4 398/3/4 399/3/4
f 399/3/4 398/3/4 400/3/4
f 401/3/4 402/3/4 403/3/4
f 403/3/4 402/3/4 404/3/4
f 405/3/4 406/3/4 407/3/4
f 407/3/4 406/3/4 408/3/4
f 412/3/5 410/3/5 409/3/5
f 413/3/5 410/3/5 412/3/5
f 416/3/5 412/3/5 411/3/5
f 417/1/5 413/1/5 412/1/5
f 417/3/5 412/3/5 416/3/5
f 418/1/5 413/1/5 417/1/5
f 419/3/5 414/3/5 413/3/5
f 419/1/5 413/1/5 418/1/5
f 420/3/5 414/3/5 419/3/5
f 422/1/5 418/1/5 417/1/5
f 422/1/5 417/1/5 416/1/5
f 423/2/5 420/2/5 419/2/5
f 423/1/5 418/1/5 422/1/5
f 423/2/5 419/2/5 418/2/5
f 424/3/5 416/3/5 415/3/5
f 425/1/5 422/1/5 416/1/5
f 425/3/5 416/3/5 424/3/5
f 426/2/5 423/2/5 422/2/5
f 426/1/5 422/1/5 425/1/5
f 427/2/5 420/2/5 423/2/5
f 427/2/5 423/2/5 426/2/5
f 428/3/5 421/3/5 420/3/5
f 428/2/5 420/2/5 427/2/5
f 429/3/5 421/3/5 428/3/5
f 430/3/5 426/3/5 425/3/5
f 431/2/5 427/2/5 426/2/5
f 431/3/5 426/3/5 430/3/5
f 432/3/5 428/3/5 427/3/5
f 432/2/5 427/2/5 431/2/5
f 433/3/5 428/3/5 432/3/5
f 434/3/5 432/3/5 431/3/5
f 435/3/5 432/3/5 434/3/5
f 436/1/6 437/1/6 443/1/6
f 443/1/6 437/1/6 444/1/6
f 444/1/6 437/1/6 445/1/6
f 445/1/6 437/1/6 446/1/6
f 438/1/6 439/1/6 447/1/6
f 447/1/6 439/1/6 448/1/6
f 448/1/6 439/1/6 449/1/6
f 449/1/6 439/1/6 450/1/6
f 440/1/6 441/1/6 451/1/6
f 451/1/6 441/1/6 452/1/6
f 452/1/6 441/1/6 453/1/6
f 442/1/6 443/1/6 455/1/6
f 443/1/6 444/1/6 455/1/6
f 444/2/6 445/2/6 456/2/6
f 455/1/6 444/1/6 456/1/6
f 448/2/6 449/2/6 457/2/6
f 457/2/6 449/2/6 458/2/6
f 456/2/6 445/2/6 459/2/6
f 455/2/6 456/2/6 459/2/6
f 453/2/6 454/2/6 462/2/6
f 452/2/6 453/2/6 462/2/6
f 459/2/6 460/2/6 463/2/6
f 461/2/6 462/2/6 466/2/6
f 463/2/6 464/2/6 467/2/6
f 459/2/6 463/2/6 467/2/6
f 467/2/6 464/2/6 468/2/6
f 465/2/6 466/2/6 469/2/6
f 466/2/6 462/2/6 470/2/6
f 469/2/6 466/2/6 470/2/6
f 455/2/6 459/2/6 471/2/6
f 459/2/6 467/2/6 471/2/6
f 471/2/6 467/2/6 472/2/6
f 470/2/6 462/2/6 473/2/6
f 462/2/6 454/2/6 474/2/6
f 473/2/6 462/2/6 474/2/6
f 442/1/6 455/1/6 477/1/6
f 455/2/6 471/2/6 478/2/6
f 477/1/6 455/1/6 478/1/6
f 478/2/6 471/2/6 479/2/6
f 475/2/6 476/2/6 482/2/6
f 482/2/6 476/2/6 483/2/6
f 474/2/6 454/2/6 486/2/6
f 486/2/6 454/2/6 487/2/6
f 487/2/6 454/2/6 488/2/6
f 479/2/6 480/2/6 489/2/6
f 478/2/6 479/2/6 489/2/6
f 489/2/6 480/2/6 490/2/6
f 483/2/6 484/2/6 491/2/6
f 481/2/6 482/2/6 491/2/6
f 482/2/6 483/2/6 491/2/6
f 491/2/6 484/2/6 492/2/6
f 486/2/6 487/2/6 493/2/6
f 485/2/6 486/2/6 493/2/6
f 493/2/6 487/2/6 494/2/6
f 495/3/6 496/3/6 498/3/6
f 498/3/6 496/3/6 499/3/6
f 499/3/6 496/3/6 500/3/6
f 500/3/6 496/3/6 501/3/6
f 501/3/6 496/3/6 502/3/6
f 502/3/6 496/3/6 503/3/6
f 497/3/6 498/3/6 506/3/6
f 506/3/6 498/3/6 507/3/6
f 499/5/6 500/5/6 509/5/6
f 509/5/6 500/5/6 510/5/6
f 501/5/6 502/5/6 513/5/6
f 513/5/6 502/5/6 514/5/6
f 503/3/6 504/3/6 516/3/6
f 516/3/6 504/3/6 517/3/6
f 510/5/6 511/5/6 519/5/6
f 519/5/6 511/5/6 520/5/6
f 512/5/6 513/5/6 521/5/6
f 521/5/6 513/5/6 522/5/6
f 508/5/6 509/5/6 523/5/6
f 523/5/6 509/5/6 524/5/6
f 520/5/6 521/5/6 526/5/6
f 526/5/6 521/5/6 527/5/6
f 514/5/6 515/5/6 529/5/6
f 529/5/6 515/5/6 530/5/6
f 524/5/6 525/5/6 531/5/6
f 531/5/6 525/5/6 532/5/6
f 528/5/6 529/5/6 535/5/6
f 535/5/6 529/5/6 536/5/6
f 532/5/6 533/5/6 538/5/6
f 538/5/6 533/5/6 539/5/6
f 534/5/6 535/5/6 540/5/6
f 540/5/6 535/5/6 541/5/6
f 537/5/6 538/5/6 544/5/6
f 544/5/6 538/5/6 545/5/6
f 541/5/6 542/5/6 548/5/6
f 548/5/6 542/5/6 549/5/6
f 546/5/6 547/5/6 552/5/6
f 552/5/6 547/5/6 553/5/6
f 505/3/6 506/3/6 555/3/6
f 555/3/6 506/3/6 556/3/6
f 543/5/6 544/5/6 558/5/6
f 558/5/6 544/5/6 559/5/6
f 551/5/6 552/5/6 560/5/6
f 560/5/6 552/5/6 561/5/6
f 553/5/6 554/5/6 562/5/6
f 562/5/6 554/5/6 563/5/6
f 549/5/6 550/5/6 564/5/6
f 564/5/6 550/5/6 565/5/6
f 517/3/6 518/3/6 567/3/6
f 567/3/6 518/3/6 568/3/6
f 556/3/6 557/3/6 569/3/6
f 569/3/6 557/3/6 570/3/6
f 559/5/6 560/5/6 571/5/6
f 571/5/6 560/5/6 572/5/6
f 563/5/6 564/5/6 573/5/6
f 573/5/6 564/5/6 574/5/6
f 566/3/6 567/3/6 575/3/6
f 575/3/6 567/3/6 576/3/6
f 571/3/6 572/3/6 577/3/6
f 573/3/6 574/3/6 577/3/6
f 574/3/6 575/3/6 577/3/6
f 572/3/6 573/3/6 577/3/6
f 570/3/6 571/3/6 577/3/6
f 577/3/6 575/3/6 578/3/6
f 579/4/6 580/4/6 583/4/6
f 581/4/6 582/4/6 586/4/6
f 583/4/6 584/4/6 587/4/6
f 579/4/6 583/4/6 587/4/6
f 587/4/6 584/4/6 588/4/6
f 588/4/6 584/4/6 589/4/6
f 585/4/6 586/4/6 590/4/6
f 586/4/6 582/4/6 591/4/6
f 590/4/6 586/4/6 591/4/6
f 591/4/6 582/4/6 592/4/6
f 588/4/6 589/4/6 593/4/6
f 589/4/6 590/4/6 593/4/6
f 590/4/6 591/4/6 593/4/6
f 593/4/6 591/4/6 594/4/6
f 594/4/6 591/4/6 595/4/6
f 595/4/6 591/4/6 596/4/6
f 594/4/6 595/4/6 598/4/6
f 598/4/6 595/4/6 599/4/6
f 597/4/6 598/4/6 602/4/6
f 599/4/6 600/4/6 602/4/6
f 598/4/6 599/4/6 602/4/6
f 602/4/6 600/4/6 603/4/6
f 603/4/6 600/4/6 604/4/6
f 604/4/6 600/4/6 605/4/6
f 601/4/6 602/4/6 607/4/6
f 602/4/6 603/4/6 607/4/6
f 607/4/6 603/4/6 608/4/6
f 604/4/6 605/4/6 609/4/6
f 605/4/6 606/4/6 609/4/6
f 609/4/6 606/4/6 610/4/6
f 601/4/6 607/4/6 611/4/6
f 611/4/6 607/4/6 612/4/6
f 610/4/6 606/4/6 613/4/6
f 613/4/6 606/4/6 614/4/6
