# MagicaVoxel @ Ephtracy

# group
o 

# material
mtllib Robot_vox-1-0.mtl
usemtl palette

# normals
vn -1 0 0
vn 1 0 0
vn 0 0 1
vn 0 0 -1
vn 0 -1 0
vn 0 1 0

# texcoords
vt 0.0449219 0.5
vt 0.0488281 0.5
vt 0.0761719 0.5
vt 0.845703 0.5
vt 0.849609 0.5

# verts
v -0.9 -0.1 0.3
v -0.9 -0.1 -0.4
v -0.9 0.1 0.3
v -0.9 0.1 -0.4
v -0.8 -0.1 0.4
v -0.8 -0.1 0.3
v -0.8 -0.1 -0.4
v -0.8 -0.1 -0.5
v -0.8 0.1 0.4
v -0.8 0.1 0.3
v -0.8 0.1 -0.4
v -0.8 0.1 -0.5
v -0.7 -0.1 0.5
v -0.7 -0.1 0.4
v -0.7 -0.1 -0.5
v -0.7 -0.1 -0.6
v -0.7 0.1 0.5
v -0.7 0.1 0.4
v -0.7 0.1 -0.5
v -0.7 0.1 -0.6
v -0.4 0 0.3
v -0.4 0 -0.4
v -0.4 0.1 0.3
v -0.4 0.1 -0.4
v -0.3 0 0.4
v -0.3 0 0.3
v -0.3 0 -0.4
v -0.3 0 -0.5
v -0.3 0.1 0.4
v -0.3 0.1 0.3
v -0.3 0.1 -0.4
v -0.3 0.1 -0.5
v -0.3 0.2 0.3
v -0.3 0.2 -0.4
v 0.7 0 0.4
v 0.7 0 0.3
v 0.7 0 -0.4
v 0.7 0 -0.5
v 0.7 0.1 0.4
v 0.7 0.1 0.3
v 0.7 0.1 -0.4
v 0.7 0.1 -0.5
v 0.8 0 0.3
v 0.8 0 -0.4
v 0.8 0.1 0.3
v 0.8 0.1 -0.4
v -0.8 0 0.3
v -0.8 0 -0.4
v -0.8 0.1 0.3
v -0.8 0.1 -0.4
v -0.7 0 0.4
v -0.7 0 0.3
v -0.7 0 -0.4
v -0.7 0 -0.5
v -0.7 0.1 0.4
v -0.7 0.1 0.3
v -0.7 0.1 -0.4
v -0.7 0.1 -0.5
v -0.1 0 0.4
v -0.1 0 0.3
v -0.1 0 -0.4
v -0.1 0 -0.5
v -0.1 0.1 0.4
v -0.1 0.1 0.3
v -0.1 0.1 0.2
v -0.1 0.1 -0.3
v -0.1 0.1 -0.4
v -0.1 0.1 -0.5
v -0.1 0.2 0.3
v -0.1 0.2 0.2
v -0.1 0.2 -0.3
v -0.1 0.2 -0.4
v 0.1 0 0.3
v 0.1 0 0.2
v 0.1 0 -0.3
v 0.1 0 -0.4
v 0.1 0.1 0.3
v 0.1 0.1 0.2
v 0.1 0.1 0.1
v 0.1 0.1 -0.2
v 0.1 0.1 -0.3
v 0.1 0.1 -0.4
v 0.1 0.2 0.2
v 0.1 0.2 0.1
v 0.1 0.2 -0.2
v 0.1 0.2 -0.3
v 0.3 0 0.2
v 0.3 0 0.1
v 0.3 0 -0.2
v 0.3 0 -0.3
v 0.3 0.1 0.2
v 0.3 0.1 0.1
v 0.3 0.1 0
v 0.3 0.1 -0.1
v 0.3 0.1 -0.2
v 0.3 0.1 -0.3
v 0.3 0.2 0.1
v 0.3 0.2 0
v 0.3 0.2 -0.1
v 0.3 0.2 -0.2
v 0.5 0 0.1
v 0.5 0 0
v 0.5 0 -0.1
v 0.5 0 -0.2
v 0.5 0.1 0.1
v 0.5 0.1 0
v 0.5 0.1 -0.1
v 0.5 0.1 -0.2
v 0.5 0.2 0
v 0.5 0.2 -0.1
v 0.7 -0.1 0.5
v 0.7 -0.1 0.4
v 0.7 -0.1 -0.5
v 0.7 -0.1 -0.6
v 0.7 0 0
v 0.7 0 -0.1
v 0.7 0.1 0.5
v 0.7 0.1 0.4
v 0.7 0.1 0
v 0.7 0.1 -0.1
v 0.7 0.1 -0.5
v 0.7 0.1 -0.6
v 0.8 -0.1 0.4
v 0.8 -0.1 0.3
v 0.8 -0.1 -0.4
v 0.8 -0.1 -0.5
v 0.8 0.1 0.4
v 0.8 0.1 0.3
v 0.8 0.1 -0.4
v 0.8 0.1 -0.5
v 0.9 -0.1 0.3
v 0.9 -0.1 -0.4
v 0.9 0.1 0.3
v 0.9 0.1 -0.4
v -0.7 -0.1 0.5
v -0.7 0.1 0.5
v 0.7 -0.1 0.5
v 0.7 0.1 0.5
v -0.8 -0.1 0.4
v -0.8 0.1 0.4
v -0.7 -0.1 0.4
v -0.7 0.1 0.4
v 0.7 -0.1 0.4
v 0.7 0.1 0.4
v 0.8 -0.1 0.4
v 0.8 0.1 0.4
v -0.9 -0.1 0.3
v -0.9 0.1 0.3
v -0.8 -0.1 0.3
v -0.8 0.1 0.3
v -0.4 0 0.3
v -0.4 0.1 0.3
v -0.3 0 0.3
v -0.3 0.1 0.3
v -0.3 0.2 0.3
v -0.1 0 0.3
v -0.1 0.1 0.3
v -0.1 0.2 0.3
v 0.1 0 0.3
v 0.1 0.1 0.3
v 0.8 -0.1 0.3
v 0.8 0.1 0.3
v 0.9 -0.1 0.3
v 0.9 0.1 0.3
v -0.1 0.1 0.2
v -0.1 0.2 0.2
v 0.1 0 0.2
v 0.1 0.1 0.2
v 0.1 0.2 0.2
v 0.3 0 0.2
v 0.3 0.1 0.2
v 0.1 0.1 0.1
v 0.1 0.2 0.1
v 0.3 0 0.1
v 0.3 0.1 0.1
v 0.3 0.2 0.1
v 0.5 0 0.1
v 0.5 0.1 0.1
v 0.3 0.1 0
v 0.3 0.2 0
v 0.5 0 0
v 0.5 0.1 0
v 0.5 0.2 0
v 0.7 0 0
v 0.7 0.1 0
v -0.8 0 -0.4
v -0.8 0.1 -0.4
v -0.7 0 -0.4
v -0.7 0.1 -0.4
v 0.7 0 -0.4
v 0.7 0.1 -0.4
v 0.8 0 -0.4
v 0.8 0.1 -0.4
v -0.7 0 -0.5
v -0.7 0.1 -0.5
v -0.3 0 -0.5
v -0.3 0.1 -0.5
v -0.1 0 -0.5
v -0.1 0.1 -0.5
v 0.7 0 -0.5
v 0.7 0.1 -0.5
v -0.7 0 0.4
v -0.7 0.1 0.4
v -0.3 0 0.4
v -0.3 0.1 0.4
v -0.1 0 0.4
v -0.1 0.1 0.4
v 0.7 0 0.4
v 0.7 0.1 0.4
v -0.8 0 0.3
v -0.8 0.1 0.3
v -0.7 0 0.3
v -0.7 0.1 0.3
v 0.7 0 0.3
v 0.7 0.1 0.3
v 0.8 0 0.3
v 0.8 0.1 0.3
v 0.3 0.1 -0.1
v 0.3 0.2 -0.1
v 0.5 0 -0.1
v 0.5 0.1 -0.1
v 0.5 0.2 -0.1
v 0.7 0 -0.1
v 0.7 0.1 -0.1
v 0.1 0.1 -0.2
v 0.1 0.2 -0.2
v 0.3 0 -0.2
v 0.3 0.1 -0.2
v 0.3 0.2 -0.2
v 0.5 0 -0.2
v 0.5 0.1 -0.2
v -0.1 0.1 -0.3
v -0.1 0.2 -0.3
v 0.1 0 -0.3
v 0.1 0.1 -0.3
v 0.1 0.2 -0.3
v 0.3 0 -0.3
v 0.3 0.1 -0.3
v -0.9 -0.1 -0.4
v -0.9 0.1 -0.4
v -0.8 -0.1 -0.4
v -0.8 0.1 -0.4
v -0.4 0 -0.4
v -0.4 0.1 -0.4
v -0.3 0 -0.4
v -0.3 0.1 -0.4
v -0.3 0.2 -0.4
v -0.1 0 -0.4
v -0.1 0.1 -0.4
v -0.1 0.2 -0.4
v 0.1 0 -0.4
v 0.1 0.1 -0.4
v 0.8 -0.1 -0.4
v 0.8 0.1 -0.4
v 0.9 -0.1 -0.4
v 0.9 0.1 -0.4
v -0.8 -0.1 -0.5
v -0.8 0.1 -0.5
v -0.7 -0.1 -0.5
v -0.7 0.1 -0.5
v 0.7 -0.1 -0.5
v 0.7 0.1 -0.5
v 0.8 -0.1 -0.5
v 0.8 0.1 -0.5
v -0.7 -0.1 -0.6
v -0.7 0.1 -0.6
v 0.7 -0.1 -0.6
v 0.7 0.1 -0.6
v -0.7 -0.1 0.5
v 0.7 -0.1 0.5
v -0.8 -0.1 0.4
v -0.7 -0.1 0.4
v 0.7 -0.1 0.4
v 0.8 -0.1 0.4
v -0.9 -0.1 0.3
v -0.8 -0.1 0.3
v -0.7 -0.1 0.3
v -0.6 -0.1 0.3
v -0.3 -0.1 0.3
v -0.1 -0.1 0.3
v 0.7 -0.1 0.3
v 0.8 -0.1 0.3
v 0.9 -0.1 0.3
v -0.7 -0.1 0.2
v -0.6 -0.1 0.2
v -0.1 -0.1 0.2
v 0.1 -0.1 0.2
v 0.1 -0.1 0.1
v 0.3 -0.1 0.1
v 0.3 -0.1 0
v 0.5 -0.1 0
v 0.3 -0.1 -0.1
v 0.5 -0.1 -0.1
v 0.1 -0.1 -0.2
v 0.3 -0.1 -0.2
v -0.1 -0.1 -0.3
v 0.1 -0.1 -0.3
v -0.9 -0.1 -0.4
v -0.8 -0.1 -0.4
v -0.7 -0.1 -0.4
v -0.3 -0.1 -0.4
v -0.1 -0.1 -0.4
v 0.7 -0.1 -0.4
v 0.8 -0.1 -0.4
v 0.9 -0.1 -0.4
v -0.8 -0.1 -0.5
v -0.7 -0.1 -0.5
v 0.7 -0.1 -0.5
v 0.8 -0.1 -0.5
v -0.7 -0.1 -0.6
v 0.7 -0.1 -0.6
v -0.7 0 0.4
v -0.3 0 0.4
v -0.1 0 0.4
v 0.7 0 0.4
v -0.8 0 0.3
v -0.7 0 0.3
v -0.6 0 0.3
v -0.4 0 0.3
v -0.3 0 0.3
v -0.1 0 0.3
v 0.1 0 0.3
v 0.7 0 0.3
v 0.8 0 0.3
v -0.7 0 0.2
v -0.6 0 0.2
v 0.1 0 0.2
v 0.3 0 0.2
v 0.3 0 0.1
v 0.5 0 0.1
v 0.5 0 0
v 0.7 0 0
v 0.5 0 -0.1
v 0.7 0 -0.1
v 0.3 0 -0.2
v 0.5 0 -0.2
v 0.1 0 -0.3
v 0.3 0 -0.3
v -0.8 0 -0.4
v -0.7 0 -0.4
v -0.4 0 -0.4
v -0.3 0 -0.4
v -0.1 0 -0.4
v 0.1 0 -0.4
v 0.7 0 -0.4
v 0.8 0 -0.4
v -0.7 0 -0.5
v -0.3 0 -0.5
v -0.1 0 -0.5
v 0.7 0 -0.5
v -0.7 0.1 0.5
v 0.7 0.1 0.5
v -0.8 0.1 0.4
v -0.7 0.1 0.4
v -0.3 0.1 0.4
v -0.1 0.1 0.4
v 0.7 0.1 0.4
v 0.8 0.1 0.4
v -0.9 0.1 0.3
v -0.8 0.1 0.3
v -0.7 0.1 0.3
v -0.4 0.1 0.3
v -0.3 0.1 0.3
v -0.1 0.1 0.3
v 0.1 0.1 0.3
v 0.7 0.1 0.3
v 0.8 0.1 0.3
v 0.9 0.1 0.3
v -0.1 0.1 0.2
v 0.1 0.1 0.2
v 0.3 0.1 0.2
v 0.1 0.1 0.1
v 0.3 0.1 0.1
v 0.5 0.1 0.1
v 0.3 0.1 0
v 0.5 0.1 0
v 0.7 0.1 0
v 0.3 0.1 -0.1
v 0.5 0.1 -0.1
v 0.7 0.1 -0.1
v 0.1 0.1 -0.2
v 0.3 0.1 -0.2
v 0.5 0.1 -0.2
v -0.1 0.1 -0.3
v 0.1 0.1 -0.3
v 0.3 0.1 -0.3
v -0.9 0.1 -0.4
v -0.8 0.1 -0.4
v -0.7 0.1 -0.4
v -0.4 0.1 -0.4
v -0.3 0.1 -0.4
v -0.1 0.1 -0.4
v 0.1 0.1 -0.4
v 0.7 0.1 -0.4
v 0.8 0.1 -0.4
v 0.9 0.1 -0.4
v -0.8 0.1 -0.5
v -0.7 0.1 -0.5
v -0.3 0.1 -0.5
v -0.1 0.1 -0.5
v 0.7 0.1 -0.5
v 0.8 0.1 -0.5
v -0.7 0.1 -0.6
v 0.7 0.1 -0.6
v -0.3 0.2 0.3
v -0.1 0.2 0.3
v -0.1 0.2 0.2
v 0.1 0.2 0.2
v 0.1 0.2 0.1
v 0.3 0.2 0.1
v 0.3 0.2 0
v 0.5 0.2 0
v 0.3 0.2 -0.1
v 0.5 0.2 -0.1
v 0.1 0.2 -0.2
v 0.3 0.2 -0.2
v -0.1 0.2 -0.3
v 0.1 0.2 -0.3
v -0.3 0.2 -0.4
v -0.1 0.2 -0.4

# faces
f 3/3/1 2/3/1 1/3/1
f 4/3/1 2/3/1 3/3/1
f 9/3/1 6/3/1 5/3/1
f 10/3/1 6/3/1 9/3/1
f 11/3/1 8/3/1 7/3/1
f 12/3/1 8/3/1 11/3/1
f 17/3/1 14/3/1 13/3/1
f 18/3/1 14/3/1 17/3/1
f 19/3/1 16/3/1 15/3/1
f 20/3/1 16/3/1 19/3/1
f 23/5/1 22/5/1 21/5/1
f 24/5/1 22/5/1 23/5/1
f 29/5/1 26/5/1 25/5/1
f 30/5/1 26/5/1 29/5/1
f 31/5/1 28/5/1 27/5/1
f 32/5/1 28/5/1 31/5/1
f 33/4/1 31/4/1 30/4/1
f 34/4/1 31/4/1 33/4/1
f 39/3/1 36/3/1 35/3/1
f 40/3/1 36/3/1 39/3/1
f 41/3/1 38/3/1 37/3/1
f 42/3/1 38/3/1 41/3/1
f 45/3/1 44/3/1 43/3/1
f 46/3/1 44/3/1 45/3/1
f 47/3/2 48/3/2 49/3/2
f 49/3/2 48/3/2 50/3/2
f 51/3/2 52/3/2 55/3/2
f 55/3/2 52/3/2 56/3/2
f 53/3/2 54/3/2 57/3/2
f 57/3/2 54/3/2 58/3/2
f 59/5/2 60/5/2 63/5/2
f 63/5/2 60/5/2 64/5/2
f 61/5/2 62/5/2 67/5/2
f 67/5/2 62/5/2 68/5/2
f 64/4/2 65/4/2 69/4/2
f 69/4/2 65/4/2 70/4/2
f 66/4/2 67/4/2 71/4/2
f 71/4/2 67/4/2 72/4/2
f 73/5/2 74/5/2 77/5/2
f 77/5/2 74/5/2 78/5/2
f 75/5/2 76/5/2 81/5/2
f 81/5/2 76/5/2 82/5/2
f 78/4/2 79/4/2 83/4/2
f 83/4/2 79/4/2 84/4/2
f 80/4/2 81/4/2 85/4/2
f 85/4/2 81/4/2 86/4/2
f 87/5/2 88/5/2 91/5/2
f 91/5/2 88/5/2 92/5/2
f 89/5/2 90/5/2 95/5/2
f 95/5/2 90/5/2 96/5/2
f 92/4/2 93/4/2 97/4/2
f 97/4/2 93/4/2 98/4/2
f 94/4/2 95/4/2 99/4/2
f 99/4/2 95/4/2 100/4/2
f 101/5/2 102/5/2 105/5/2
f 105/5/2 102/5/2 106/5/2
f 103/5/2 104/5/2 107/5/2
f 107/5/2 104/5/2 108/5/2
f 106/4/2 107/4/2 109/4/2
f 109/4/2 107/4/2 110/4/2
f 111/3/2 112/3/2 117/3/2
f 117/3/2 112/3/2 118/3/2
f 115/5/2 116/5/2 119/5/2
f 119/5/2 116/5/2 120/5/2
f 113/3/2 114/3/2 121/3/2
f 121/3/2 114/3/2 122/3/2
f 123/3/2 124/3/2 127/3/2
f 127/3/2 124/3/2 128/3/2
f 125/3/2 126/3/2 129/3/2
f 129/3/2 126/3/2 130/3/2
f 131/3/2 132/3/2 133/3/2
f 133/3/2 132/3/2 134/3/2
f 137/3/3 136/3/3 135/3/3
f 138/3/3 136/3/3 137/3/3
f 141/3/3 140/3/3 139/3/3
f 142/3/3 140/3/3 141/3/3
f 145/3/3 144/3/3 143/3/3
f 146/3/3 144/3/3 145/3/3
f 149/3/3 148/3/3 147/3/3
f 150/3/3 148/3/3 149/3/3
f 153/5/3 152/5/3 151/5/3
f 154/5/3 152/5/3 153/5/3
f 157/4/3 155/4/3 154/4/3
f 158/4/3 155/4/3 157/4/3
f 159/5/3 157/5/3 156/5/3
f 160/5/3 157/5/3 159/5/3
f 163/3/3 162/3/3 161/3/3
f 164/3/3 162/3/3 163/3/3
f 168/4/3 166/4/3 165/4/3
f 169/4/3 166/4/3 168/4/3
f 170/5/3 168/5/3 167/5/3
f 171/5/3 168/5/3 170/5/3
f 175/4/3 173/4/3 172/4/3
f 176/4/3 173/4/3 175/4/3
f 177/5/3 175/5/3 174/5/3
f 178/5/3 175/5/3 177/5/3
f 182/4/3 180/4/3 179/4/3
f 183/4/3 180/4/3 182/4/3
f 184/5/3 182/5/3 181/5/3
f 185/5/3 182/5/3 184/5/3
f 188/3/3 187/3/3 186/3/3
f 189/3/3 187/3/3 188/3/3
f 192/3/3 191/3/3 190/3/3
f 193/3/3 191/3/3 192/3/3
f 196/3/3 195/3/3 194/3/3
f 197/3/3 195/3/3 196/3/3
f 200/3/3 199/3/3 198/3/3
f 201/3/3 199/3/3 200/3/3
f 202/3/4 203/3/4 204/3/4
f 204/3/4 203/3/4 205/3/4
f 206/3/4 207/3/4 208/3/4
f 208/3/4 207/3/4 209/3/4
f 210/3/4 211/3/4 212/3/4
f 212/3/4 211/3/4 213/3/4
f 214/3/4 215/3/4 216/3/4
f 216/3/4 215/3/4 217/3/4
f 218/4/4 219/4/4 221/4/4
f 221/4/4 219/4/4 222/4/4
f 220/5/4 221/5/4 223/5/4
f 223/5/4 221/5/4 224/5/4
f 225/4/4 226/4/4 228/4/4
f 228/4/4 226/4/4 229/4/4
f 227/5/4 228/5/4 230/5/4
f 230/5/4 228/5/4 231/5/4
f 232/4/4 233/4/4 235/4/4
f 235/4/4 233/4/4 236/4/4
f 234/5/4 235/5/4 237/5/4
f 237/5/4 235/5/4 238/5/4
f 239/3/4 240/3/4 241/3/4
f 241/3/4 240/3/4 242/3/4
f 243/5/4 244/5/4 245/5/4
f 245/5/4 244/5/4 246/5/4
f 246/4/4 247/4/4 249/4/4
f 249/4/4 247/4/4 250/4/4
f 248/5/4 249/5/4 251/5/4
f 251/5/4 249/5/4 252/5/4
f 253/3/4 254/3/4 255/3/4
f 255/3/4 254/3/4 256/3/4
f 257/3/4 258/3/4 259/3/4
f 259/3/4 258/3/4 260/3/4
f 261/3/4 262/3/4 263/3/4
f 263/3/4 262/3/4 264/3/4
f 265/3/4 266/3/4 267/3/4
f 267/3/4 266/3/4 268/3/4
f 272/3/5 270/3/5 269/3/5
f 273/3/5 270/3/5 272/3/5
f 276/3/5 272/3/5 271/3/5
f 277/1/5 273/1/5 272/1/5
f 277/3/5 272/3/5 276/3/5
f 278/1/5 273/1/5 277/1/5
f 279/1/5 273/1/5 278/1/5
f 280/1/5 273/1/5 279/1/5
f 281/3/5 274/3/5 273/3/5
f 281/1/5 273/1/5 280/1/5
f 282/3/5 274/3/5 281/3/5
f 284/1/5 277/1/5 276/1/5
f 284/1/5 278/1/5 277/1/5
f 285/2/5 279/2/5 278/2/5
f 285/1/5 278/1/5 284/1/5
f 286/4/5 280/4/5 279/4/5
f 286/2/5 282/2/5 281/2/5
f 286/2/5 281/2/5 280/2/5
f 287/2/5 282/2/5 286/2/5
f 288/4/5 287/4/5 286/4/5
f 288/2/5 282/2/5 287/2/5
f 289/2/5 282/2/5 288/2/5
f 290/4/5 289/4/5 288/4/5
f 290/2/5 282/2/5 289/2/5
f 291/2/5 282/2/5 290/2/5
f 292/4/5 290/4/5 288/4/5
f 292/4/5 291/4/5 290/4/5
f 293/2/5 282/2/5 291/2/5
f 293/4/5 291/4/5 292/4/5
f 294/4/5 288/4/5 286/4/5
f 294/4/5 292/4/5 288/4/5
f 295/2/5 293/2/5 292/2/5
f 295/4/5 292/4/5 294/4/5
f 296/4/5 286/4/5 279/4/5
f 296/4/5 294/4/5 286/4/5
f 297/2/5 295/2/5 294/2/5
f 297/4/5 294/4/5 296/4/5
f 298/3/5 276/3/5 275/3/5
f 299/1/5 284/1/5 276/1/5
f 299/3/5 276/3/5 298/3/5
f 300/2/5 285/2/5 284/2/5
f 300/1/5 284/1/5 299/1/5
f 301/2/5 279/2/5 285/2/5
f 301/2/5 285/2/5 300/2/5
f 301/4/5 296/4/5 279/4/5
f 302/2/5 297/2/5 296/2/5
f 302/4/5 296/4/5 301/4/5
f 303/2/5 295/2/5 297/2/5
f 303/2/5 297/2/5 302/2/5
f 303/2/5 293/2/5 295/2/5
f 303/2/5 282/2/5 293/2/5
f 304/3/5 283/3/5 282/3/5
f 304/2/5 282/2/5 303/2/5
f 305/3/5 283/3/5 304/3/5
f 306/3/5 300/3/5 299/3/5
f 307/2/5 302/2/5 301/2/5
f 307/3/5 300/3/5 306/3/5
f 307/2/5 303/2/5 302/2/5
f 307/2/5 301/2/5 300/2/5
f 308/3/5 304/3/5 303/3/5
f 308/2/5 303/2/5 307/2/5
f 309/3/5 304/3/5 308/3/5
f 310/3/5 308/3/5 307/3/5
f 311/3/5 308/3/5 310/3/5
f 312/1/6 313/1/6 317/1/6
f 317/1/6 313/1/6 318/1/6
f 318/1/6 313/1/6 319/1/6
f 319/1/6 313/1/6 320/1/6
f 314/1/6 315/1/6 321/1/6
f 321/1/6 315/1/6 322/1/6
f 322/1/6 315/1/6 323/1/6
f 316/1/6 317/1/6 325/1/6
f 317/1/6 318/1/6 325/1/6
f 318/2/6 319/2/6 326/2/6
f 325/1/6 318/1/6 326/1/6
f 323/2/6 324/2/6 327/2/6
f 322/2/6 323/2/6 327/2/6
f 327/2/6 324/2/6 328/2/6
f 328/2/6 324/2/6 329/2/6
f 329/2/6 324/2/6 330/2/6
f 330/2/6 324/2/6 331/2/6
f 331/2/6 324/2/6 332/2/6
f 332/2/6 324/2/6 334/2/6
f 333/2/6 334/2/6 336/2/6
f 335/2/6 336/2/6 338/2/6
f 316/1/6 325/1/6 339/1/6
f 325/2/6 326/2/6 340/2/6
f 339/1/6 325/1/6 340/1/6
f 326/2/6 319/2/6 341/2/6
f 340/2/6 326/2/6 341/2/6
f 337/2/6 338/2/6 344/2/6
f 334/2/6 324/2/6 345/2/6
f 336/2/6 334/2/6 345/2/6
f 344/2/6 338/2/6 345/2/6
f 338/2/6 336/2/6 345/2/6
f 345/2/6 324/2/6 346/2/6
f 341/2/6 342/2/6 347/2/6
f 340/2/6 341/2/6 347/2/6
f 347/2/6 342/2/6 348/2/6
f 344/2/6 345/2/6 349/2/6
f 343/2/6 344/2/6 349/2/6
f 349/2/6 345/2/6 350/2/6
f 351/3/6 352/3/6 354/3/6
f 354/3/6 352/3/6 355/3/6
f 355/3/6 352/3/6 356/3/6
f 356/3/6 352/3/6 357/3/6
f 353/3/6 354/3/6 360/3/6
f 360/3/6 354/3/6 361/3/6
f 355/5/6 356/5/6 363/5/6
f 363/5/6 356/5/6 364/5/6
f 357/3/6 358/3/6 366/3/6
f 366/3/6 358/3/6 367/3/6
f 364/5/6 365/5/6 369/5/6
f 369/5/6 365/5/6 370/5/6
f 370/5/6 371/5/6 372/5/6
f 372/5/6 371/5/6 373/5/6
f 373/5/6 374/5/6 375/5/6
f 375/5/6 374/5/6 376/5/6
f 376/5/6 377/5/6 379/5/6
f 379/5/6 377/5/6 380/5/6
f 378/5/6 379/5/6 382/5/6
f 382/5/6 379/5/6 383/5/6
f 381/5/6 382/5/6 385/5/6
f 385/5/6 382/5/6 386/5/6
f 359/3/6 360/3/6 387/3/6
f 387/3/6 360/3/6 388/3/6
f 362/5/6 363/5/6 390/5/6
f 390/5/6 363/5/6 391/5/6
f 384/5/6 385/5/6 392/5/6
f 392/5/6 385/5/6 393/5/6
f 367/3/6 368/3/6 395/3/6
f 395/3/6 368/3/6 396/3/6
f 388/3/6 389/3/6 397/3/6
f 397/3/6 389/3/6 398/3/6
f 391/5/6 392/5/6 399/5/6
f 399/5/6 392/5/6 400/5/6
f 394/3/6 395/3/6 401/3/6
f 401/3/6 395/3/6 402/3/6
f 399/3/6 400/3/6 403/3/6
f 400/3/6 401/3/6 403/3/6
f 398/3/6 399/3/6 403/3/6
f 403/3/6 401/3/6 404/3/6
f 405/4/6 406/4/6 407/4/6
f 407/4/6 408/4/6 409/4/6
f 409/4/6 410/4/6 411/4/6
f 409/4/6 411/4/6 413/4/6
f 411/4/6 412/4/6 413/4/6
f 413/4/6 412/4/6 414/4/6
f 407/4/6 409/4/6 415/4/6
f 409/4/6 413/4/6 415/4/6
f 415/4/6 413/4/6 416/4/6
f 405/4/6 407/4/6 417/4/6
f 407/4/6 415/4/6 417/4/6
f 417/4/6 415/4/6 418/4/6
f 405/4/6 417/4/6 419/4/6
f 419/4/6 417/4/6 420/4/6
