# MagicaVoxel @ Ephtracy

# group
o 

# material
mtllib MainThings_Vox-4.mtl
usemtl palette

# normals
vn -1 0 0
vn 1 0 0
vn 0 0 1
vn 0 0 -1
vn 0 -1 0
vn 0 1 0

# texcoords
vt 0.197266 0.5
vt 0.201172 0.5
vt 0.958984 0.5
vt 0.990234 0.5

# verts
v -0.3 -0.1 0
v -0.3 -0.1 -0.1
v -0.3 0.1 0
v -0.3 0.1 -0.1
v -0.3 0.2 0
v -0.3 0.2 -0.1
v -0.3 0.3 0
v -0.3 0.3 -0.1
v -0.2 -0.6 0.2
v -0.2 -0.6 -0.4
v -0.2 -0.5 0.2
v -0.2 -0.5 -0.4
v -0.2 0.3 0.1
v -0.2 0.3 0
v -0.2 0.3 -0.1
v -0.2 0.4 0.1
v -0.2 0.4 0
v -0.2 0.4 -0.1
v -0.2 0.6 0
v -0.2 0.6 -0.1
v -0.1 -0.5 -0.2
v -0.1 -0.5 -0.3
v -0.1 -0.3 -0.1
v -0.1 -0.3 -0.2
v -0.1 -0.3 -0.3
v -0.1 -0.2 0
v -0.1 -0.2 -0.1
v -0.1 -0.1 -0.1
v -0.1 -0.1 -0.2
v -0.1 -5.96046e-08 0
v -0.1 -5.96046e-08 -0.2
v -0.1 0.1 -0.1
v -0.1 0.1 -0.2
v -0.1 0.2 -0.1
v -0.1 0.2 -0.2
v -0.1 0.3 0
v -0.1 0.3 -0.1
v -0.1 0.4 -0.1
v -0.1 0.5 0.1
v -0.1 0.5 0
v -0.1 0.6 0.1
v -0.1 0.6 0
v -0.1 0.6 -0.1
v -0.1 0.6 -0.2
v -0.1 0.7 0
v -0.1 0.7 -0.1
v 0 -0.5 0
v 0 -0.5 -0.1
v 0 -0.3 -0.1
v 0 -0.2 0
v 0 -0.2 -0.1
v 0.1 -0.5 0.2
v 0.1 -0.5 0.1
v 0.1 -0.1 0.2
v 0.1 -0.1 0.1
v 0.1 0.3 0.1
v 0.1 0.3 0
v 0.1 0.4 0.1
v 0.1 0.4 0
v 0.2 -0.1 0.2
v 0.2 -0.1 0.1
v 0.2 -5.96046e-08 0.2
v 0.2 -5.96046e-08 0.1
v 0.2 -5.96046e-08 0
v 0.2 0.1 0.2
v 0.2 0.1 0.1
v 0.2 0.1 0
v 0.2 0.1 -0.1
v 0.2 0.2 0
v 0.2 0.2 -0.1
v 0.2 0.3 0.3
v 0.2 0.3 0.2
v 0.2 0.3 0.1
v 0.2 0.3 0
v 0.2 0.3 -0.1
v 0.2 0.4 0.3
v 0.2 0.4 0.2
v 0.2 0.4 0.1
v 0.2 0.5 0.2
v 0.2 0.5 0.1
v -0.2 -0.1 0
v -0.2 -0.1 -0.1
v -0.2 0.1 0
v -0.2 0.1 -0.1
v -0.2 0.2 0
v -0.2 0.2 -0.1
v -0.2 0.3 0
v -0.2 0.3 -0.1
v -0.1 0.3 0.1
v -0.1 0.3 0
v -0.1 0.4 0.1
v -0.1 0.4 0
v 0 -0.5 -0.2
v 0 -0.5 -0.3
v 0 -0.3 -0.1
v 0 -0.3 -0.2
v 0 -0.3 -0.3
v 0 -0.1 -0.1
v 0 -0.1 -0.2
v 0 -5.96046e-08 -0.1
v 0 -5.96046e-08 -0.2
v 0 0.1 -0.1
v 0 0.1 -0.2
v 0 0.2 -0.1
v 0 0.2 -0.2
v 0 0.3 -0.1
v 0 0.3 -0.2
v 0.1 -0.5 0
v 0.1 -0.5 -0.1
v 0.1 -0.1 0
v 0.1 -0.1 -0.1
v 0.1 -5.96046e-08 0
v 0.1 -5.96046e-08 -0.1
v 0.1 0.3 0
v 0.1 0.3 -0.1
v 0.1 0.3 -0.2
v 0.1 0.4 -0.1
v 0.1 0.5 0.1
v 0.1 0.5 0
v 0.1 0.6 0.1
v 0.1 0.6 0
v 0.1 0.6 -0.1
v 0.1 0.6 -0.2
v 0.1 0.7 0
v 0.1 0.7 -0.1
v 0.2 -0.6 0.2
v 0.2 -0.6 -0.4
v 0.2 -0.5 0.2
v 0.2 -0.5 0.1
v 0.2 -0.5 -0.4
v 0.2 -0.1 0.2
v 0.2 -0.1 0.1
v 0.2 0.3 0.1
v 0.2 0.3 0
v 0.2 0.3 -0.1
v 0.2 0.4 0.1
v 0.2 0.4 0
v 0.2 0.4 -0.1
v 0.2 0.6 0
v 0.2 0.6 -0.1
v 0.3 -0.1 0.2
v 0.3 -0.1 0.1
v 0.3 -5.96046e-08 0.2
v 0.3 -5.96046e-08 0.1
v 0.3 -5.96046e-08 0
v 0.3 0.1 0.2
v 0.3 0.1 0.1
v 0.3 0.1 0
v 0.3 0.1 -0.1
v 0.3 0.2 0
v 0.3 0.2 -0.1
v 0.3 0.3 0.3
v 0.3 0.3 0.2
v 0.3 0.3 0
v 0.3 0.3 -0.1
v 0.3 0.4 0.3
v 0.3 0.4 0.2
v 0.3 0.4 0.1
v 0.3 0.5 0.2
v 0.3 0.5 0.1
v 0.2 0.3 0.3
v 0.2 0.4 0.3
v 0.3 0.3 0.3
v 0.3 0.4 0.3
v -0.2 -0.6 0.2
v -0.2 -0.5 0.2
v 0.1 -0.5 0.2
v 0.1 -0.1 0.2
v 0.2 -0.6 0.2
v 0.2 -0.5 0.2
v 0.2 -0.1 0.2
v 0.2 -5.96046e-08 0.2
v 0.2 0.1 0.2
v 0.2 0.3 0.2
v 0.2 0.4 0.2
v 0.2 0.5 0.2
v 0.3 -0.1 0.2
v 0.3 -5.96046e-08 0.2
v 0.3 0.1 0.2
v 0.3 0.3 0.2
v 0.3 0.4 0.2
v 0.3 0.5 0.2
v -0.2 0.3 0.1
v -0.2 0.4 0.1
v -0.1 0.3 0.1
v -0.1 0.4 0.1
v -0.1 0.5 0.1
v -0.1 0.6 0.1
v 0.1 0.3 0.1
v 0.1 0.4 0.1
v 0.1 0.5 0.1
v 0.1 0.6 0.1
v 0.2 0.3 0.1
v 0.2 0.4 0.1
v -0.3 -0.1 0
v -0.3 0.1 0
v -0.3 0.2 0
v -0.3 0.3 0
v -0.2 -0.1 0
v -0.2 0.1 0
v -0.2 0.2 0
v -0.2 0.3 0
v -0.2 0.4 0
v -0.2 0.6 0
v -0.1 -0.2 0
v -0.1 -5.96046e-08 0
v -0.1 0.3 0
v -0.1 0.4 0
v -0.1 0.5 0
v -0.1 0.6 0
v -0.1 0.7 0
v 0 -0.5 0
v 0 -0.2 0
v 0 -0.1 0
v 0.1 -0.5 0
v 0.1 -0.1 0
v 0.1 -5.96046e-08 0
v 0.1 0.3 0
v 0.1 0.4 0
v 0.1 0.5 0
v 0.1 0.6 0
v 0.1 0.7 0
v 0.2 0.1 0
v 0.2 0.2 0
v 0.2 0.3 0
v 0.2 0.4 0
v 0.2 0.6 0
v 0.3 0.1 0
v 0.3 0.2 0
v 0.3 0.3 0
v -0.1 -0.3 -0.1
v -0.1 -0.2 -0.1
v 0 -0.3 -0.1
v 0 -0.2 -0.1
v -0.1 -0.5 -0.2
v -0.1 -0.3 -0.2
v 0 -0.5 -0.2
v 0 -0.3 -0.2
v 0.1 -0.5 0.1
v 0.1 -0.1 0.1
v 0.2 -0.5 0.1
v 0.2 -0.1 0.1
v 0.2 -5.96046e-08 0.1
v 0.2 0.1 0.1
v 0.2 0.3 0.1
v 0.2 0.4 0.1
v 0.2 0.5 0.1
v 0.3 -0.1 0.1
v 0.3 -5.96046e-08 0.1
v 0.3 0.1 0.1
v 0.3 0.4 0.1
v 0.3 0.5 0.1
v 0.2 -5.96046e-08 0
v 0.2 0.1 0
v 0.3 -5.96046e-08 0
v 0.3 0.1 0
v -0.3 -0.1 -0.1
v -0.3 0.1 -0.1
v -0.3 0.2 -0.1
v -0.3 0.3 -0.1
v -0.2 -0.1 -0.1
v -0.2 0.1 -0.1
v -0.2 0.2 -0.1
v -0.2 0.3 -0.1
v -0.2 0.4 -0.1
v -0.2 0.6 -0.1
v -0.1 0.1 -0.1
v -0.1 0.2 -0.1
v -0.1 0.3 -0.1
v -0.1 0.4 -0.1
v -0.1 0.6 -0.1
v -0.1 0.7 -0.1
v 0 -0.5 -0.1
v 0 -0.3 -0.1
v 0 -0.1 -0.1
v 0 -5.96046e-08 -0.1
v 0 0.1 -0.1
v 0 0.2 -0.1
v 0 0.3 -0.1
v 0.1 -0.5 -0.1
v 0.1 -0.1 -0.1
v 0.1 -5.96046e-08 -0.1
v 0.1 0.3 -0.1
v 0.1 0.4 -0.1
v 0.1 0.6 -0.1
v 0.1 0.7 -0.1
v 0.2 0.1 -0.1
v 0.2 0.2 -0.1
v 0.2 0.3 -0.1
v 0.2 0.4 -0.1
v 0.2 0.6 -0.1
v 0.3 0.1 -0.1
v 0.3 0.2 -0.1
v 0.3 0.3 -0.1
v -0.1 -0.3 -0.2
v -0.1 -0.1 -0.2
v -0.1 -5.96046e-08 -0.2
v -0.1 0.1 -0.2
v -0.1 0.2 -0.2
v -0.1 0.6 -0.2
v 0 -0.3 -0.2
v 0 -0.1 -0.2
v 0 -5.96046e-08 -0.2
v 0 0.1 -0.2
v 0 0.2 -0.2
v 0 0.3 -0.2
v 0.1 0.3 -0.2
v 0.1 0.6 -0.2
v -0.1 -0.5 -0.3
v -0.1 -0.3 -0.3
v 0 -0.5 -0.3
v 0 -0.3 -0.3
v -0.2 -0.6 -0.4
v -0.2 -0.5 -0.4
v 0.2 -0.6 -0.4
v 0.2 -0.5 -0.4
v -0.2 -0.6 0.2
v 0.2 -0.6 0.2
v -0.2 -0.6 -0.4
v 0.2 -0.6 -0.4
v -0.1 -0.3 -0.1
v 0 -0.3 -0.1
v -0.1 -0.3 -0.2
v 0 -0.3 -0.2
v -0.1 -0.2 0
v 0 -0.2 0
v -0.1 -0.2 -0.1
v 0 -0.2 -0.1
v 0.2 -0.1 0.2
v 0.3 -0.1 0.2
v 0.2 -0.1 0.1
v 0.3 -0.1 0.1
v -0.3 -0.1 0
v -0.2 -0.1 0
v -0.3 -0.1 -0.1
v -0.2 -0.1 -0.1
v 0.2 -5.96046e-08 0.1
v 0.3 -5.96046e-08 0.1
v 0.2 -5.96046e-08 0
v 0.3 -5.96046e-08 0
v 0.2 0.1 0
v 0.3 0.1 0
v 0.2 0.1 -0.1
v 0.3 0.1 -0.1
v -0.1 0.2 -0.1
v 0 0.2 -0.1
v -0.1 0.2 -0.2
v 0 0.2 -0.2
v 0.2 0.3 0.3
v 0.3 0.3 0.3
v 0.2 0.3 0.2
v 0.3 0.3 0.2
v -0.2 0.3 0.1
v -0.1 0.3 0.1
v 0.1 0.3 0.1
v 0.2 0.3 0.1
v -0.2 0.3 0
v -0.1 0.3 0
v 0.1 0.3 0
v 0.2 0.3 0
v -0.2 0.3 -0.1
v -0.1 0.3 -0.1
v 0 0.3 -0.1
v 0.1 0.3 -0.1
v 0.2 0.3 -0.1
v 0 0.3 -0.2
v 0.1 0.3 -0.2
v -0.1 0.5 0.1
v 0.1 0.5 0.1
v -0.1 0.5 0
v 0.1 0.5 0
v -0.2 -0.5 0.2
v 0.1 -0.5 0.2
v 0.1 -0.5 0.1
v 0.2 -0.5 0.1
v 0 -0.5 0
v 0.1 -0.5 0
v 0 -0.5 -0.1
v 0.1 -0.5 -0.1
v -0.1 -0.5 -0.2
v 0 -0.5 -0.2
v -0.1 -0.5 -0.3
v 0 -0.5 -0.3
v -0.2 -0.5 -0.4
v 0.2 -0.5 -0.4
v -0.1 -0.3 -0.2
v 0 -0.3 -0.2
v -0.1 -0.3 -0.3
v 0 -0.3 -0.3
v 0.1 -0.1 0.2
v 0.2 -0.1 0.2
v 0.1 -0.1 0.1
v 0.2 -0.1 0.1
v 0.2 0.1 0.1
v 0.3 0.1 0.1
v 0.2 0.1 0
v 0.3 0.1 0
v -0.1 0.1 -0.1
v 0 0.1 -0.1
v -0.1 0.1 -0.2
v 0 0.1 -0.2
v -0.3 0.3 0
v -0.2 0.3 0
v 0.2 0.3 0
v 0.3 0.3 0
v -0.3 0.3 -0.1
v -0.2 0.3 -0.1
v 0.2 0.3 -0.1
v 0.3 0.3 -0.1
v 0.2 0.4 0.3
v 0.3 0.4 0.3
v 0.2 0.4 0.2
v 0.3 0.4 0.2
v -0.2 0.4 0.1
v -0.1 0.4 0.1
v 0.1 0.4 0.1
v 0.2 0.4 0.1
v -0.2 0.4 0
v -0.1 0.4 0
v 0.1 0.4 0
v 0.2 0.4 0
v 0.2 0.5 0.2
v 0.3 0.5 0.2
v 0.2 0.5 0.1
v 0.3 0.5 0.1
v -0.1 0.6 0.1
v 0.1 0.6 0.1
v -0.2 0.6 0
v -0.1 0.6 0
v 0.1 0.6 0
v 0.2 0.6 0
v -0.2 0.6 -0.1
v -0.1 0.6 -0.1
v 0.1 0.6 -0.1
v 0.2 0.6 -0.1
v -0.1 0.6 -0.2
v 0.1 0.6 -0.2
v -0.1 0.7 0
v 0.1 0.7 0
v -0.1 0.7 -0.1
v 0.1 0.7 -0.1

# faces
f 3/4/1 2/4/1 1/4/1
f 4/4/1 2/4/1 3/4/1
f 5/1/1 4/1/1 3/1/1
f 6/1/1 4/1/1 5/1/1
f 7/4/1 6/4/1 5/4/1
f 8/4/1 6/4/1 7/4/1
f 11/1/1 10/1/1 9/1/1
f 12/1/1 10/1/1 11/1/1
f 16/2/1 14/2/1 13/2/1
f 17/4/1 15/4/1 14/4/1
f 17/2/1 14/2/1 16/2/1
f 18/4/1 15/4/1 17/4/1
f 19/2/1 18/2/1 17/2/1
f 20/2/1 18/2/1 19/2/1
f 24/4/1 22/4/1 21/4/1
f 25/4/1 22/4/1 24/4/1
f 27/4/1 24/4/1 23/4/1
f 28/4/1 24/4/1 27/4/1
f 28/1/1 27/1/1 26/1/1
f 29/4/1 24/4/1 28/4/1
f 30/1/1 28/1/1 26/1/1
f 30/1/1 29/1/1 28/1/1
f 31/1/1 29/1/1 30/1/1
f 32/4/1 31/4/1 30/4/1
f 33/4/1 31/4/1 32/4/1
f 34/4/1 32/4/1 30/4/1
f 36/4/1 34/4/1 30/4/1
f 37/2/1 35/2/1 34/2/1
f 37/4/1 34/4/1 36/4/1
f 38/2/1 35/2/1 37/2/1
f 41/2/1 40/2/1 39/2/1
f 42/2/1 40/2/1 41/2/1
f 43/2/1 35/2/1 38/2/1
f 44/2/1 35/2/1 43/2/1
f 45/2/1 43/2/1 42/2/1
f 46/2/1 43/2/1 45/2/1
f 49/4/1 48/4/1 47/4/1
f 50/4/1 49/4/1 47/4/1
f 51/4/1 49/4/1 50/4/1
f 54/3/1 53/3/1 52/3/1
f 55/3/1 53/3/1 54/3/1
f 58/2/1 57/2/1 56/2/1
f 59/2/1 57/2/1 58/2/1
f 62/3/1 61/3/1 60/3/1
f 63/3/1 61/3/1 62/3/1
f 65/4/1 63/4/1 62/4/1
f 65/4/1 64/4/1 63/4/1
f 66/4/1 64/4/1 65/4/1
f 67/4/1 64/4/1 66/4/1
f 69/4/1 68/4/1 67/4/1
f 70/4/1 68/4/1 69/4/1
f 72/3/1 66/3/1 65/3/1
f 73/3/1 66/3/1 72/3/1
f 74/1/1 70/1/1 69/1/1
f 75/1/1 70/1/1 74/1/1
f 76/2/1 72/2/1 71/2/1
f 77/3/1 73/3/1 72/3/1
f 77/2/1 72/2/1 76/2/1
f 78/3/1 73/3/1 77/3/1
f 79/2/1 78/2/1 77/2/1
f 80/2/1 78/2/1 79/2/1
f 81/4/2 82/4/2 83/4/2
f 83/4/2 82/4/2 84/4/2
f 83/1/2 84/1/2 85/1/2
f 85/1/2 84/1/2 86/1/2
f 85/4/2 86/4/2 87/4/2
f 87/4/2 86/4/2 88/4/2
f 89/2/2 90/2/2 91/2/2
f 91/2/2 90/2/2 92/2/2
f 93/4/2 94/4/2 96/4/2
f 96/4/2 94/4/2 97/4/2
f 95/4/2 96/4/2 98/4/2
f 98/4/2 96/4/2 99/4/2
f 98/1/2 99/1/2 100/1/2
f 100/1/2 99/1/2 101/1/2
f 100/4/2 101/4/2 102/4/2
f 102/4/2 101/4/2 103/4/2
f 104/2/2 105/2/2 106/2/2
f 106/2/2 105/2/2 107/2/2
f 108/4/2 109/4/2 110/4/2
f 110/4/2 109/4/2 111/4/2
f 110/1/2 111/1/2 112/1/2
f 112/1/2 111/1/2 113/1/2
f 112/4/2 113/4/2 114/4/2
f 114/4/2 113/4/2 115/4/2
f 115/2/2 116/2/2 117/2/2
f 118/2/2 119/2/2 120/2/2
f 120/2/2 119/2/2 121/2/2
f 117/2/2 116/2/2 122/2/2
f 122/2/2 116/2/2 123/2/2
f 121/2/2 122/2/2 124/2/2
f 124/2/2 122/2/2 125/2/2
f 126/1/2 127/1/2 128/1/2
f 128/1/2 127/1/2 129/1/2
f 129/1/2 127/1/2 130/1/2
f 128/3/2 129/3/2 131/3/2
f 131/3/2 129/3/2 132/3/2
f 133/2/2 134/2/2 136/2/2
f 134/4/2 135/4/2 137/4/2
f 136/2/2 134/2/2 137/2/2
f 137/4/2 135/4/2 138/4/2
f 137/2/2 138/2/2 139/2/2
f 139/2/2 138/2/2 140/2/2
f 141/3/2 142/3/2 143/3/2
f 143/3/2 142/3/2 144/3/2
f 143/4/2 144/4/2 146/4/2
f 144/4/2 145/4/2 146/4/2
f 146/4/2 145/4/2 147/4/2
f 147/4/2 145/4/2 148/4/2
f 148/4/2 149/4/2 150/4/2
f 150/4/2 149/4/2 151/4/2
f 146/3/2 147/3/2 153/3/2
f 150/1/2 151/1/2 154/1/2
f 154/1/2 151/1/2 155/1/2
f 152/2/2 153/2/2 156/2/2
f 153/3/2 147/3/2 157/3/2
f 156/2/2 153/2/2 157/2/2
f 157/3/2 147/3/2 158/3/2
f 157/2/2 158/2/2 159/2/2
f 159/2/2 158/2/2 160/2/2
f 163/2/3 162/2/3 161/2/3
f 164/2/3 162/2/3 163/2/3
f 167/1/3 166/1/3 165/1/3
f 169/1/3 167/1/3 165/1/3
f 170/3/3 168/3/3 167/3/3
f 170/1/3 167/1/3 169/1/3
f 171/3/3 168/3/3 170/3/3
f 177/3/3 172/3/3 171/3/3
f 178/4/3 173/4/3 172/4/3
f 178/3/3 172/3/3 177/3/3
f 179/3/3 174/3/3 173/3/3
f 179/4/3 173/4/3 178/4/3
f 180/3/3 174/3/3 179/3/3
f 181/2/3 176/2/3 175/2/3
f 182/2/3 176/2/3 181/2/3
f 185/2/3 184/2/3 183/2/3
f 186/2/3 184/2/3 185/2/3
f 191/2/3 188/2/3 187/2/3
f 192/2/3 188/2/3 191/2/3
f 193/2/3 190/2/3 189/2/3
f 194/2/3 190/2/3 193/2/3
f 199/4/3 196/4/3 195/4/3
f 200/1/3 197/1/3 196/1/3
f 200/4/3 196/4/3 199/4/3
f 201/4/3 198/4/3 197/4/3
f 201/1/3 197/1/3 200/1/3
f 202/4/3 198/4/3 201/4/3
f 208/2/3 204/2/3 203/2/3
f 209/2/3 204/2/3 208/2/3
f 210/2/3 204/2/3 209/2/3
f 213/1/3 206/1/3 205/1/3
f 214/1/3 206/1/3 213/1/3
f 215/4/3 213/4/3 212/4/3
f 215/4/3 214/4/3 213/4/3
f 216/1/3 206/1/3 214/1/3
f 216/4/3 214/4/3 215/4/3
f 217/4/3 207/4/3 206/4/3
f 217/1/3 206/1/3 216/1/3
f 217/4/3 208/4/3 207/4/3
f 217/4/3 209/4/3 208/4/3
f 218/4/3 209/4/3 217/4/3
f 219/4/3 209/4/3 218/4/3
f 220/4/3 209/4/3 219/4/3
f 221/2/3 211/2/3 210/2/3
f 222/2/3 211/2/3 221/2/3
f 226/2/3 220/2/3 219/2/3
f 226/2/3 221/2/3 220/2/3
f 227/2/3 221/2/3 226/2/3
f 228/4/3 224/4/3 223/4/3
f 229/1/3 225/1/3 224/1/3
f 229/4/3 224/4/3 228/4/3
f 230/1/3 225/1/3 229/1/3
f 233/4/3 232/4/3 231/4/3
f 234/4/3 232/4/3 233/4/3
f 237/4/3 236/4/3 235/4/3
f 238/4/3 236/4/3 237/4/3
f 239/3/4 240/3/4 241/3/4
f 241/3/4 240/3/4 242/3/4
f 242/3/4 243/3/4 248/3/4
f 248/3/4 243/3/4 249/3/4
f 245/3/4 246/3/4 250/3/4
f 244/3/4 245/3/4 250/3/4
f 246/2/4 247/2/4 251/2/4
f 250/3/4 246/3/4 251/3/4
f 251/2/4 247/2/4 252/2/4
f 253/4/4 254/4/4 255/4/4
f 255/4/4 254/4/4 256/4/4
f 257/4/4 258/4/4 261/4/4
f 258/1/4 259/1/4 262/1/4
f 261/4/4 258/4/4 262/4/4
f 259/4/4 260/4/4 263/4/4
f 262/1/4 259/1/4 263/1/4
f 263/4/4 260/4/4 264/4/4
f 264/4/4 265/4/4 269/4/4
f 265/2/4 266/2/4 270/2/4
f 269/4/4 265/4/4 270/4/4
f 270/2/4 266/2/4 271/2/4
f 267/4/4 268/4/4 277/4/4
f 277/4/4 268/4/4 278/4/4
f 273/4/4 274/4/4 280/4/4
f 274/4/4 275/4/4 280/4/4
f 275/1/4 276/1/4 281/1/4
f 280/4/4 275/4/4 281/4/4
f 278/4/4 279/4/4 282/4/4
f 281/1/4 276/1/4 282/1/4
f 277/4/4 278/4/4 282/4/4
f 276/4/4 277/4/4 282/4/4
f 282/4/4 279/4/4 283/4/4
f 271/2/4 272/2/4 285/2/4
f 285/2/4 272/2/4 286/2/4
f 283/4/4 284/4/4 289/4/4
f 284/2/4 285/2/4 290/2/4
f 289/4/4 284/4/4 290/4/4
f 290/2/4 285/2/4 291/2/4
f 287/4/4 288/4/4 292/4/4
f 288/1/4 289/1/4 293/1/4
f 292/4/4 288/4/4 293/4/4
f 293/1/4 289/1/4 294/1/4
f 295/4/4 296/4/4 301/4/4
f 296/1/4 297/1/4 302/1/4
f 301/4/4 296/4/4 302/4/4
f 297/4/4 298/4/4 303/4/4
f 302/1/4 297/1/4 303/1/4
f 303/4/4 298/4/4 304/4/4
f 299/2/4 300/2/4 305/2/4
f 305/2/4 300/2/4 306/2/4
f 306/2/4 300/2/4 307/2/4
f 307/2/4 300/2/4 308/2/4
f 309/4/4 310/4/4 311/4/4
f 311/4/4 310/4/4 312/4/4
f 313/1/4 314/1/4 315/1/4
f 315/1/4 314/1/4 316/1/4
f 319/1/5 318/1/5 317/1/5
f 320/1/5 318/1/5 319/1/5
f 323/4/5 322/4/5 321/4/5
f 324/4/5 322/4/5 323/4/5
f 327/1/5 326/1/5 325/1/5
f 328/1/5 326/1/5 327/1/5
f 331/3/5 330/3/5 329/3/5
f 332/3/5 330/3/5 331/3/5
f 335/4/5 334/4/5 333/4/5
f 336/4/5 334/4/5 335/4/5
f 339/4/5 338/4/5 337/4/5
f 340/4/5 338/4/5 339/4/5
f 343/4/5 342/4/5 341/4/5
f 344/4/5 342/4/5 343/4/5
f 347/2/5 346/2/5 345/2/5
f 348/2/5 346/2/5 347/2/5
f 351/2/5 350/2/5 349/2/5
f 352/2/5 350/2/5 351/2/5
f 357/2/5 354/2/5 353/2/5
f 358/2/5 354/2/5 357/2/5
f 359/2/5 356/2/5 355/2/5
f 360/2/5 356/2/5 359/2/5
f 361/4/5 358/4/5 357/4/5
f 362/4/5 358/4/5 361/4/5
f 364/4/5 360/4/5 359/4/5
f 365/4/5 360/4/5 364/4/5
f 366/2/5 364/2/5 363/2/5
f 367/2/5 364/2/5 366/2/5
f 370/2/5 369/2/5 368/2/5
f 371/2/5 369/2/5 370/2/5
f 372/1/6 373/1/6 374/1/6
f 372/1/6 374/1/6 376/1/6
f 374/1/6 375/1/6 376/1/6
f 376/1/6 375/1/6 377/1/6
f 372/1/6 376/1/6 378/1/6
f 377/1/6 375/1/6 379/1/6
f 372/1/6 378/1/6 380/1/6
f 378/1/6 379/1/6 380/1/6
f 380/1/6 379/1/6 381/1/6
f 372/1/6 380/1/6 382/1/6
f 381/1/6 379/1/6 383/1/6
f 372/1/6 382/1/6 384/1/6
f 382/1/6 383/1/6 384/1/6
f 379/1/6 375/1/6 385/1/6
f 384/1/6 383/1/6 385/1/6
f 383/1/6 379/1/6 385/1/6
f 386/4/6 387/4/6 388/4/6
f 388/4/6 387/4/6 389/4/6
f 390/3/6 391/3/6 392/3/6
f 392/3/6 391/3/6 393/3/6
f 394/4/6 395/4/6 396/4/6
f 396/4/6 395/4/6 397/4/6
f 398/4/6 399/4/6 400/4/6
f 400/4/6 399/4/6 401/4/6
f 402/4/6 403/4/6 406/4/6
f 406/4/6 403/4/6 407/4/6
f 404/1/6 405/1/6 408/1/6
f 408/1/6 405/1/6 409/1/6
f 410/2/6 411/2/6 412/2/6
f 412/2/6 411/2/6 413/2/6
f 414/2/6 415/2/6 418/2/6
f 418/2/6 415/2/6 419/2/6
f 416/2/6 417/2/6 420/2/6
f 420/2/6 417/2/6 421/2/6
f 422/2/6 423/2/6 424/2/6
f 424/2/6 423/2/6 425/2/6
f 426/2/6 427/2/6 429/2/6
f 429/2/6 427/2/6 430/2/6
f 428/2/6 429/2/6 432/2/6
f 432/2/6 429/2/6 433/2/6
f 430/2/6 431/2/6 434/2/6
f 434/2/6 431/2/6 435/2/6
f 433/2/6 434/2/6 436/2/6
f 436/2/6 434/2/6 437/2/6
f 438/2/6 439/2/6 440/2/6
f 440/2/6 439/2/6 441/2/6
