# MagicaVoxel @ Ephtracy

# group
o 

# material
mtllib MainThings_Vox-2.mtl
usemtl palette

# normals
vn -1 0 0
vn 1 0 0
vn 0 0 1
vn 0 0 -1
vn 0 -1 0
vn 0 1 0

# texcoords
vt 0.0800781 0.5
vt 0.130859 0.5
vt 0.154297 0.5
vt 0.177734 0.5
vt 0.958984 0.5
vt 0.990234 0.5
vt 0.994141 0.5

# verts
v -0.3 0 1.4
v -0.3 0 1.3
v -0.3 0 1
v -0.3 0.1 1.3
v -0.3 0.1 1
v -0.3 0.2 1.4
v -0.3 0.2 1
v -0.2 -0.1 1.4
v -0.2 -0.1 0.9
v -0.2 -0.1 0.6
v -0.2 0 1.4
v -0.2 0 1.3
v -0.2 0 1
v -0.2 0 0.9
v -0.2 0 0.7
v -0.2 0 0.6
v -0.2 0 0.2
v -0.2 0 0.1
v -0.2 0 -0.2
v -0.2 0 -0.3
v -0.2 0 -0.7
v -0.2 0 -1.2
v -0.2 0.1 1
v -0.2 0.2 1.4
v -0.2 0.2 1
v -0.2 0.2 0.9
v -0.2 0.2 0.7
v -0.2 0.2 0.6
v -0.2 0.2 0.2
v -0.2 0.2 0.1
v -0.2 0.2 -0.2
v -0.2 0.2 -0.3
v -0.2 0.2 -0.7
v -0.2 0.2 -1.2
v -0.2 0.3 1.4
v -0.2 0.3 0.9
v -0.2 0.3 0.6
v -0.1 -0.3 0.7
v -0.1 -0.3 0.4
v -0.1 -0.3 -0.1
v -0.1 -0.3 -0.2
v -0.1 -0.2 1.4
v -0.1 -0.2 1.3
v -0.1 -0.2 1
v -0.1 -0.2 0.7
v -0.1 -0.2 0.4
v -0.1 -0.2 0
v -0.1 -0.2 -0.1
v -0.1 -0.2 -0.2
v -0.1 -0.2 -0.3
v -0.1 -0.1 1.4
v -0.1 -0.1 1.3
v -0.1 -0.1 1
v -0.1 -0.1 0.6
v -0.1 -0.1 0.2
v -0.1 -0.1 0.1
v -0.1 -0.1 0
v -0.1 -0.1 -0.2
v -0.1 -0.1 -0.3
v -0.1 -0.1 -0.7
v -0.1 -0.1 -1.2
v -0.1 0 0.6
v -0.1 0 0.2
v -0.1 0 0.1
v -0.1 0 -0.2
v -0.1 0 -0.3
v -0.1 0 -0.7
v -0.1 0 -1.2
v -0.1 0 -1.4
v -0.1 0.1 -1.3
v -0.1 0.1 -1.4
v -0.1 0.2 0.6
v -0.1 0.2 0.2
v -0.1 0.2 0.1
v -0.1 0.2 -0.2
v -0.1 0.2 -0.3
v -0.1 0.2 -0.7
v -0.1 0.2 -1
v -0.1 0.2 -1.2
v -0.1 0.2 -1.3
v -0.1 0.3 1.4
v -0.1 0.3 1
v -0.1 0.3 0.6
v -0.1 0.3 0.2
v -0.1 0.3 0.1
v -0.1 0.3 -0.2
v -0.1 0.3 -0.3
v -0.1 0.3 -0.7
v -0.1 0.3 -1
v -0.1 0.4 1.4
v -0.1 0.4 1
v 0 -0.4 0.7
v 0 -0.4 -0.1
v 0 -0.3 0.9
v 0 -0.3 0.7
v 0 -0.3 0.4
v 0 -0.3 -0.1
v 0 -0.2 0.9
v 0 -0.2 0.7
v 0 -0.2 0.4
v 0 -0.2 0
v 0 -0.2 -0.1
v 0.1 -0.4 0.7
v 0.1 -0.4 -0.1
v 0.1 -0.3 0.9
v 0.1 -0.3 0.7
v 0.1 -0.3 0.6
v 0.1 -0.3 0.3
v 0.1 -0.3 -0.1
v 0.1 -0.3 -0.2
v 0.1 -0.2 1.4
v 0.1 -0.2 1
v 0.1 -0.2 0.9
v 0.1 -0.2 0.7
v 0.1 -0.2 0.6
v 0.1 -0.2 0.3
v 0.1 -0.2 0
v 0.1 -0.2 -0.1
v 0.1 -0.2 -0.2
v 0.1 -0.2 -0.3
v 0.1 -0.1 1.4
v 0.1 -0.1 1
v 0.1 -0.1 0.6
v 0.1 -0.1 0.4
v 0.1 -0.1 0.3
v 0.1 -0.1 0
v 0.1 -0.1 -0.1
v 0.1 -0.1 -0.2
v 0.1 -0.1 -0.3
v 0.1 -0.1 -0.4
v 0.1 -0.1 -0.5
v 0.1 -0.1 -0.7
v 0.1 -0.1 -1.2
v 0.1 0 0.6
v 0.1 0 0.4
v 0.1 0 0.3
v 0.1 0 0
v 0.1 0 -0.1
v 0.1 0 -0.4
v 0.1 0 -0.5
v 0.1 0 -0.7
v 0.1 0 -1.2
v 0.1 0 -1.4
v 0.1 0.1 -1.3
v 0.1 0.1 -1.4
v 0.1 0.2 0.6
v 0.1 0.2 0.4
v 0.1 0.2 0.3
v 0.1 0.2 0
v 0.1 0.2 -0.1
v 0.1 0.2 -0.4
v 0.1 0.2 -0.5
v 0.1 0.2 -0.7
v 0.1 0.2 -1
v 0.1 0.2 -1.2
v 0.1 0.2 -1.3
v 0.1 0.3 1.4
v 0.1 0.3 1.3
v 0.1 0.3 1
v 0.1 0.3 0.6
v 0.1 0.3 0.4
v 0.1 0.3 0.3
v 0.1 0.3 0
v 0.1 0.3 -0.1
v 0.1 0.3 -0.4
v 0.1 0.3 -0.5
v 0.1 0.3 -0.7
v 0.1 0.3 -1
v 0.1 0.4 1.4
v 0.1 0.4 1.3
v 0.1 0.4 1
v 0.2 -0.3 0.7
v 0.2 -0.3 0.6
v 0.2 -0.3 0.3
v 0.2 -0.3 -0.1
v 0.2 -0.2 0.7
v 0.2 -0.2 0.6
v 0.2 -0.2 0.3
v 0.2 -0.2 -0.1
v 0.2 -0.2 -0.2
v 0.2 -0.1 1.4
v 0.2 -0.1 0.9
v 0.2 -0.1 0.6
v 0.2 -0.1 -0.1
v 0.2 -0.1 -0.2
v 0.2 0 1.4
v 0.2 0 1
v 0.2 0 0.9
v 0.2 0 0.7
v 0.2 0 0.6
v 0.2 0 0.4
v 0.2 0 0.3
v 0.2 0 0
v 0.2 0 -0.1
v 0.2 0 -0.4
v 0.2 0 -0.5
v 0.2 0 -0.7
v 0.2 0 -1.2
v 0.2 0.1 1
v 0.2 0.2 1.4
v 0.2 0.2 1.3
v 0.2 0.2 1
v 0.2 0.2 0.9
v 0.2 0.2 0.7
v 0.2 0.2 0.6
v 0.2 0.2 0.4
v 0.2 0.2 0.3
v 0.2 0.2 0
v 0.2 0.2 -0.1
v 0.2 0.2 -0.4
v 0.2 0.2 -0.5
v 0.2 0.2 -0.7
v 0.2 0.2 -1.2
v 0.2 0.3 1.4
v 0.2 0.3 0.9
v 0.2 0.3 0.6
v 0.3 0 1.4
v 0.3 0 1
v 0.3 0.1 1.3
v 0.3 0.1 1
v 0.3 0.2 1.4
v 0.3 0.2 1.3
v 0.3 0.2 1
v -0.3 0 1.4
v -0.3 0.2 1.4
v -0.2 -0.1 1.4
v -0.2 0 1.4
v -0.2 0.2 1.4
v -0.2 0.3 1.4
v -0.1 -0.2 1.4
v -0.1 -0.1 1.4
v -0.1 0 1.4
v -0.1 0.2 1.4
v -0.1 0.3 1.4
v -0.1 0.4 1.4
v 0.1 -0.2 1.4
v 0.1 -0.1 1.4
v 0.1 0 1.4
v 0.1 0.2 1.4
v 0.1 0.3 1.4
v 0.1 0.4 1.4
v 0.2 -0.1 1.4
v 0.2 0 1.4
v 0.2 0.2 1.4
v 0.2 0.3 1.4
v 0.3 0 1.4
v 0.3 0.2 1.4
v 0 -0.3 0.9
v 0 -0.2 0.9
v 0.1 -0.3 0.9
v 0.1 -0.2 0.9
v -0.1 -0.3 0.7
v -0.1 -0.2 0.7
v 0 -0.4 0.7
v 0 -0.3 0.7
v 0 -0.2 0.7
v 0.1 -0.4 0.7
v 0.1 -0.3 0.7
v 0.1 -0.2 0.7
v 0.2 -0.3 0.7
v 0.2 -0.2 0.7
v 0.1 -0.3 0.3
v 0.1 -0.2 0.3
v 0.2 -0.3 0.3
v 0.2 -0.2 0.3
v -0.1 -0.2 0
v -0.1 -0.1 0
v 0 -0.2 0
v 0.1 -0.2 0
v 0.1 -0.1 0
v -0.1 -0.3 -0.1
v -0.1 -0.2 -0.1
v 0 -0.3 -0.1
v 0 -0.2 -0.1
v 0.1 -0.2 -0.1
v 0.1 -0.1 -0.1
v 0.2 -0.2 -0.1
v 0.2 -0.1 -0.1
v -0.3 0 1
v -0.3 0.1 1
v -0.3 0.2 1
v -0.2 0 1
v -0.2 0.1 1
v -0.2 0.2 1
v -0.1 -0.2 1
v -0.1 -0.1 1
v -0.1 0.3 1
v -0.1 0.4 1
v 0 -0.2 1
v 0 -0.1 1
v 0 0.3 1
v 0 0.4 1
v 0.1 -0.2 1
v 0.1 -0.1 1
v 0.1 0.3 1
v 0.1 0.4 1
v 0.2 0 1
v 0.2 0.1 1
v 0.2 0.2 1
v 0.3 0 1
v 0.3 0.1 1
v 0.3 0.2 1
v -0.2 -0.1 0.6
v -0.2 0 0.6
v -0.2 0.2 0.6
v -0.2 0.3 0.6
v -0.1 -0.1 0.6
v -0.1 0 0.6
v -0.1 0.2 0.6
v -0.1 0.3 0.6
v 0.1 -0.3 0.6
v 0.1 -0.2 0.6
v 0.1 -0.1 0.6
v 0.1 0 0.6
v 0.1 0.2 0.6
v 0.1 0.3 0.6
v 0.2 -0.3 0.6
v 0.2 -0.2 0.6
v 0.2 -0.1 0.6
v 0.2 0 0.6
v 0.2 0.2 0.6
v 0.2 0.3 0.6
v -0.1 -0.3 0.4
v -0.1 -0.2 0.4
v 0 -0.3 0.4
v 0 -0.2 0.4
v 0 -0.4 -0.1
v 0 -0.3 -0.1
v 0.1 -0.4 -0.1
v 0.1 -0.3 -0.1
v 0.1 -0.2 -0.1
v 0.2 -0.3 -0.1
v 0.2 -0.2 -0.1
v -0.1 -0.3 -0.2
v -0.1 -0.2 -0.2
v 0.1 -0.3 -0.2
v 0.1 -0.2 -0.2
v 0.1 -0.1 -0.2
v 0.2 -0.2 -0.2
v 0.2 -0.1 -0.2
v -0.1 -0.2 -0.3
v -0.1 -0.1 -0.3
v 0.1 -0.2 -0.3
v 0.1 -0.1 -0.3
v -0.1 0.2 -1
v -0.1 0.3 -1
v 0.1 0.2 -1
v 0.1 0.3 -1
v -0.2 0 -1.2
v -0.2 0.2 -1.2
v -0.1 -0.1 -1.2
v -0.1 0 -1.2
v -0.1 0.2 -1.2
v 0.1 -0.1 -1.2
v 0.1 0 -1.2
v 0.1 0.2 -1.2
v 0.2 0 -1.2
v 0.2 0.2 -1.2
v -0.1 0.1 -1.3
v -0.1 0.2 -1.3
v 0.1 0.1 -1.3
v 0.1 0.2 -1.3
v -0.1 0 -1.4
v -0.1 0.1 -1.4
v 0.1 0 -1.4
v 0.1 0.1 -1.4
v 0 -0.4 0.7
v 0.1 -0.4 0.7
v 0 -0.4 -0.1
v 0.1 -0.4 -0.1
v 0 -0.3 0.9
v 0.1 -0.3 0.9
v -0.1 -0.3 0.7
v 0 -0.3 0.7
v 0.1 -0.3 0.7
v 0.2 -0.3 0.7
v 0.1 -0.3 0.6
v 0.2 -0.3 0.6
v -0.1 -0.3 0.4
v 0 -0.3 0.4
v 0.1 -0.3 0.3
v 0.2 -0.3 0.3
v -0.1 -0.3 -0.1
v 0 -0.3 -0.1
v 0.1 -0.3 -0.1
v 0.2 -0.3 -0.1
v -0.1 -0.3 -0.2
v 0.1 -0.3 -0.2
v -0.1 -0.2 1.4
v 0.1 -0.2 1.4
v -0.1 -0.2 1.3
v 0 -0.2 1.3
v -0.1 -0.2 1
v 0 -0.2 1
v 0.1 -0.2 1
v -0.1 -0.2 0
v 0 -0.2 0
v -0.1 -0.2 -0.1
v 0 -0.2 -0.1
v 0.1 -0.2 -0.1
v 0.2 -0.2 -0.1
v -0.1 -0.2 -0.2
v 0.1 -0.2 -0.2
v 0.2 -0.2 -0.2
v -0.1 -0.2 -0.3
v 0.1 -0.2 -0.3
v -0.2 -0.1 1.4
v -0.1 -0.1 1.4
v 0.1 -0.1 1.4
v 0.2 -0.1 1.4
v -0.1 -0.1 1.3
v -0.1 -0.1 1
v 0 -0.1 1
v 0.1 -0.1 1
v -0.2 -0.1 0.9
v -0.1 -0.1 0.9
v 0.1 -0.1 0.9
v 0.2 -0.1 0.9
v -0.1 -0.1 0.7
v 0.1 -0.1 0.7
v -0.2 -0.1 0.6
v -0.1 -0.1 0.6
v 0.1 -0.1 0.6
v 0.2 -0.1 0.6
v 0 -0.1 0.4
v 0.1 -0.1 0.4
v 0 -0.1 0.3
v 0.1 -0.1 0.3
v -0.1 -0.1 0.2
v 0 -0.1 0.2
v -0.1 -0.1 0.1
v 0 -0.1 0.1
v -0.1 -0.1 0
v 0.1 -0.1 0
v -0.1 -0.1 -0.3
v 0.1 -0.1 -0.3
v 0 -0.1 -0.4
v 0.1 -0.1 -0.4
v 0 -0.1 -0.5
v 0.1 -0.1 -0.5
v -0.1 -0.1 -0.7
v 0.1 -0.1 -0.7
v -0.1 -0.1 -1.2
v 0.1 -0.1 -1.2
v -0.3 0 1.4
v -0.2 0 1.4
v 0.2 0 1.4
v 0.3 0 1.4
v -0.3 0 1.3
v -0.2 0 1.3
v -0.3 0 1
v -0.2 0 1
v 0.2 0 1
v 0.3 0 1
v -0.2 0 0.6
v -0.1 0 0.6
v 0.1 0 0.6
v 0.2 0 0.6
v 0.1 0 0.4
v 0.2 0 0.4
v 0.1 0 0.3
v 0.2 0 0.3
v -0.2 0 0.2
v -0.1 0 0.2
v -0.2 0 0.1
v -0.1 0 0.1
v 0.1 0 0
v 0.2 0 0
v 0.1 0 -0.1
v 0.2 0 -0.1
v -0.2 0 -0.2
v -0.1 0 -0.2
v -0.2 0 -0.3
v -0.1 0 -0.3
v 0.1 0 -0.4
v 0.2 0 -0.4
v 0.1 0 -0.5
v 0.2 0 -0.5
v -0.2 0 -0.7
v -0.1 0 -0.7
v 0.1 0 -0.7
v 0.2 0 -0.7
v -0.2 0 -1.2
v -0.1 0 -1.2
v 0.1 0 -1.2
v 0.2 0 -1.2
v -0.1 0 -1.4
v 0.1 0 -1.4
v 0 -0.2 0.9
v 0.1 -0.2 0.9
v -0.1 -0.2 0.7
v 0 -0.2 0.7
v 0.1 -0.2 0.7
v 0.2 -0.2 0.7
v 0.1 -0.2 0.6
v 0.2 -0.2 0.6
v -0.1 -0.2 0.4
v 0 -0.2 0.4
v 0.1 -0.2 0.3
v 0.2 -0.2 0.3
v 0 -0.2 0
v 0.1 -0.2 0
v 0.1 -0.2 -0.1
v 0.2 -0.2 -0.1
v 0.1 -0.1 -0.1
v 0.2 -0.1 -0.1
v 0.1 -0.1 -0.2
v 0.2 -0.1 -0.2
v -0.1 0.1 -1.3
v 0.1 0.1 -1.3
v -0.1 0.1 -1.4
v 0.1 0.1 -1.4
v -0.3 0.2 1.4
v -0.2 0.2 1.4
v 0.2 0.2 1.4
v 0.3 0.2 1.4
v 0.2 0.2 1.3
v 0.3 0.2 1.3
v -0.3 0.2 1
v -0.2 0.2 1
v 0.2 0.2 1
v 0.3 0.2 1
v -0.2 0.2 0.6
v -0.1 0.2 0.6
v 0.1 0.2 0.6
v 0.2 0.2 0.6
v 0.1 0.2 0.4
v 0.2 0.2 0.4
v 0.1 0.2 0.3
v 0.2 0.2 0.3
v -0.2 0.2 0.2
v -0.1 0.2 0.2
v -0.2 0.2 0.1
v -0.1 0.2 0.1
v 0.1 0.2 0
v 0.2 0.2 0
v 0.1 0.2 -0.1
v 0.2 0.2 -0.1
v -0.2 0.2 -0.2
v -0.1 0.2 -0.2
v -0.2 0.2 -0.3
v -0.1 0.2 -0.3
v 0.1 0.2 -0.4
v 0.2 0.2 -0.4
v 0.1 0.2 -0.5
v 0.2 0.2 -0.5
v -0.2 0.2 -0.7
v -0.1 0.2 -0.7
v 0.1 0.2 -0.7
v 0.2 0.2 -0.7
v -0.1 0.2 -1
v 0.1 0.2 -1
v -0.2 0.2 -1.2
v -0.1 0.2 -1.2
v 0.1 0.2 -1.2
v 0.2 0.2 -1.2
v -0.1 0.2 -1.3
v 0.1 0.2 -1.3
v -0.2 0.3 1.4
v -0.1 0.3 1.4
v 0.1 0.3 1.4
v 0.2 0.3 1.4
v 0.1 0.3 1.3
v -0.1 0.3 1
v 0 0.3 1
v 0.1 0.3 1
v -0.2 0.3 0.9
v -0.1 0.3 0.9
v 0.1 0.3 0.9
v 0.2 0.3 0.9
v -0.1 0.3 0.7
v 0.1 0.3 0.7
v -0.2 0.3 0.6
v -0.1 0.3 0.6
v 0.1 0.3 0.6
v 0.2 0.3 0.6
v 0 0.3 0.4
v 0.1 0.3 0.4
v 0 0.3 0.3
v 0.1 0.3 0.3
v -0.1 0.3 0.2
v 0 0.3 0.2
v -0.1 0.3 0.1
v 0 0.3 0.1
v 0 0.3 0
v 0.1 0.3 0
v 0 0.3 -0.1
v 0.1 0.3 -0.1
v -0.1 0.3 -0.2
v 0 0.3 -0.2
v -0.1 0.3 -0.3
v 0 0.3 -0.3
v 0 0.3 -0.4
v 0.1 0.3 -0.4
v 0 0.3 -0.5
v 0.1 0.3 -0.5
v -0.1 0.3 -0.7
v 0.1 0.3 -0.7
v -0.1 0.3 -1
v 0.1 0.3 -1
v -0.1 0.4 1.4
v 0.1 0.4 1.4
v 0 0.4 1.3
v 0.1 0.4 1.3
v -0.1 0.4 1
v 0 0.4 1
v 0.1 0.4 1

# faces
f 4/4/1 2/4/1 1/4/1
f 4/2/1 3/2/1 2/2/1
f 5/2/1 3/2/1 4/2/1
f 6/4/1 4/4/1 1/4/1
f 6/4/1 5/4/1 4/4/1
f 7/4/1 5/4/1 6/4/1
f 11/2/1 9/2/1 8/2/1
f 12/2/1 9/2/1 11/2/1
f 13/2/1 9/2/1 12/2/1
f 14/4/1 10/4/1 9/4/1
f 14/2/1 9/2/1 13/2/1
f 15/4/1 10/4/1 14/4/1
f 16/4/1 10/4/1 15/4/1
f 23/2/1 14/2/1 13/2/1
f 23/2/1 15/2/1 14/2/1
f 25/2/1 15/2/1 23/2/1
f 26/2/1 15/2/1 25/2/1
f 27/4/1 16/4/1 15/4/1
f 27/2/1 15/2/1 26/2/1
f 28/2/1 17/2/1 16/2/1
f 28/4/1 16/4/1 27/4/1
f 29/4/1 18/4/1 17/4/1
f 29/2/1 17/2/1 28/2/1
f 30/2/1 19/2/1 18/2/1
f 30/4/1 18/4/1 29/4/1
f 31/4/1 20/4/1 19/4/1
f 31/2/1 19/2/1 30/2/1
f 32/2/1 21/2/1 20/2/1
f 32/4/1 20/4/1 31/4/1
f 33/1/1 22/1/1 21/1/1
f 33/2/1 21/2/1 32/2/1
f 34/1/1 22/1/1 33/1/1
f 35/2/1 25/2/1 24/2/1
f 35/2/1 26/2/1 25/2/1
f 36/4/1 28/4/1 27/4/1
f 36/2/1 26/2/1 35/2/1
f 36/4/1 27/4/1 26/4/1
f 37/4/1 28/4/1 36/4/1
f 45/3/1 39/3/1 38/3/1
f 46/3/1 39/3/1 45/3/1
f 48/3/1 41/3/1 40/3/1
f 49/3/1 41/3/1 48/3/1
f 51/4/1 43/4/1 42/4/1
f 52/2/1 44/2/1 43/2/1
f 52/4/1 43/4/1 51/4/1
f 53/2/1 44/2/1 52/2/1
f 57/3/1 50/3/1 49/3/1
f 57/3/1 49/3/1 48/3/1
f 57/3/1 48/3/1 47/3/1
f 58/3/1 50/3/1 57/3/1
f 59/3/1 50/3/1 58/3/1
f 62/2/1 55/2/1 54/2/1
f 63/4/1 56/4/1 55/4/1
f 63/2/1 55/2/1 62/2/1
f 64/2/1 57/2/1 56/2/1
f 64/4/1 56/4/1 63/4/1
f 64/2/1 58/2/1 57/2/1
f 65/4/1 59/4/1 58/4/1
f 65/2/1 58/2/1 64/2/1
f 66/2/1 60/2/1 59/2/1
f 66/4/1 59/4/1 65/4/1
f 67/1/1 61/1/1 60/1/1
f 67/2/1 60/2/1 66/2/1
f 68/1/1 61/1/1 67/1/1
f 70/1/1 69/1/1 68/1/1
f 71/1/1 69/1/1 70/1/1
f 79/1/1 70/1/1 68/1/1
f 80/1/1 70/1/1 79/1/1
f 83/2/1 73/2/1 72/2/1
f 84/4/1 74/4/1 73/4/1
f 84/2/1 73/2/1 83/2/1
f 85/2/1 75/2/1 74/2/1
f 85/4/1 74/4/1 84/4/1
f 86/4/1 76/4/1 75/4/1
f 86/2/1 75/2/1 85/2/1
f 87/2/1 77/2/1 76/2/1
f 87/4/1 76/4/1 86/4/1
f 88/1/1 78/1/1 77/1/1
f 88/2/1 77/2/1 87/2/1
f 89/1/1 78/1/1 88/1/1
f 90/4/1 82/4/1 81/4/1
f 91/4/1 82/4/1 90/4/1
f 95/3/1 93/3/1 92/3/1
f 96/3/1 93/3/1 95/3/1
f 97/3/1 93/3/1 96/3/1
f 98/3/1 95/3/1 94/3/1
f 99/3/1 95/3/1 98/3/1
f 100/3/1 97/3/1 96/3/1
f 101/3/1 97/3/1 100/3/1
f 102/3/1 97/3/1 101/3/1
f 103/3/2 104/3/2 106/3/2
f 106/3/2 104/3/2 107/3/2
f 107/3/2 104/3/2 108/3/2
f 108/3/2 104/3/2 109/3/2
f 105/3/2 106/3/2 113/3/2
f 113/3/2 106/3/2 114/3/2
f 107/3/2 108/3/2 115/3/2
f 115/3/2 108/3/2 116/3/2
f 109/3/2 110/3/2 118/3/2
f 118/3/2 110/3/2 119/3/2
f 111/4/2 112/4/2 121/4/2
f 121/4/2 112/4/2 122/4/2
f 117/3/2 118/3/2 126/3/2
f 126/3/2 118/3/2 127/3/2
f 119/3/2 120/3/2 128/3/2
f 128/3/2 120/3/2 129/3/2
f 123/2/2 124/2/2 134/2/2
f 124/4/2 125/4/2 135/4/2
f 134/2/2 124/2/2 135/2/2
f 125/2/2 126/2/2 136/2/2
f 135/4/2 125/4/2 136/4/2
f 126/4/2 127/4/2 137/4/2
f 136/2/2 126/2/2 137/2/2
f 127/2/2 128/2/2 138/2/2
f 137/4/2 127/4/2 138/4/2
f 128/2/2 129/2/2 138/2/2
f 129/2/2 130/2/2 138/2/2
f 130/4/2 131/4/2 139/4/2
f 138/2/2 130/2/2 139/2/2
f 131/2/2 132/2/2 140/2/2
f 139/4/2 131/4/2 140/4/2
f 132/1/2 133/1/2 141/1/2
f 140/2/2 132/2/2 141/2/2
f 141/1/2 133/1/2 142/1/2
f 142/1/2 143/1/2 144/1/2
f 144/1/2 143/1/2 145/1/2
f 142/1/2 144/1/2 155/1/2
f 155/1/2 144/1/2 156/1/2
f 146/2/2 147/2/2 160/2/2
f 147/4/2 148/4/2 161/4/2
f 160/2/2 147/2/2 161/2/2
f 148/2/2 149/2/2 162/2/2
f 161/4/2 148/4/2 162/4/2
f 149/4/2 150/4/2 163/4/2
f 162/2/2 149/2/2 163/2/2
f 150/2/2 151/2/2 164/2/2
f 163/4/2 150/4/2 164/4/2
f 151/4/2 152/4/2 165/4/2
f 164/2/2 151/2/2 165/2/2
f 152/2/2 153/2/2 166/2/2
f 165/4/2 152/4/2 166/4/2
f 153/1/2 154/1/2 167/1/2
f 166/2/2 153/2/2 167/2/2
f 167/1/2 154/1/2 168/1/2
f 157/4/2 158/4/2 169/4/2
f 158/2/2 159/2/2 170/2/2
f 169/4/2 158/4/2 170/4/2
f 170/2/2 159/2/2 171/2/2
f 172/3/2 173/3/2 176/3/2
f 176/3/2 173/3/2 177/3/2
f 174/3/2 175/3/2 178/3/2
f 178/3/2 175/3/2 179/3/2
f 179/3/2 180/3/2 184/3/2
f 184/3/2 180/3/2 185/3/2
f 181/2/2 182/2/2 186/2/2
f 186/2/2 182/2/2 187/2/2
f 182/4/2 183/4/2 188/4/2
f 187/2/2 182/2/2 188/2/2
f 188/4/2 183/4/2 189/4/2
f 189/4/2 183/4/2 190/4/2
f 187/2/2 188/2/2 199/2/2
f 188/2/2 189/2/2 199/2/2
f 199/2/2 189/2/2 202/2/2
f 202/2/2 189/2/2 203/2/2
f 189/4/2 190/4/2 204/4/2
f 203/2/2 189/2/2 204/2/2
f 190/2/2 191/2/2 205/2/2
f 204/4/2 190/4/2 205/4/2
f 191/4/2 192/4/2 206/4/2
f 205/2/2 191/2/2 206/2/2
f 192/2/2 193/2/2 207/2/2
f 206/4/2 192/4/2 207/4/2
f 193/4/2 194/4/2 208/4/2
f 207/2/2 193/2/2 208/2/2
f 194/2/2 195/2/2 209/2/2
f 208/4/2 194/4/2 209/4/2
f 195/4/2 196/4/2 210/4/2
f 209/2/2 195/2/2 210/2/2
f 196/2/2 197/2/2 211/2/2
f 210/4/2 196/4/2 211/4/2
f 197/1/2 198/1/2 212/1/2
f 211/2/2 197/2/2 212/2/2
f 212/1/2 198/1/2 213/1/2
f 201/2/2 202/2/2 214/2/2
f 200/2/2 201/2/2 214/2/2
f 202/2/2 203/2/2 214/2/2
f 204/4/2 205/4/2 215/4/2
f 214/2/2 203/2/2 215/2/2
f 203/4/2 204/4/2 215/4/2
f 215/4/2 205/4/2 216/4/2
f 217/4/2 218/4/2 219/4/2
f 219/4/2 218/4/2 220/4/2
f 217/4/2 219/4/2 221/4/2
f 219/2/2 220/2/2 222/2/2
f 221/4/2 219/4/2 222/4/2
f 222/2/2 220/2/2 223/2/2
f 227/4/3 225/4/3 224/4/3
f 228/4/3 225/4/3 227/4/3
f 231/2/3 227/2/3 226/2/3
f 232/6/3 228/6/3 227/6/3
f 232/2/3 227/2/3 231/2/3
f 233/2/3 229/2/3 228/2/3
f 233/6/3 228/6/3 232/6/3
f 234/2/3 229/2/3 233/2/3
f 236/4/3 231/4/3 230/4/3
f 237/6/3 232/6/3 231/6/3
f 237/4/3 231/4/3 236/4/3
f 237/6/3 233/6/3 232/6/3
f 237/6/3 234/6/3 233/6/3
f 238/6/3 234/6/3 237/6/3
f 239/6/3 234/6/3 238/6/3
f 240/4/3 235/4/3 234/4/3
f 240/6/3 234/6/3 239/6/3
f 241/4/3 235/4/3 240/4/3
f 242/2/3 238/2/3 237/2/3
f 243/6/3 239/6/3 238/6/3
f 243/2/3 238/2/3 242/2/3
f 244/2/3 240/2/3 239/2/3
f 244/6/3 239/6/3 243/6/3
f 245/2/3 240/2/3 244/2/3
f 246/4/3 244/4/3 243/4/3
f 247/4/3 244/4/3 246/4/3
f 250/3/3 249/3/3 248/3/3
f 251/3/3 249/3/3 250/3/3
f 255/3/3 253/3/3 252/3/3
f 256/3/3 253/3/3 255/3/3
f 257/3/3 255/3/3 254/3/3
f 258/3/3 255/3/3 257/3/3
f 260/3/3 259/3/3 258/3/3
f 261/3/3 259/3/3 260/3/3
f 264/3/3 263/3/3 262/3/3
f 265/3/3 263/3/3 264/3/3
f 268/3/3 267/3/3 266/3/3
f 269/3/3 267/3/3 268/3/3
f 270/3/3 267/3/3 269/3/3
f 273/3/3 272/3/3 271/3/3
f 274/3/3 272/3/3 273/3/3
f 277/3/3 276/3/3 275/3/3
f 278/3/3 276/3/3 277/3/3
f 279/2/4 280/2/4 282/2/4
f 280/4/4 281/4/4 283/4/4
f 282/2/4 280/2/4 283/2/4
f 283/4/4 281/4/4 284/4/4
f 285/2/4 286/2/4 289/2/4
f 289/2/4 286/2/4 290/2/4
f 287/4/4 288/4/4 291/4/4
f 291/4/4 288/4/4 292/4/4
f 289/4/4 290/4/4 293/4/4
f 293/4/4 290/4/4 294/4/4
f 291/2/4 292/2/4 295/2/4
f 295/2/4 292/2/4 296/2/4
f 297/4/4 298/4/4 300/4/4
f 298/2/4 299/2/4 301/2/4
f 300/4/4 298/4/4 301/4/4
f 301/2/4 299/2/4 302/2/4
f 303/4/4 304/4/4 307/4/4
f 307/4/4 304/4/4 308/4/4
f 305/4/4 306/4/4 309/4/4
f 309/4/4 306/4/4 310/4/4
f 311/3/4 312/3/4 317/3/4
f 317/3/4 312/3/4 318/3/4
f 313/4/4 314/4/4 319/4/4
f 319/4/4 314/4/4 320/4/4
f 315/4/4 316/4/4 321/4/4
f 321/4/4 316/4/4 322/4/4
f 323/3/4 324/3/4 325/3/4
f 325/3/4 324/3/4 326/3/4
f 327/3/4 328/3/4 329/3/4
f 329/3/4 328/3/4 330/3/4
f 330/3/4 331/3/4 332/3/4
f 332/3/4 331/3/4 333/3/4
f 334/3/4 335/3/4 336/3/4
f 336/3/4 335/3/4 337/3/4
f 337/3/4 338/3/4 339/3/4
f 339/3/4 338/3/4 340/3/4
f 341/3/4 342/3/4 343/3/4
f 343/3/4 342/3/4 344/3/4
f 345/1/4 346/1/4 347/1/4
f 347/1/4 346/1/4 348/1/4
f 349/1/4 350/1/4 352/1/4
f 352/1/4 350/1/4 353/1/4
f 351/1/4 352/1/4 354/1/4
f 354/1/4 352/1/4 355/1/4
f 355/1/4 356/1/4 357/1/4
f 357/1/4 356/1/4 358/1/4
f 359/1/4 360/1/4 361/1/4
f 361/1/4 360/1/4 362/1/4
f 363/1/4 364/1/4 365/1/4
f 365/1/4 364/1/4 366/1/4
f 369/3/5 368/3/5 367/3/5
f 370/3/5 368/3/5 369/3/5
f 374/3/5 372/3/5 371/3/5
f 375/3/5 372/3/5 374/3/5
f 377/3/5 376/3/5 375/3/5
f 378/3/5 376/3/5 377/3/5
f 379/3/5 374/3/5 373/3/5
f 380/3/5 374/3/5 379/3/5
f 385/3/5 382/3/5 381/3/5
f 386/3/5 382/3/5 385/3/5
f 387/3/5 384/3/5 383/3/5
f 387/3/5 385/3/5 384/3/5
f 388/3/5 385/3/5 387/3/5
f 391/4/5 390/4/5 389/4/5
f 392/4/5 390/4/5 391/4/5
f 393/2/5 392/2/5 391/2/5
f 394/4/5 390/4/5 392/4/5
f 394/2/5 392/2/5 393/2/5
f 395/4/5 390/4/5 394/4/5
f 398/3/5 397/3/5 396/3/5
f 399/3/5 397/3/5 398/3/5
f 403/3/5 401/3/5 400/3/5
f 404/3/5 401/3/5 403/3/5
f 405/3/5 403/3/5 402/3/5
f 406/3/5 403/3/5 405/3/5
f 411/2/5 408/2/5 407/2/5
f 412/2/5 411/2/5 407/2/5
f 414/2/5 410/2/5 409/2/5
f 415/2/5 413/2/5 412/2/5
f 415/2/5 414/2/5 413/2/5
f 415/2/5 412/2/5 407/2/5
f 416/2/5 414/2/5 415/2/5
f 417/2/5 410/2/5 414/2/5
f 417/2/5 414/2/5 416/2/5
f 418/2/5 410/2/5 417/2/5
f 419/4/5 416/4/5 415/4/5
f 419/2/5 417/2/5 416/2/5
f 420/4/5 418/4/5 417/4/5
f 420/2/5 417/2/5 419/2/5
f 421/4/5 419/4/5 415/4/5
f 421/4/5 420/4/5 419/4/5
f 422/4/5 420/4/5 421/4/5
f 423/4/5 418/4/5 420/4/5
f 423/4/5 420/4/5 422/4/5
f 424/4/5 418/4/5 423/4/5
f 425/2/5 423/2/5 422/2/5
f 426/2/5 423/2/5 425/2/5
f 427/2/5 425/2/5 422/2/5
f 427/4/5 426/4/5 425/4/5
f 428/4/5 426/4/5 427/4/5
f 429/2/5 427/2/5 422/2/5
f 429/2/5 428/2/5 427/2/5
f 430/2/5 428/2/5 429/2/5
f 431/4/5 430/4/5 429/4/5
f 432/2/5 428/2/5 430/2/5
f 432/4/5 430/4/5 431/4/5
f 433/2/5 432/2/5 431/2/5
f 434/2/5 428/2/5 432/2/5
f 434/2/5 432/2/5 433/2/5
f 437/2/5 436/2/5 435/2/5
f 438/2/5 436/2/5 437/2/5
f 439/2/5 437/2/5 435/2/5
f 439/4/5 438/4/5 437/4/5
f 440/4/5 438/4/5 439/4/5
f 441/2/5 439/2/5 435/2/5
f 441/2/5 440/2/5 439/2/5
f 442/2/5 440/2/5 441/2/5
f 443/1/5 442/1/5 441/1/5
f 444/1/5 442/1/5 443/1/5
f 449/4/5 446/4/5 445/4/5
f 450/4/5 446/4/5 449/4/5
f 451/2/5 450/2/5 449/2/5
f 452/2/5 450/2/5 451/2/5
f 453/4/5 448/4/5 447/4/5
f 454/4/5 448/4/5 453/4/5
f 459/2/5 458/2/5 457/2/5
f 460/2/5 458/2/5 459/2/5
f 461/4/5 460/4/5 459/4/5
f 462/4/5 460/4/5 461/4/5
f 463/2/5 456/2/5 455/2/5
f 464/2/5 456/2/5 463/2/5
f 465/4/5 464/4/5 463/4/5
f 466/4/5 464/4/5 465/4/5
f 467/2/5 462/2/5 461/2/5
f 468/2/5 462/2/5 467/2/5
f 469/4/5 468/4/5 467/4/5
f 470/4/5 468/4/5 469/4/5
f 471/2/5 466/2/5 465/2/5
f 472/2/5 466/2/5 471/2/5
f 473/4/5 472/4/5 471/4/5
f 474/4/5 472/4/5 473/4/5
f 475/2/5 470/2/5 469/2/5
f 476/2/5 470/2/5 475/2/5
f 477/4/5 476/4/5 475/4/5
f 478/4/5 476/4/5 477/4/5
f 479/2/5 474/2/5 473/2/5
f 480/2/5 474/2/5 479/2/5
f 481/2/5 478/2/5 477/2/5
f 482/2/5 478/2/5 481/2/5
f 483/1/5 480/1/5 479/1/5
f 484/1/5 480/1/5 483/1/5
f 485/1/5 482/1/5 481/1/5
f 486/1/5 482/1/5 485/1/5
f 487/1/5 485/1/5 484/1/5
f 488/1/5 485/1/5 487/1/5
f 489/3/6 490/3/6 492/3/6
f 492/3/6 490/3/6 493/3/6
f 491/3/6 492/3/6 495/3/6
f 493/3/6 494/3/6 495/3/6
f 492/3/6 493/3/6 495/3/6
f 495/3/6 494/3/6 496/3/6
f 491/3/6 495/3/6 497/3/6
f 497/3/6 495/3/6 498/3/6
f 498/3/6 495/3/6 499/3/6
f 498/3/6 499/3/6 501/3/6
f 499/3/6 500/3/6 501/3/6
f 501/3/6 500/3/6 502/3/6
f 502/3/6 500/3/6 503/3/6
f 503/3/6 500/3/6 504/3/6
f 505/3/6 506/3/6 507/3/6
f 507/3/6 506/3/6 508/3/6
f 509/1/6 510/1/6 511/1/6
f 511/1/6 510/1/6 512/1/6
f 515/4/6 516/4/6 517/4/6
f 517/4/6 516/4/6 518/4/6
f 513/4/6 514/4/6 519/4/6
f 519/4/6 514/4/6 520/4/6
f 517/2/6 518/2/6 521/2/6
f 521/2/6 518/2/6 522/2/6
f 525/2/6 526/2/6 527/2/6
f 527/2/6 526/2/6 528/2/6
f 527/4/6 528/4/6 529/4/6
f 529/4/6 528/4/6 530/4/6
f 523/2/6 524/2/6 531/2/6
f 531/2/6 524/2/6 532/2/6
f 531/4/6 532/4/6 533/4/6
f 533/4/6 532/4/6 534/4/6
f 529/2/6 530/2/6 535/2/6
f 535/2/6 530/2/6 536/2/6
f 535/4/6 536/4/6 537/4/6
f 537/4/6 536/4/6 538/4/6
f 533/2/6 534/2/6 539/2/6
f 539/2/6 534/2/6 540/2/6
f 539/4/6 540/4/6 541/4/6
f 541/4/6 540/4/6 542/4/6
f 537/2/6 538/2/6 543/2/6
f 543/2/6 538/2/6 544/2/6
f 543/4/6 544/4/6 545/4/6
f 545/4/6 544/4/6 546/4/6
f 541/2/6 542/2/6 547/2/6
f 547/2/6 542/2/6 548/2/6
f 545/2/6 546/2/6 549/2/6
f 549/2/6 546/2/6 550/2/6
f 547/1/6 548/1/6 551/1/6
f 549/1/6 550/1/6 552/1/6
f 547/1/6 551/1/6 553/1/6
f 551/1/6 552/1/6 553/1/6
f 553/1/6 552/1/6 554/1/6
f 552/1/6 550/1/6 555/1/6
f 554/1/6 552/1/6 555/1/6
f 555/1/6 550/1/6 556/1/6
f 554/1/6 555/1/6 557/1/6
f 557/1/6 555/1/6 558/1/6
f 561/2/6 562/2/6 563/2/6
f 559/2/6 560/2/6 564/2/6
f 563/2/6 562/2/6 566/2/6
f 564/2/6 565/2/6 567/2/6
f 565/2/6 566/2/6 567/2/6
f 559/2/6 564/2/6 567/2/6
f 567/2/6 566/2/6 568/2/6
f 566/2/6 562/2/6 569/2/6
f 568/2/6 566/2/6 569/2/6
f 569/2/6 562/2/6 570/2/6
f 567/4/6 568/4/6 571/4/6
f 568/2/6 569/2/6 571/2/6
f 569/4/6 570/4/6 572/4/6
f 571/2/6 569/2/6 572/2/6
f 567/4/6 571/4/6 573/4/6
f 571/4/6 572/4/6 573/4/6
f 573/4/6 572/4/6 574/4/6
f 572/4/6 570/4/6 575/4/6
f 574/4/6 572/4/6 575/4/6
f 575/4/6 570/4/6 576/4/6
f 574/2/6 575/2/6 577/2/6
f 577/2/6 575/2/6 578/2/6
f 574/2/6 577/2/6 579/2/6
f 577/4/6 578/4/6 579/4/6
f 579/4/6 578/4/6 580/4/6
f 574/2/6 579/2/6 581/2/6
f 579/2/6 580/2/6 581/2/6
f 581/2/6 580/2/6 582/2/6
f 581/4/6 582/4/6 583/4/6
f 582/2/6 580/2/6 584/2/6
f 583/4/6 582/4/6 584/4/6
f 583/2/6 584/2/6 585/2/6
f 584/2/6 580/2/6 585/2/6
f 585/2/6 580/2/6 586/2/6
f 583/2/6 585/2/6 587/2/6
f 585/4/6 586/4/6 587/4/6
f 587/4/6 586/4/6 588/4/6
f 583/2/6 587/2/6 589/2/6
f 587/2/6 588/2/6 589/2/6
f 589/2/6 588/2/6 590/2/6
f 589/4/6 590/4/6 591/4/6
f 590/2/6 588/2/6 592/2/6
f 591/4/6 590/4/6 592/4/6
f 591/2/6 592/2/6 593/2/6
f 592/2/6 588/2/6 593/2/6
f 593/2/6 588/2/6 594/2/6
f 591/2/6 593/2/6 595/2/6
f 593/4/6 594/4/6 595/4/6
f 595/4/6 594/4/6 596/4/6
f 591/2/6 595/2/6 597/2/6
f 595/2/6 596/2/6 597/2/6
f 597/2/6 596/2/6 598/2/6
f 597/1/6 598/1/6 599/1/6
f 599/1/6 598/1/6 600/1/6
f 601/4/6 602/4/6 603/4/6
f 603/4/6 602/4/6 604/4/6
f 601/4/6 603/4/6 605/4/6
f 603/2/6 604/2/6 606/2/6
f 605/4/6 603/4/6 606/4/6
f 606/2/6 604/2/6 607/2/6
